ZillaSlab-SemiBoldItalic.ufo
<glyph name="exclam" format="1">
  <advance width="249"/>
  <unicode hex="0021"/>
  <outline>
    <contour>
      <point x="226" y="650" type="line"/>
      <point x="156" y="217" type="line"/>
      <point x="79" y="217" type="line"/>
      <point x="101" y="650" type="line"/>
    </contour>
    <contour>
      <point x="37" y="0" type="line"/>
      <point x="162" y="0" type="line"/>
      <point x="175" y="127" type="line"/>
      <point x="50" y="127" type="line"/>
    </contour>
  </outline>
</glyph>
<glyph name="quotedbl" format="1">
  <advance width="374"/>
  <unicode hex="0022"/>
  <outline>
    <contour>
      <point x="153" y="377" type="line"/>
      <point x="190" y="650" type="line"/>
      <point x="85" y="650" type="line"/>
      <point x="64" y="377" type="line"/>
    </contour>
    <contour>
      <point x="329" y="377" type="line"/>
      <point x="366" y="650" type="line"/>
      <point x="261" y="650" type="line"/>
      <point x="240" y="377" type="line"/>
    </contour>
  </outline>
</glyph>
<glyph name="numbersign" format="1">
  <advance width="569"/>
  <unicode hex="0023"/>
  <outline>
    <contour>
      <point x="520" y="521" type="line"/>
      <point x="488" y="413" type="line"/>
      <point x="550" y="413" type="line"/>
      <point x="541" y="331" type="line"/>
      <point x="464" y="331" type="line"/>
      <point x="423" y="192" type="line"/>
      <point x="497" y="192" type="line"/>
      <point x="489" y="110" type="line"/>
      <point x="399" y="110" type="line"/>
      <point x="367" y="0" type="line"/>
      <point x="276" y="0" type="line"/>
      <point x="308" y="110" type="line"/>
      <point x="164" y="110" type="line"/>
      <point x="132" y="0" type="line"/>
      <point x="42" y="0" type="line"/>
      <point x="74" y="110" type="line"/>
      <point x="16" y="110" type="line"/>
      <point x="24" y="192" type="line"/>
      <point x="98" y="192" type="line"/>
      <point x="139" y="331" type="line"/>
      <point x="69" y="331" type="line"/>
      <point x="78" y="413" type="line"/>
      <point x="163" y="413" type="line"/>
      <point x="195" y="521" type="line"/>
      <point x="285" y="521" type="line"/>
      <point x="253" y="413" type="line"/>
      <point x="397" y="413" type="line"/>
      <point x="429" y="521" type="line"/>
    </contour>
    <contour>
      <point x="188" y="192" type="line"/>
      <point x="332" y="192" type="line"/>
      <point x="373" y="331" type="line"/>
      <point x="229" y="331" type="line"/>
    </contour>
  </outline>
</glyph>
<glyph name="ampersand" format="1">
  <advance width="699"/>
  <unicode hex="0026"/>
  <outline>
    <contour>
      <point x="436" y="376" type="line"/>
      <point x="692" y="376" type="line"/>
      <point x="682" y="282" type="line"/>
      <point x="605" y="282" type="line"/>
      <point x="578" y="228"/>
      <point x="531" y="167"/>
      <point x="473" y="115" type="curve"/>
      <point x="503" y="100"/>
      <point x="534" y="92"/>
      <point x="565" y="92" type="curve" smooth="yes"/>
      <point x="588" y="92"/>
      <point x="613" y="98"/>
      <point x="635" y="108" type="curve"/>
      <point x="649" y="17" type="line"/>
      <point x="613" y="-2"/>
      <point x="574" y="-10"/>
      <point x="538" y="-10" type="curve" smooth="yes"/>
      <point x="481" y="-10"/>
      <point x="426" y="10"/>
      <point x="375" y="44" type="curve"/>
      <point x="320" y="11"/>
      <point x="260" y="-10"/>
      <point x="202" y="-10" type="curve" smooth="yes"/>
      <point x="107" y="-10"/>
      <point x="19" y="45"/>
      <point x="19" y="149" type="curve" smooth="yes"/>
      <point x="19" y="243"/>
      <point x="95" y="286"/>
      <point x="165" y="320" type="curve"/>
      <point x="149" y="364"/>
      <point x="140" y="408"/>
      <point x="140" y="449" type="curve" smooth="yes"/>
      <point x="140" y="561"/>
      <point x="207" y="660"/>
      <point x="343" y="660" type="curve" smooth="yes"/>
      <point x="441" y="660"/>
      <point x="504" y="608"/>
      <point x="504" y="523" type="curve" smooth="yes"/>
      <point x="504" y="424"/>
      <point x="413" y="380"/>
      <point x="285" y="318" type="curve"/>
      <point x="315" y="255"/>
      <point x="361" y="196"/>
      <point x="413" y="154" type="curve"/>
      <point x="446" y="186"/>
      <point x="473" y="228"/>
      <point x="491" y="282" type="curve"/>
      <point x="426" y="282" type="line"/>
    </contour>
    <contour>
      <point x="395" y="518" type="curve" smooth="yes"/>
      <point x="395" y="546"/>
      <point x="382" y="577"/>
      <point x="335" y="577" type="curve" smooth="yes"/>
      <point x="273" y="577"/>
      <point x="247" y="523"/>
      <point x="247" y="464" type="curve" smooth="yes"/>
      <point x="247" y="434"/>
      <point x="253" y="402"/>
      <point x="263" y="370" type="curve"/>
      <point x="349" y="418"/>
      <point x="395" y="464"/>
    </contour>
    <contour>
      <point x="187" y="267" type="curve"/>
      <point x="147" y="240"/>
      <point x="125" y="209"/>
      <point x="125" y="165" type="curve" smooth="yes"/>
      <point x="125" y="102"/>
      <point x="173" y="81"/>
      <point x="235" y="81" type="curve" smooth="yes"/>
      <point x="261" y="81"/>
      <point x="287" y="85"/>
      <point x="313" y="93" type="curve"/>
      <point x="261" y="142"/>
      <point x="217" y="203"/>
    </contour>
  </outline>
</glyph>
<glyph name="parenleft" format="1">
  <advance width="281"/>
  <unicode hex="0028"/>
  <outline>
    <contour>
      <point x="234" y="718" type="curve"/>
      <point x="329" y="718" type="line"/>
      <point x="188" y="557"/>
      <point x="115" y="392"/>
      <point x="115" y="212" type="curve" smooth="yes"/>
      <point x="115" y="79"/>
      <point x="154" y="-66"/>
      <point x="234" y="-183" type="curve"/>
      <point x="137" y="-183" type="line"/>
      <point x="60" y="-60"/>
      <point x="26" y="79"/>
      <point x="26" y="208" type="curve" smooth="yes"/>
      <point x="26" y="385"/>
      <point x="90" y="552"/>
    </contour>
  </outline>
</glyph>
<glyph name="parenright" format="1">
  <advance width="281"/>
  <unicode hex="0029"/>
  <outline>
    <contour>
      <point x="45" y="-183" type="curve"/>
      <point x="-50" y="-183" type="line"/>
      <point x="91" y="-22"/>
      <point x="164" y="143"/>
      <point x="164" y="323" type="curve" smooth="yes"/>
      <point x="164" y="456"/>
      <point x="125" y="601"/>
      <point x="45" y="718" type="curve"/>
      <point x="142" y="718" type="line"/>
      <point x="219" y="595"/>
      <point x="253" y="456"/>
      <point x="253" y="327" type="curve" smooth="yes"/>
      <point x="253" y="150"/>
      <point x="189" y="-17"/>
    </contour>
  </outline>
</glyph>
<glyph name="asterisk" format="1">
  <advance width="406"/>
  <unicode hex="002A"/>
  <outline>
    <contour>
      <point x="399" y="541" type="line"/>
      <point x="283" y="483" type="line"/>
      <point x="386" y="425" type="line"/>
      <point x="340" y="362" type="line"/>
      <point x="250" y="428" type="line"/>
      <point x="244" y="318" type="line"/>
      <point x="170" y="318" type="line"/>
      <point x="188" y="428" type="line"/>
      <point x="83" y="362" type="line"/>
      <point x="50" y="425" type="line"/>
      <point x="165" y="483" type="line"/>
      <point x="62" y="541" type="line"/>
      <point x="108" y="605" type="line"/>
      <point x="200" y="537" type="line"/>
      <point x="205" y="650" type="line"/>
      <point x="279" y="650" type="line"/>
      <point x="260" y="538" type="line"/>
      <point x="366" y="605" type="line"/>
    </contour>
  </outline>
</glyph>
<glyph name="plus" format="1">
  <advance width="401"/>
  <unicode hex="002B"/>
  <outline>
    <contour>
      <point x="27" y="244" type="line"/>
      <point x="163" y="244" type="line"/>
      <point x="148" y="108" type="line"/>
      <point x="222" y="108" type="line"/>
      <point x="236" y="244" type="line"/>
      <point x="367" y="244" type="line"/>
      <point x="374" y="318" type="line"/>
      <point x="244" y="318" type="line"/>
      <point x="259" y="455" type="line"/>
      <point x="186" y="455" type="line"/>
      <point x="171" y="318" type="line"/>
      <point x="34" y="318" type="line"/>
    </contour>
  </outline>
</glyph>
<glyph name="comma" format="1">
  <advance width="213"/>
  <unicode hex="002C"/>
  <outline>
    <contour>
      <point x="-27" y="-92" type="line"/>
      <point x="76" y="-92" type="line"/>
      <point x="156" y="136" type="line"/>
      <point x="54" y="136" type="line"/>
    </contour>
  </outline>
</glyph>
<glyph name="hyphen" format="1">
  <advance width="325"/>
  <unicode hex="002D"/>
  <outline>
    <contour>
      <point x="47" y="278" type="line"/>
      <point x="279" y="278" type="line"/>
      <point x="270" y="188" type="line"/>
      <point x="38" y="188" type="line"/>
    </contour>
  </outline>
</glyph>
<glyph name="period" format="1">
  <advance width="218"/>
  <unicode hex="002E"/>
  <outline>
    <contour>
      <point x="18" y="0" type="line"/>
      <point x="146" y="0" type="line"/>
      <point x="160" y="139" type="line"/>
      <point x="32" y="139" type="line"/>
    </contour>
  </outline>
</glyph>
<glyph name="slash" format="1">
  <advance width="385"/>
  <unicode hex="002F"/>
  <outline>
    <contour>
      <point x="394" y="688" type="line"/>
      <point x="112" y="0" type="line"/>
      <point x="14" y="0" type="line"/>
      <point x="295" y="688" type="line"/>
    </contour>
  </outline>
</glyph>
<glyph name="zero" format="1">
  <advance width="566"/>
  <unicode hex="0030"/>
  <outline>
    <contour>
      <point x="32" y="223" type="curve" smooth="yes"/>
      <point x="32" y="392"/>
      <point x="132" y="529"/>
      <point x="310" y="529" type="curve" smooth="yes"/>
      <point x="458" y="529"/>
      <point x="529" y="434"/>
      <point x="529" y="286" type="curve" smooth="yes"/>
      <point x="529" y="100"/>
      <point x="418" y="-10"/>
      <point x="254" y="-10" type="curve" smooth="yes"/>
      <point x="118" y="-10"/>
      <point x="32" y="66"/>
    </contour>
    <contour>
      <point x="150" y="234" type="curve" smooth="yes"/>
      <point x="150" y="138"/>
      <point x="177" y="88"/>
      <point x="262" y="88" type="curve" smooth="yes"/>
      <point x="349" y="88"/>
      <point x="414" y="143"/>
      <point x="414" y="287" type="curve" smooth="yes"/>
      <point x="414" y="384"/>
      <point x="384" y="431"/>
      <point x="298" y="431" type="curve" smooth="yes"/>
      <point x="202" y="431"/>
      <point x="150" y="370"/>
    </contour>
  </outline>
</glyph>
<glyph name="one" format="1">
  <advance width="387"/>
  <unicode hex="0031"/>
  <outline>
    <contour>
      <point x="26" y="95" type="line"/>
      <point x="139" y="95" type="line"/>
      <point x="174" y="426" type="line"/>
      <point x="62" y="426" type="line"/>
      <point x="72" y="521" type="line"/>
      <point x="292" y="521" type="line"/>
      <point x="247" y="95" type="line"/>
      <point x="352" y="95" type="line"/>
      <point x="342" y="0" type="line"/>
      <point x="17" y="0" type="line"/>
    </contour>
  </outline>
</glyph>
<glyph name="two" format="1">
  <advance width="518"/>
  <unicode hex="0032"/>
  <outline>
    <contour>
      <point x="142" y="341" type="line"/>
      <point x="166" y="418" type="line"/>
      <point x="192" y="431"/>
      <point x="232" y="436"/>
      <point x="256" y="436" type="curve" smooth="yes"/>
      <point x="310" y="436"/>
      <point x="347" y="415"/>
      <point x="347" y="369" type="curve" smooth="yes"/>
      <point x="347" y="278"/>
      <point x="203" y="202"/>
      <point x="18" y="87" type="curve"/>
      <point x="19" y="0" type="line"/>
      <point x="447" y="0" type="line"/>
      <point x="469" y="164" type="line"/>
      <point x="383" y="172" type="line"/>
      <point x="370" y="95" type="line"/>
      <point x="153" y="95" type="line"/>
      <point x="284" y="164"/>
      <point x="466" y="248"/>
      <point x="466" y="391" type="curve" smooth="yes"/>
      <point x="466" y="463"/>
      <point x="420" y="531"/>
      <point x="287" y="531" type="curve" smooth="yes"/>
      <point x="236" y="531"/>
      <point x="161" y="520"/>
      <point x="93" y="490" type="curve"/>
      <point x="58" y="350" type="line"/>
    </contour>
  </outline>
</glyph>
<glyph name="three" format="1">
  <advance width="516"/>
  <unicode hex="0033"/>
  <outline>
    <contour>
      <point x="148" y="341" type="line"/>
      <point x="173" y="418" type="line"/>
      <point x="197" y="430"/>
      <point x="235" y="436"/>
      <point x="259" y="436" type="curve" smooth="yes"/>
      <point x="322" y="436"/>
      <point x="350" y="408"/>
      <point x="350" y="359" type="curve" smooth="yes"/>
      <point x="350" y="330"/>
      <point x="335" y="249"/>
      <point x="198" y="246" type="curve"/>
      <point x="191" y="172" type="line"/>
      <point x="297" y="167"/>
      <point x="343" y="139"/>
      <point x="343" y="74" type="curve" smooth="yes"/>
      <point x="343" y="20"/>
      <point x="314" y="-46"/>
      <point x="220" y="-46" type="curve" smooth="yes"/>
      <point x="140" y="-46"/>
      <point x="108" y="3"/>
      <point x="105" y="52" type="curve"/>
      <point x="15" y="24" type="line"/>
      <point x="12" y="-75"/>
      <point x="85" y="-141"/>
      <point x="218" y="-141" type="curve" smooth="yes"/>
      <point x="359" y="-141"/>
      <point x="460" y="-65"/>
      <point x="460" y="68" type="curve" smooth="yes"/>
      <point x="460" y="141"/>
      <point x="426" y="197"/>
      <point x="336" y="215" type="curve"/>
      <point x="337" y="219" type="line"/>
      <point x="436" y="254"/>
      <point x="468" y="318"/>
      <point x="468" y="386" type="curve" smooth="yes"/>
      <point x="468" y="485"/>
      <point x="390" y="531"/>
      <point x="286" y="531" type="curve" smooth="yes"/>
      <point x="234" y="531"/>
      <point x="162" y="516"/>
      <point x="99" y="487" type="curve"/>
      <point x="65" y="350" type="line"/>
    </contour>
  </outline>
</glyph>
<glyph name="five" format="1">
  <advance width="508"/>
  <unicode hex="0035"/>
  <outline>
    <contour>
      <point x="457" y="83" type="curve" smooth="yes"/>
      <point x="457" y="240"/>
      <point x="344" y="276"/>
      <point x="208" y="276" type="curve" smooth="yes"/>
      <point x="195" y="276"/>
      <point x="180" y="276"/>
      <point x="167" y="275" type="curve"/>
      <point x="183" y="426" type="line"/>
      <point x="367" y="426" type="line"/>
      <point x="375" y="347" type="line"/>
      <point x="467" y="355" type="line"/>
      <point x="470" y="521" type="line"/>
      <point x="92" y="521" type="line"/>
      <point x="60" y="215" type="line"/>
      <point x="92" y="180" type="line"/>
      <point x="120" y="182"/>
      <point x="152" y="185"/>
      <point x="182" y="185" type="curve" smooth="yes"/>
      <point x="267" y="185"/>
      <point x="339" y="166"/>
      <point x="339" y="77" type="curve" smooth="yes"/>
      <point x="339" y="13"/>
      <point x="302" y="-46"/>
      <point x="214" y="-46" type="curve" smooth="yes"/>
      <point x="137" y="-46"/>
      <point x="105" y="1"/>
      <point x="103" y="52" type="curve"/>
      <point x="13" y="24" type="line"/>
      <point x="10" y="-78"/>
      <point x="82" y="-141"/>
      <point x="212" y="-141" type="curve" smooth="yes"/>
      <point x="354" y="-141"/>
      <point x="457" y="-66"/>
    </contour>
  </outline>
</glyph>
<glyph name="seven" format="1">
  <advance width="477"/>
  <unicode hex="0037"/>
  <outline>
    <contour>
      <point x="53" y="521" type="line"/>
      <point x="31" y="317" type="line"/>
      <point x="128" y="317" type="line"/>
      <point x="139" y="427" type="line"/>
      <point x="366" y="427" type="line"/>
      <point x="85" y="-130" type="line"/>
      <point x="195" y="-130" type="line"/>
      <point x="488" y="466" type="line"/>
      <point x="480" y="521" type="line"/>
    </contour>
  </outline>
</glyph>
<glyph name="nine" format="1">
  <advance width="526"/>
  <unicode hex="0039"/>
  <outline>
    <contour>
      <point x="39" y="285" type="curve" smooth="yes"/>
      <point x="39" y="190"/>
      <point x="81" y="107"/>
      <point x="199" y="107" type="curve" smooth="yes"/>
      <point x="286" y="107"/>
      <point x="341" y="153"/>
      <point x="367" y="199" type="curve"/>
      <point x="354" y="39"/>
      <point x="305" y="-45"/>
      <point x="206" y="-45" type="curve" smooth="yes"/>
      <point x="153" y="-45"/>
      <point x="109" y="-21"/>
      <point x="86" y="14" type="curve"/>
      <point x="16" y="-51" type="line"/>
      <point x="55" y="-114"/>
      <point x="122" y="-140"/>
      <point x="198" y="-140" type="curve" smooth="yes"/>
      <point x="415" y="-140"/>
      <point x="485" y="72"/>
      <point x="485" y="257" type="curve" smooth="yes"/>
      <point x="485" y="428"/>
      <point x="425" y="530"/>
      <point x="277" y="530" type="curve" smooth="yes"/>
      <point x="123" y="530"/>
      <point x="39" y="418"/>
    </contour>
    <contour>
      <point x="151" y="298" type="curve" smooth="yes"/>
      <point x="151" y="373"/>
      <point x="185" y="432"/>
      <point x="271" y="432" type="curve" smooth="yes"/>
      <point x="348" y="432"/>
      <point x="371" y="386"/>
      <point x="371" y="307" type="curve"/>
      <point x="361" y="252"/>
      <point x="322" y="198"/>
      <point x="242" y="198" type="curve" smooth="yes"/>
      <point x="175" y="198"/>
      <point x="151" y="234"/>
    </contour>
  </outline>
</glyph>
<glyph name="less" format="1">
  <advance width="390"/>
  <unicode hex="003C"/>
  <outline>
    <contour>
      <point x="310" y="14" type="line"/>
      <point x="321" y="116" type="line"/>
      <point x="135" y="281" type="line"/>
      <point x="355" y="447" type="line"/>
      <point x="366" y="549" type="line"/>
      <point x="28" y="296" type="line"/>
      <point x="24" y="262" type="line"/>
    </contour>
  </outline>
</glyph>
<glyph name="equal" format="1">
  <advance width="545"/>
  <unicode hex="003D"/>
  <outline>
    <contour>
      <point x="56" y="354" type="line"/>
      <point x="504" y="354" type="line"/>
      <point x="513" y="428" type="line"/>
      <point x="65" y="428" type="line"/>
    </contour>
    <contour>
      <point x="33" y="132" type="line"/>
      <point x="481" y="132" type="line"/>
      <point x="489" y="207" type="line"/>
      <point x="41" y="207" type="line"/>
    </contour>
  </outline>
</glyph>
<glyph name="greater" format="1">
  <advance width="392"/>
  <unicode hex="003E"/>
  <outline>
    <contour>
      <point x="364" y="262" type="line"/>
      <point x="368" y="296" type="line"/>
      <point x="82" y="549" type="line"/>
      <point x="71" y="447" type="line"/>
      <point x="258" y="281" type="line"/>
      <point x="37" y="116" type="line"/>
      <point x="26" y="14" type="line"/>
    </contour>
  </outline>
</glyph>
<glyph name="question" format="1">
  <advance width="458"/>
  <unicode hex="003F"/>
  <outline>
    <contour>
      <point x="138" y="458" type="line"/>
      <point x="161" y="538" type="line"/>
      <point x="187" y="554"/>
      <point x="223" y="562"/>
      <point x="254" y="562" type="curve" smooth="yes"/>
      <point x="304" y="562"/>
      <point x="336" y="542"/>
      <point x="336" y="504" type="curve" smooth="yes"/>
      <point x="336" y="403"/>
      <point x="125" y="410"/>
      <point x="125" y="278" type="curve" smooth="yes"/>
      <point x="125" y="217"/>
      <point x="169" y="185"/>
      <point x="274" y="196" type="curve"/>
      <point x="281" y="264" type="line"/>
      <point x="253" y="264"/>
      <point x="240" y="275"/>
      <point x="240" y="293" type="curve" smooth="yes"/>
      <point x="240" y="368"/>
      <point x="457" y="383"/>
      <point x="457" y="527" type="curve" smooth="yes"/>
      <point x="457" y="612"/>
      <point x="380" y="659"/>
      <point x="275" y="659" type="curve" smooth="yes"/>
      <point x="221" y="659"/>
      <point x="150" y="642"/>
      <point x="86" y="607" type="curve"/>
      <point x="55" y="466" type="line"/>
    </contour>
    <contour>
      <point x="124" y="0" type="line"/>
      <point x="249" y="0" type="line"/>
      <point x="262" y="127" type="line"/>
      <point x="137" y="127" type="line"/>
    </contour>
  </outline>
</glyph>
<glyph name="at" format="1">
  <advance width="884"/>
  <unicode hex="0040"/>
  <outline>
    <contour>
      <point x="632" y="297" type="curve"/>
      <point x="614" y="138" type="line" smooth="yes"/>
      <point x="614" y="136"/>
      <point x="611" y="117"/>
      <point x="611" y="114" type="curve" smooth="yes"/>
      <point x="609" y="84"/>
      <point x="622" y="62"/>
      <point x="653" y="62" type="curve" smooth="yes"/>
      <point x="724" y="62"/>
      <point x="758" y="165"/>
      <point x="758" y="282" type="curve" smooth="yes"/>
      <point x="758" y="504"/>
      <point x="635" y="574"/>
      <point x="486" y="574" type="curve" smooth="yes"/>
      <point x="267" y="574"/>
      <point x="114" y="422"/>
      <point x="114" y="192" type="curve" smooth="yes"/>
      <point x="114" y="-31"/>
      <point x="258" y="-122"/>
      <point x="419" y="-122" type="curve" smooth="yes"/>
      <point x="484" y="-122"/>
      <point x="564" y="-106"/>
      <point x="626" y="-65" type="curve"/>
      <point x="654" y="-130" type="line"/>
      <point x="586" y="-173"/>
      <point x="499" y="-202"/>
      <point x="404" y="-202" type="curve" smooth="yes"/>
      <point x="191" y="-202"/>
      <point x="25" y="-54"/>
      <point x="25" y="183" type="curve" smooth="yes"/>
      <point x="25" y="444"/>
      <point x="225" y="654"/>
      <point x="484" y="654" type="curve" smooth="yes"/>
      <point x="667" y="654"/>
      <point x="849" y="547"/>
      <point x="849" y="308" type="curve" smooth="yes"/>
      <point x="849" y="171"/>
      <point x="788" y="-10"/>
      <point x="627" y="-10" type="curve" smooth="yes"/>
      <point x="553" y="-10"/>
      <point x="506" y="30"/>
      <point x="504" y="86" type="curve"/>
      <point x="476" y="33"/>
      <point x="430" y="-10"/>
      <point x="358" y="-10" type="curve" smooth="yes"/>
      <point x="260" y="-10"/>
      <point x="209" y="70"/>
      <point x="209" y="181" type="curve" smooth="yes"/>
      <point x="209" y="300"/>
      <point x="268" y="458"/>
      <point x="417" y="458" type="curve" smooth="yes"/>
      <point x="483" y="458"/>
      <point x="528" y="426"/>
      <point x="546" y="374" type="curve"/>
      <point x="552" y="399"/>
      <point x="558" y="424"/>
      <point x="567" y="449" type="curve"/>
      <point x="667" y="449" type="line"/>
      <point x="652" y="402"/>
      <point x="637" y="348"/>
    </contour>
    <contour>
      <point x="431" y="375" type="curve" smooth="yes"/>
      <point x="351" y="375"/>
      <point x="320" y="280"/>
      <point x="320" y="194" type="curve" smooth="yes"/>
      <point x="320" y="116"/>
      <point x="346" y="72"/>
      <point x="397" y="72" type="curve" smooth="yes"/>
      <point x="457" y="72"/>
      <point x="502" y="136"/>
      <point x="516" y="194" type="curve"/>
      <point x="516" y="195" type="line"/>
      <point x="525" y="266" type="line"/>
      <point x="525" y="333"/>
      <point x="483" y="375"/>
    </contour>
  </outline>
</glyph>
<glyph name="B" format="1">
  <advance width="596"/>
  <unicode hex="0042"/>
  <outline>
    <contour>
      <point x="389" y="650" type="line" smooth="yes"/>
      <point x="501" y="650"/>
      <point x="565" y="596"/>
      <point x="565" y="511" type="curve" smooth="yes"/>
      <point x="565" y="436"/>
      <point x="516" y="372"/>
      <point x="439" y="359" type="curve"/>
      <point x="438" y="355" type="line"/>
      <point x="518" y="342"/>
      <point x="557" y="285"/>
      <point x="557" y="208" type="curve" smooth="yes"/>
      <point x="557" y="98"/>
      <point x="480" y="0"/>
      <point x="327" y="0" type="curve" smooth="yes"/>
      <point x="10" y="0" type="line"/>
      <point x="20" y="95" type="line"/>
      <point x="92" y="95" type="line"/>
      <point x="140" y="555" type="line"/>
      <point x="68" y="555" type="line"/>
      <point x="78" y="650" type="line"/>
    </contour>
    <contour>
      <point x="311" y="95" type="line" smooth="yes"/>
      <point x="396" y="95"/>
      <point x="443" y="135"/>
      <point x="443" y="204" type="curve" smooth="yes"/>
      <point x="443" y="262"/>
      <point x="410" y="290"/>
      <point x="345" y="290" type="curve" smooth="yes"/>
      <point x="219" y="290" type="line"/>
      <point x="199" y="95" type="line"/>
    </contour>
    <contour>
      <point x="329" y="377" type="line" smooth="yes"/>
      <point x="411" y="377"/>
      <point x="448" y="422"/>
      <point x="448" y="478" type="curve" smooth="yes"/>
      <point x="448" y="537"/>
      <point x="410" y="555"/>
      <point x="354" y="555" type="curve" smooth="yes"/>
      <point x="247" y="555" type="line"/>
      <point x="228" y="377" type="line"/>
    </contour>
  </outline>
</glyph>
<glyph name="D" format="1">
  <advance width="678"/>
  <unicode hex="0044"/>
  <outline>
    <contour>
      <point x="363" y="650" type="line" smooth="yes"/>
      <point x="557" y="650"/>
      <point x="654" y="537"/>
      <point x="654" y="362" type="curve" smooth="yes"/>
      <point x="654" y="153"/>
      <point x="516" y="0"/>
      <point x="301" y="0" type="curve" smooth="yes"/>
      <point x="10" y="0" type="line"/>
      <point x="20" y="95" type="line"/>
      <point x="93" y="95" type="line"/>
      <point x="141" y="555" type="line"/>
      <point x="68" y="555" type="line"/>
      <point x="78" y="650" type="line"/>
    </contour>
    <contour>
      <point x="303" y="95" type="line" smooth="yes"/>
      <point x="453" y="95"/>
      <point x="540" y="191"/>
      <point x="540" y="352" type="curve" smooth="yes"/>
      <point x="540" y="485"/>
      <point x="478" y="555"/>
      <point x="351" y="555" type="curve" smooth="yes"/>
      <point x="246" y="555" type="line"/>
      <point x="198" y="95" type="line"/>
    </contour>
  </outline>
</glyph>
<glyph name="F" format="1">
  <advance width="544"/>
  <unicode hex="0046"/>
  <outline>
    <contour>
      <point x="545" y="454" type="line"/>
      <point x="545" y="650" type="line"/>
      <point x="78" y="650" type="line"/>
      <point x="68" y="555" type="line"/>
      <point x="140" y="555" type="line"/>
      <point x="92" y="95" type="line"/>
      <point x="20" y="95" type="line"/>
      <point x="10" y="0" type="line"/>
      <point x="294" y="0" type="line"/>
      <point x="304" y="95" type="line"/>
      <point x="198" y="95" type="line"/>
      <point x="214" y="252" type="line"/>
      <point x="488" y="252" type="line"/>
      <point x="498" y="346" type="line"/>
      <point x="224" y="346" type="line"/>
      <point x="246" y="555" type="line"/>
      <point x="444" y="555" type="line"/>
      <point x="452" y="445" type="line"/>
    </contour>
  </outline>
</glyph>
<glyph name="I" format="1">
  <advance width="328"/>
  <unicode hex="0049"/>
  <outline>
    <contour>
      <point x="20" y="95" type="line"/>
      <point x="92" y="95" type="line"/>
      <point x="140" y="555" type="line"/>
      <point x="68" y="555" type="line"/>
      <point x="78" y="650" type="line"/>
      <point x="328" y="650" type="line"/>
      <point x="318" y="555" type="line"/>
      <point x="246" y="555" type="line"/>
      <point x="198" y="95" type="line"/>
      <point x="270" y="95" type="line"/>
      <point x="260" y="0" type="line"/>
      <point x="10" y="0" type="line"/>
    </contour>
  </outline>
</glyph>
<glyph name="Q" format="1">
  <advance width="705"/>
  <unicode hex="0051"/>
  <outline>
    <contour>
      <point x="387" y="660" type="curve" smooth="yes"/>
      <point x="186" y="660"/>
      <point x="33" y="495"/>
      <point x="33" y="290" type="curve" smooth="yes"/>
      <point x="33" y="126"/>
      <point x="134" y="-10"/>
      <point x="317" y="-10" type="curve" smooth="yes"/>
      <point x="381" y="-10"/>
      <point x="441" y="6"/>
      <point x="491" y="35" type="curve"/>
      <point x="579" y="-61" type="line"/>
      <point x="651" y="5" type="line"/>
      <point x="568" y="95" type="line"/>
      <point x="634" y="163"/>
      <point x="674" y="257"/>
      <point x="674" y="360" type="curve" smooth="yes"/>
      <point x="674" y="526"/>
      <point x="566" y="660"/>
    </contour>
    <contour>
      <point x="330" y="213" type="line"/>
      <point x="425" y="108" type="line"/>
      <point x="398" y="95"/>
      <point x="367" y="88"/>
      <point x="333" y="88" type="curve" smooth="yes"/>
      <point x="202" y="88"/>
      <point x="149" y="190"/>
      <point x="149" y="300" type="curve" smooth="yes"/>
      <point x="149" y="443"/>
      <point x="237" y="562"/>
      <point x="375" y="562" type="curve" smooth="yes"/>
      <point x="489" y="562"/>
      <point x="558" y="481"/>
      <point x="558" y="352" type="curve" smooth="yes"/>
      <point x="558" y="284"/>
      <point x="539" y="218"/>
      <point x="501" y="169" type="curve"/>
      <point x="402" y="279" type="line"/>
    </contour>
  </outline>
</glyph>
<glyph name="W" format="1">
  <advance width="935"/>
  <unicode hex="0057"/>
  <outline>
    <contour>
      <point x="955" y="555" type="line"/>
      <point x="903" y="555" type="line"/>
      <point x="674" y="0" type="line"/>
      <point x="596" y="0" type="line"/>
      <point x="490" y="458" type="line"/>
      <point x="486" y="458" type="line"/>
      <point x="289" y="0" type="line"/>
      <point x="209" y="0" type="line"/>
      <point x="86" y="555" type="line"/>
      <point x="33" y="555" type="line"/>
      <point x="42" y="650" type="line"/>
      <point x="279" y="650" type="line"/>
      <point x="269" y="555" type="line"/>
      <point x="199" y="555" type="line"/>
      <point x="269" y="183" type="line"/>
      <point x="275" y="183" type="line"/>
      <point x="439" y="555" type="line"/>
      <point x="383" y="555" type="line"/>
      <point x="393" y="650" type="line"/>
      <point x="631" y="650" type="line"/>
      <point x="620" y="555" type="line"/>
      <point x="568" y="555" type="line"/>
      <point x="653" y="178" type="line"/>
      <point x="659" y="178" type="line"/>
      <point x="795" y="555" type="line"/>
      <point x="720" y="555" type="line"/>
      <point x="730" y="650" type="line"/>
      <point x="964" y="650" type="line"/>
    </contour>
  </outline>
</glyph>
<glyph name="Y" format="1">
  <advance width="611"/>
  <unicode hex="0059"/>
  <outline>
    <contour>
      <point x="634" y="555" type="line"/>
      <point x="578" y="555" type="line"/>
      <point x="358" y="253" type="line"/>
      <point x="342" y="95" type="line"/>
      <point x="446" y="95" type="line"/>
      <point x="436" y="0" type="line"/>
      <point x="124" y="0" type="line"/>
      <point x="134" y="95" type="line"/>
      <point x="235" y="95" type="line"/>
      <point x="251" y="253" type="line"/>
      <point x="89" y="555" type="line"/>
      <point x="31" y="555" type="line"/>
      <point x="41" y="650" type="line"/>
      <point x="288" y="650" type="line"/>
      <point x="278" y="555" type="line"/>
      <point x="213" y="555" type="line"/>
      <point x="318" y="351" type="line"/>
      <point x="323" y="351" type="line"/>
      <point x="467" y="555" type="line"/>
      <point x="397" y="555" type="line"/>
      <point x="407" y="650" type="line"/>
      <point x="643" y="650" type="line"/>
    </contour>
  </outline>
</glyph>
<glyph name="Z" format="1">
  <advance width="565"/>
  <unicode hex="005A"/>
  <outline>
    <contour>
      <point x="495" y="0" type="line"/>
      <point x="540" y="212" type="line"/>
      <point x="448" y="222" type="line"/>
      <point x="412" y="95" type="line"/>
      <point x="160" y="95" type="line"/>
      <point x="161" y="97" type="line"/>
      <point x="553" y="597" type="line"/>
      <point x="551" y="650" type="line"/>
      <point x="99" y="650" type="line"/>
      <point x="56" y="451" type="line"/>
      <point x="148" y="442" type="line"/>
      <point x="181" y="555" type="line"/>
      <point x="392" y="555" type="line"/>
      <point x="392" y="553" type="line"/>
      <point x="1" y="59" type="line"/>
      <point x="2" y="0" type="line"/>
    </contour>
  </outline>
</glyph>
<glyph name="backslash" format="1">
  <advance width="470"/>
  <unicode hex="005C"/>
  <outline>
    <contour>
      <point x="41" y="688" type="line"/>
      <point x="323" y="0" type="line"/>
      <point x="421" y="0" type="line"/>
      <point x="140" y="688" type="line"/>
    </contour>
  </outline>
</glyph>
<glyph name="bracketright" format="1">
  <advance width="287"/>
  <unicode hex="005D"/>
  <outline>
    <contour>
      <point x="267" y="772" type="line"/>
      <point x="66" y="772" type="line"/>
      <point x="58" y="698" type="line"/>
      <point x="170" y="698" type="line"/>
      <point x="80" y="-161" type="line"/>
      <point x="-32" y="-161" type="line"/>
      <point x="-40" y="-235" type="line"/>
      <point x="161" y="-235" type="line"/>
    </contour>
  </outline>
</glyph>
<glyph name="asciicircum" format="1">
  <advance width="455"/>
  <unicode hex="005E"/>
  <outline>
    <contour>
      <point x="232" y="652" type="line"/>
      <point x="44" y="369" type="line"/>
      <point x="140" y="369" type="line"/>
      <point x="254" y="548" type="line"/>
      <point x="337" y="369" type="line"/>
      <point x="434" y="369" type="line"/>
      <point x="298" y="652" type="line"/>
    </contour>
  </outline>
</glyph>
<glyph name="underscore" format="1">
  <advance width="505"/>
  <unicode hex="005F"/>
  <outline>
    <contour>
      <point x="5" y="-70" type="line"/>
      <point x="429" y="-70" type="line"/>
      <point x="422" y="-142" type="line"/>
      <point x="-2" y="-142" type="line"/>
    </contour>
  </outline>
</glyph>
<glyph name="grave" format="1">
  <advance width="431"/>
  <unicode hex="0060"/>
  <outline>
    <contour>
      <point x="400" y="512" type="line"/>
      <point x="425" y="555" type="line"/>
      <point x="254" y="693" type="line"/>
      <point x="204" y="609" type="line"/>
    </contour>
  </outline>
</glyph>
<glyph name="b" format="1">
  <advance width="510"/>
  <unicode hex="0062"/>
  <outline>
    <contour>
      <point x="47" y="664" type="line"/>
      <point x="74" y="688" type="line"/>
      <point x="216" y="688" type="line"/>
      <point x="176" y="365" type="line"/>
      <point x="205" y="416"/>
      <point x="249" y="458"/>
      <point x="319" y="458" type="curve" smooth="yes"/>
      <point x="425" y="458"/>
      <point x="478" y="374"/>
      <point x="478" y="268" type="curve" smooth="yes"/>
      <point x="478" y="143"/>
      <point x="416" y="-10"/>
      <point x="264" y="-10" type="curve" smooth="yes"/>
      <point x="198" y="-10"/>
      <point x="154" y="20"/>
      <point x="135" y="70" type="curve"/>
      <point x="130" y="47"/>
      <point x="123" y="23"/>
      <point x="117" y="0" type="curve"/>
      <point x="14" y="0" type="line"/>
      <point x="28" y="44"/>
      <point x="41" y="91"/>
      <point x="46" y="135" type="curve" smooth="yes"/>
      <point x="103" y="606" type="line"/>
      <point x="40" y="606" type="line"/>
    </contour>
    <contour>
      <point x="252" y="72" type="curve" smooth="yes"/>
      <point x="331" y="72"/>
      <point x="367" y="175"/>
      <point x="367" y="254" type="curve" smooth="yes"/>
      <point x="367" y="325"/>
      <point x="341" y="375"/>
      <point x="284" y="375" type="curve" smooth="yes"/>
      <point x="212" y="375"/>
      <point x="171" y="301"/>
      <point x="161" y="235" type="curve" smooth="yes"/>
      <point x="160" y="229" type="line"/>
      <point x="154" y="183" type="line"/>
      <point x="153" y="118"/>
      <point x="191" y="72"/>
    </contour>
    <contour>
      <point x="226" y="566" type="move" name="top"/>
    </contour>
  </outline>
</glyph>
<glyph name="d" format="1">
  <advance width="518"/>
  <unicode hex="0064"/>
  <outline>
    <contour>
      <point x="300" y="664" type="line"/>
      <point x="327" y="688" type="line"/>
      <point x="496" y="688" type="line"/>
      <point x="422" y="82" type="line"/>
      <point x="486" y="82" type="line"/>
      <point x="479" y="22" type="line"/>
      <point x="452" y="0" type="line"/>
      <point x="325" y="0" type="line"/>
      <point x="325" y="97" type="line"/>
      <point x="294" y="40"/>
      <point x="243" y="-10"/>
      <point x="166" y="-10" type="curve" smooth="yes"/>
      <point x="68" y="-10"/>
      <point x="20" y="72"/>
      <point x="20" y="178" type="curve" smooth="yes"/>
      <point x="20" y="301"/>
      <point x="84" y="458"/>
      <point x="232" y="458" type="curve" smooth="yes"/>
      <point x="292" y="458"/>
      <point x="335" y="432"/>
      <point x="356" y="389" type="curve"/>
      <point x="383" y="606" type="line"/>
      <point x="293" y="606" type="line"/>
    </contour>
    <contour>
      <point x="248" y="375" type="curve" smooth="yes"/>
      <point x="166" y="375"/>
      <point x="131" y="282"/>
      <point x="131" y="191" type="curve" smooth="yes"/>
      <point x="131" y="118"/>
      <point x="154" y="72"/>
      <point x="206" y="72" type="curve" smooth="yes"/>
      <point x="269" y="72"/>
      <point x="321" y="142"/>
      <point x="333" y="203" type="curve"/>
      <point x="341" y="268" type="line"/>
      <point x="342" y="334"/>
      <point x="299" y="375"/>
    </contour>
  </outline>
</glyph>
<glyph name="f" format="1">
  <advance width="311"/>
  <unicode hex="0066"/>
  <outline>
    <contour>
      <point x="293" y="698" type="curve" smooth="yes"/>
      <point x="207" y="698"/>
      <point x="128" y="639"/>
      <point x="115" y="532" type="curve" smooth="yes"/>
      <point x="104" y="449" type="line"/>
      <point x="49" y="449" type="line"/>
      <point x="19" y="422" type="line"/>
      <point x="14" y="366" type="line"/>
      <point x="94" y="366" type="line"/>
      <point x="45" y="-35" type="line"/>
      <point x="38" y="-87"/>
      <point x="22" y="-140"/>
      <point x="-23" y="-140" type="curve" smooth="yes"/>
      <point x="-45" y="-140"/>
      <point x="-75" y="-127"/>
      <point x="-74" y="-58" type="curve"/>
      <point x="-155" y="-82" type="line"/>
      <point x="-156" y="-181"/>
      <point x="-98" y="-222"/>
      <point x="-19" y="-222" type="curve" smooth="yes"/>
      <point x="99" y="-222"/>
      <point x="136" y="-132"/>
      <point x="148" y="-37" type="curve" smooth="yes"/>
      <point x="198" y="366" type="line"/>
      <point x="286" y="366" type="line"/>
      <point x="316" y="394" type="line"/>
      <point x="323" y="449" type="line"/>
      <point x="208" y="449" type="line"/>
      <point x="219" y="538" type="line" smooth="yes"/>
      <point x="225" y="590"/>
      <point x="245" y="617"/>
      <point x="285" y="617" type="curve" smooth="yes"/>
      <point x="297" y="617"/>
      <point x="312" y="615"/>
      <point x="328" y="610" type="curve"/>
      <point x="340" y="537" type="line"/>
      <point x="419" y="546" type="line"/>
      <point x="413" y="661" type="line"/>
      <point x="375" y="691"/>
      <point x="324" y="698"/>
    </contour>
  </outline>
</glyph>
<glyph name="i" format="1">
  <advance width="267"/>
  <unicode hex="0069"/>
  <outline>
    <contour>
      <point x="34" y="425" type="line"/>
      <point x="61" y="449" type="line"/>
      <point x="207" y="449" type="line"/>
      <point x="163" y="82" type="line"/>
      <point x="226" y="82" type="line"/>
      <point x="219" y="22" type="line"/>
      <point x="192" y="0" type="line"/>
      <point x="50" y="0" type="line"/>
      <point x="95" y="366" type="line"/>
      <point x="26" y="366" type="line"/>
    </contour>
    <contour>
      <point x="116" y="542" type="line"/>
      <point x="219" y="542" type="line"/>
      <point x="231" y="660" type="line"/>
      <point x="129" y="660" type="line"/>
    </contour>
    <contour>
      <point x="251" y="566" type="move" name="top"/>
    </contour>
  </outline>
</glyph>
<glyph name="j" format="1">
  <advance width="250"/>
  <unicode hex="006A"/>
  <outline>
    <contour>
      <point x="24" y="425" type="line"/>
      <point x="51" y="449" type="line"/>
      <point x="212" y="449" type="line"/>
      <point x="157" y="3" type="line" smooth="yes"/>
      <point x="140" y="-130"/>
      <point x="94" y="-221"/>
      <point x="7" y="-222" type="curve" smooth="yes"/>
      <point x="-29" y="-223"/>
      <point x="-60" y="-212"/>
      <point x="-85" y="-197" type="curve"/>
      <point x="-81" y="-126" type="line"/>
      <point x="-13" y="-153"/>
      <point x="37" y="-141"/>
      <point x="55" y="3" type="curve" smooth="yes"/>
      <point x="100" y="366" type="line"/>
      <point x="16" y="366" type="line"/>
    </contour>
    <contour>
      <point x="117" y="542" type="line"/>
      <point x="220" y="542" type="line"/>
      <point x="232" y="660" type="line"/>
      <point x="129" y="660" type="line"/>
    </contour>
  </outline>
</glyph>
<glyph name="l" format="1">
  <advance width="250"/>
  <unicode hex="006C"/>
  <outline>
    <contour>
      <point x="49" y="664" type="line"/>
      <point x="76" y="688" type="line"/>
      <point x="222" y="688" type="line"/>
      <point x="148" y="82" type="line"/>
      <point x="212" y="82" type="line"/>
      <point x="205" y="22" type="line"/>
      <point x="178" y="0" type="line"/>
      <point x="35" y="0" type="line"/>
      <point x="109" y="606" type="line"/>
      <point x="41" y="606" type="line"/>
    </contour>
    <contour>
      <point x="237" y="566" type="move" name="top"/>
    </contour>
  </outline>
</glyph>
<glyph name="p" format="1">
  <advance width="528"/>
  <unicode hex="0070"/>
  <outline>
    <contour>
      <point x="189" y="449" type="line"/>
      <point x="190" y="355" type="line"/>
      <point x="218" y="410"/>
      <point x="263" y="458"/>
      <point x="337" y="458" type="curve" smooth="yes"/>
      <point x="443" y="458"/>
      <point x="496" y="374"/>
      <point x="496" y="268" type="curve" smooth="yes"/>
      <point x="496" y="143"/>
      <point x="434" y="-10"/>
      <point x="281" y="-10" type="curve" smooth="yes"/>
      <point x="220" y="-10"/>
      <point x="178" y="15"/>
      <point x="157" y="58" type="curve"/>
      <point x="134" y="-131" type="line"/>
      <point x="225" y="-131" type="line"/>
      <point x="218" y="-189" type="line"/>
      <point x="190" y="-213" type="line"/>
      <point x="-39" y="-213" type="line"/>
      <point x="-32" y="-155" type="line"/>
      <point x="-5" y="-131" type="line"/>
      <point x="31" y="-131" type="line"/>
      <point x="92" y="366" type="line"/>
      <point x="24" y="366" type="line"/>
      <point x="32" y="425" type="line"/>
      <point x="59" y="449" type="line"/>
    </contour>
    <contour>
      <point x="269" y="72" type="curve" smooth="yes"/>
      <point x="348" y="72"/>
      <point x="384" y="175"/>
      <point x="384" y="254" type="curve" smooth="yes"/>
      <point x="384" y="325"/>
      <point x="357" y="375"/>
      <point x="301" y="375" type="curve" smooth="yes"/>
      <point x="230" y="375"/>
      <point x="189" y="301"/>
      <point x="179" y="235" type="curve" smooth="yes"/>
      <point x="178" y="229" type="line"/>
      <point x="171" y="176" type="line"/>
      <point x="172" y="114"/>
      <point x="210" y="72"/>
    </contour>
    <contour>
      <point x="278" y="566" type="move" name="top"/>
    </contour>
  </outline>
</glyph>
<glyph name="v" format="1">
  <advance width="477"/>
  <unicode hex="0076"/>
  <outline>
    <contour>
      <point x="238" y="390" type="line"/>
      <point x="210" y="366" type="line"/>
      <point x="169" y="366" type="line"/>
      <point x="245" y="123" type="line"/>
      <point x="251" y="123" type="line"/>
      <point x="322" y="212"/>
      <point x="355" y="278"/>
      <point x="355" y="356" type="curve" smooth="yes"/>
      <point x="355" y="384"/>
      <point x="350" y="416"/>
      <point x="336" y="449" type="curve"/>
      <point x="452" y="449" type="line"/>
      <point x="468" y="370"/>
      <point x="458" y="283"/>
      <point x="390" y="188" type="curve" smooth="yes"/>
      <point x="356" y="139"/>
      <point x="285" y="57"/>
      <point x="226" y="0" type="curve"/>
      <point x="178" y="0" type="line"/>
      <point x="60" y="366" type="line"/>
      <point x="9" y="366" type="line"/>
      <point x="17" y="425" type="line"/>
      <point x="44" y="449" type="line"/>
      <point x="245" y="449" type="line"/>
    </contour>
  </outline>
</glyph>
<glyph name="z" format="1">
  <advance width="449"/>
  <unicode hex="007A"/>
  <outline>
    <contour>
      <point x="382" y="0" type="line"/>
      <point x="424" y="150" type="line"/>
      <point x="342" y="160" type="line"/>
      <point x="312" y="82" type="line"/>
      <point x="139" y="82" type="line"/>
      <point x="426" y="390" type="line"/>
      <point x="412" y="449" type="line"/>
      <point x="64" y="449" type="line"/>
      <point x="34" y="298" type="line"/>
      <point x="111" y="289" type="line"/>
      <point x="136" y="366" type="line"/>
      <point x="291" y="366" type="line"/>
      <point x="1" y="58" type="line"/>
      <point x="10" y="0" type="line"/>
    </contour>
    <contour>
      <point x="147" y="505" type="move" name="top"/>
    </contour>
  </outline>
</glyph>
<glyph name="braceleft" format="1">
  <advance width="288"/>
  <unicode hex="007B"/>
  <outline>
    <contour>
      <point x="113" y="267" type="curve"/>
      <point x="201" y="278"/>
      <point x="233" y="323"/>
      <point x="233" y="364" type="curve" smooth="yes"/>
      <point x="233" y="425"/>
      <point x="176" y="539"/>
      <point x="176" y="621" type="curve" smooth="yes"/>
      <point x="176" y="674"/>
      <point x="200" y="698"/>
      <point x="246" y="698" type="curve" smooth="yes"/>
      <point x="309" y="698" type="line"/>
      <point x="316" y="772" type="line"/>
      <point x="253" y="772" type="line" smooth="yes"/>
      <point x="137" y="772"/>
      <point x="90" y="704"/>
      <point x="90" y="618" type="curve" smooth="yes"/>
      <point x="90" y="523"/>
      <point x="144" y="410"/>
      <point x="144" y="356" type="curve" smooth="yes"/>
      <point x="144" y="301"/>
      <point x="72" y="292"/>
      <point x="41" y="292" type="curve" smooth="yes"/>
      <point x="23" y="292" type="line"/>
      <point x="17" y="242" type="line"/>
      <point x="36" y="242" type="line" smooth="yes"/>
      <point x="65" y="242"/>
      <point x="126" y="234"/>
      <point x="126" y="188" type="curve" smooth="yes"/>
      <point x="126" y="129"/>
      <point x="12" y="-4"/>
      <point x="12" y="-115" type="curve" smooth="yes"/>
      <point x="12" y="-178"/>
      <point x="49" y="-234"/>
      <point x="148" y="-234" type="curve" smooth="yes"/>
      <point x="211" y="-234" type="line"/>
      <point x="219" y="-161" type="line"/>
      <point x="156" y="-161" type="line" smooth="yes"/>
      <point x="119" y="-161"/>
      <point x="100" y="-144"/>
      <point x="100" y="-107" type="curve" smooth="yes"/>
      <point x="100" y="-15"/>
      <point x="214" y="115"/>
      <point x="214" y="183" type="curve" smooth="yes"/>
      <point x="214" y="219"/>
      <point x="187" y="257"/>
    </contour>
  </outline>
</glyph>
<glyph name="bar" format="1">
  <advance width="235"/>
  <unicode hex="007C"/>
  <outline>
    <contour>
      <point x="210" y="730" type="line"/>
      <point x="125" y="-80" type="line"/>
      <point x="35" y="-80" type="line"/>
      <point x="120" y="730" type="line"/>
    </contour>
  </outline>
</glyph>
<glyph name="asciitilde" format="1">
  <advance width="576"/>
  <unicode hex="007E"/>
  <outline>
    <contour>
      <point x="378" y="185" type="curve" smooth="yes"/>
      <point x="448" y="185"/>
      <point x="504" y="234"/>
      <point x="552" y="311" type="curve"/>
      <point x="489" y="355" type="line"/>
      <point x="450" y="297"/>
      <point x="424" y="283"/>
      <point x="386" y="283" type="curve" smooth="yes"/>
      <point x="302" y="283"/>
      <point x="265" y="351"/>
      <point x="189" y="351" type="curve" smooth="yes"/>
      <point x="132" y="351"/>
      <point x="73" y="311"/>
      <point x="26" y="230" type="curve"/>
      <point x="81" y="190" type="line"/>
      <point x="120" y="244"/>
      <point x="149" y="253"/>
      <point x="175" y="253" type="curve" smooth="yes"/>
      <point x="249" y="253"/>
      <point x="293" y="185"/>
    </contour>
  </outline>
</glyph>
<glyph name="cent" format="1">
  <advance width="455"/>
  <unicode hex="00A2"/>
  <outline>
    <contour>
      <point x="169" y="-84" type="line"/>
      <point x="177" y="-8" type="line"/>
      <point x="82" y="4"/>
      <point x="27" y="76"/>
      <point x="27" y="191" type="curve" smooth="yes"/>
      <point x="27" y="308"/>
      <point x="83" y="441"/>
      <point x="225" y="456" type="curve"/>
      <point x="233" y="529" type="line"/>
      <point x="293" y="529" type="line"/>
      <point x="285" y="456" type="line"/>
      <point x="327" y="452"/>
      <point x="370" y="440"/>
      <point x="407" y="417" type="curve"/>
      <point x="412" y="291" type="line"/>
      <point x="326" y="282" type="line"/>
      <point x="319" y="360" type="line"/>
      <point x="304" y="368"/>
      <point x="290" y="372"/>
      <point x="277" y="374" type="curve"/>
      <point x="245" y="74" type="line"/>
      <point x="286" y="83"/>
      <point x="309" y="118"/>
      <point x="326" y="178" type="curve"/>
      <point x="409" y="161" type="line"/>
      <point x="392" y="84"/>
      <point x="341" y="4"/>
      <point x="237" y="-8" type="curve"/>
      <point x="229" y="-84" type="line"/>
    </contour>
    <contour>
      <point x="138" y="196" type="curve" smooth="yes"/>
      <point x="138" y="138"/>
      <point x="151" y="96"/>
      <point x="186" y="79" type="curve"/>
      <point x="216" y="368" type="line"/>
      <point x="165" y="348"/>
      <point x="138" y="281"/>
    </contour>
  </outline>
</glyph>
<glyph name="sterling" format="1">
  <advance width="489"/>
  <unicode hex="00A3"/>
  <outline>
    <contour>
      <point x="39" y="285" type="line"/>
      <point x="99" y="285" type="line"/>
      <point x="104" y="334" type="line" smooth="yes"/>
      <point x="118" y="468"/>
      <point x="205" y="528"/>
      <point x="300" y="528" type="curve" smooth="yes"/>
      <point x="350" y="528"/>
      <point x="406" y="515"/>
      <point x="438" y="482" type="curve"/>
      <point x="440" y="366" type="line"/>
      <point x="357" y="358" type="line"/>
      <point x="350" y="432" type="line"/>
      <point x="332" y="443"/>
      <point x="314" y="445"/>
      <point x="300" y="445" type="curve" smooth="yes"/>
      <point x="248" y="445"/>
      <point x="217" y="416"/>
      <point x="209" y="335" type="curve" smooth="yes"/>
      <point x="204" y="285" type="line"/>
      <point x="356" y="285" type="line"/>
      <point x="349" y="221" type="line"/>
      <point x="197" y="221" type="line"/>
      <point x="197" y="214" type="line"/>
      <point x="192" y="168"/>
      <point x="183" y="116"/>
      <point x="124" y="82" type="curve"/>
      <point x="270" y="82" type="line" smooth="yes"/>
      <point x="329" y="82"/>
      <point x="362" y="102"/>
      <point x="392" y="133" type="curve"/>
      <point x="434" y="83" type="line"/>
      <point x="420" y="55"/>
      <point x="363" y="0"/>
      <point x="283" y="0" type="curve" smooth="yes"/>
      <point x="12" y="0" type="line"/>
      <point x="20" y="80" type="line"/>
      <point x="77" y="109"/>
      <point x="86" y="155"/>
      <point x="92" y="214" type="curve"/>
      <point x="92" y="221" type="line"/>
      <point x="32" y="221" type="line"/>
    </contour>
  </outline>
</glyph>
<glyph name="currency" format="1">
  <advance width="481"/>
  <unicode hex="00A4"/>
  <outline>
    <contour>
      <point x="91" y="252" type="curve" smooth="yes"/>
      <point x="91" y="227"/>
      <point x="97" y="204"/>
      <point x="107" y="184" type="curve"/>
      <point x="12" y="96" type="line"/>
      <point x="48" y="55" type="line"/>
      <point x="143" y="142" type="line"/>
      <point x="165" y="125"/>
      <point x="193" y="115"/>
      <point x="224" y="115" type="curve" smooth="yes"/>
      <point x="255" y="115"/>
      <point x="285" y="125"/>
      <point x="310" y="141" type="curve"/>
      <point x="386" y="55" type="line"/>
      <point x="431" y="96" type="line"/>
      <point x="355" y="183" type="line"/>
      <point x="375" y="210"/>
      <point x="388" y="243"/>
      <point x="388" y="279" type="curve" smooth="yes"/>
      <point x="388" y="302"/>
      <point x="382" y="324"/>
      <point x="373" y="344" type="curve"/>
      <point x="466" y="430" type="line"/>
      <point x="430" y="471" type="line"/>
      <point x="338" y="387" type="line"/>
      <point x="316" y="406"/>
      <point x="286" y="417"/>
      <point x="254" y="417" type="curve" smooth="yes"/>
      <point x="222" y="417"/>
      <point x="191" y="406"/>
      <point x="165" y="388" type="curve"/>
      <point x="92" y="471" type="line"/>
      <point x="47" y="430" type="line"/>
      <point x="121" y="345" type="line"/>
      <point x="102" y="319"/>
      <point x="91" y="286"/>
    </contour>
    <contour>
      <point x="181" y="263" type="curve" smooth="yes"/>
      <point x="183" y="304"/>
      <point x="213" y="333"/>
      <point x="246" y="333" type="curve" smooth="yes"/>
      <point x="277" y="333"/>
      <point x="298" y="308"/>
      <point x="298" y="273" type="curve" smooth="yes"/>
      <point x="298" y="231"/>
      <point x="268" y="199"/>
      <point x="233" y="199" type="curve" smooth="yes"/>
      <point x="202" y="199"/>
      <point x="179" y="226"/>
    </contour>
  </outline>
</glyph>
<glyph name="copyright" format="1">
  <advance width="594"/>
  <unicode hex="00A9"/>
  <outline>
    <contour>
      <point x="589" y="285" type="curve" smooth="yes"/>
      <point x="589" y="421"/>
      <point x="492" y="529"/>
      <point x="352" y="529" type="curve" smooth="yes"/>
      <point x="197" y="529"/>
      <point x="60" y="396"/>
      <point x="60" y="236" type="curve" smooth="yes"/>
      <point x="60" y="99"/>
      <point x="160" y="-7"/>
      <point x="298" y="-7" type="curve" smooth="yes"/>
      <point x="450" y="-7"/>
      <point x="589" y="123"/>
    </contour>
    <contour>
      <point x="530" y="282" type="curve" smooth="yes"/>
      <point x="530" y="155"/>
      <point x="431" y="49"/>
      <point x="302" y="49" type="curve" smooth="yes"/>
      <point x="188" y="49"/>
      <point x="119" y="133"/>
      <point x="119" y="239" type="curve" smooth="yes"/>
      <point x="119" y="364"/>
      <point x="214" y="472"/>
      <point x="347" y="472" type="curve" smooth="yes"/>
      <point x="464" y="472"/>
      <point x="530" y="387"/>
    </contour>
    <contour>
      <point x="424" y="143" type="curve"/>
      <point x="438" y="213" type="line"/>
      <point x="394" y="218" type="line"/>
      <point x="381" y="170" type="line"/>
      <point x="364" y="161"/>
      <point x="342" y="156"/>
      <point x="322" y="156" type="curve" smooth="yes"/>
      <point x="267" y="156"/>
      <point x="237" y="185"/>
      <point x="237" y="249" type="curve" smooth="yes"/>
      <point x="237" y="323"/>
      <point x="276" y="371"/>
      <point x="340" y="371" type="curve" smooth="yes"/>
      <point x="366" y="371"/>
      <point x="386" y="365"/>
      <point x="401" y="353" type="curve"/>
      <point x="404" y="309" type="line"/>
      <point x="450" y="314" type="line"/>
      <point x="449" y="384" type="line"/>
      <point x="428" y="404"/>
      <point x="388" y="419"/>
      <point x="344" y="419" type="curve" smooth="yes"/>
      <point x="242" y="419"/>
      <point x="175" y="341"/>
      <point x="175" y="243" type="curve" smooth="yes"/>
      <point x="175" y="153"/>
      <point x="231" y="108"/>
      <point x="308" y="108" type="curve" smooth="yes"/>
      <point x="350" y="108"/>
      <point x="398" y="121"/>
    </contour>
  </outline>
</glyph>
<glyph name="guillemotleft" format="1">
  <advance width="453"/>
  <unicode hex="00AB"/>
  <outline>
    <contour>
      <point x="227" y="25" type="line"/>
      <point x="133" y="271" type="line"/>
      <point x="278" y="511" type="line"/>
      <point x="190" y="511" type="line"/>
      <point x="30" y="271" type="line"/>
      <point x="139" y="25" type="line"/>
    </contour>
    <contour>
      <point x="391" y="25" type="line"/>
      <point x="298" y="271" type="line"/>
      <point x="442" y="511" type="line"/>
      <point x="355" y="511" type="line"/>
      <point x="195" y="271" type="line"/>
      <point x="304" y="25" type="line"/>
    </contour>
  </outline>
</glyph>
<glyph name="logicalnot" format="1">
  <advance width="569"/>
  <unicode hex="00AC"/>
  <outline>
    <contour>
      <point x="425" y="84" type="line"/>
      <point x="498" y="84" type="line"/>
      <point x="522" y="319" type="line"/>
      <point x="51" y="319" type="line"/>
      <point x="44" y="244" type="line"/>
      <point x="442" y="244" type="line"/>
    </contour>
  </outline>
</glyph>
<glyph name="registered" format="1">
  <advance width="572"/>
  <unicode hex="00AE"/>
  <outline>
    <contour>
      <point x="286" y="159" type="curve" smooth="yes"/>
      <point x="425" y="159"/>
      <point x="537" y="270"/>
      <point x="537" y="409" type="curve" smooth="yes"/>
      <point x="537" y="548"/>
      <point x="427" y="660"/>
      <point x="287" y="660" type="curve" smooth="yes"/>
      <point x="147" y="660"/>
      <point x="36" y="548"/>
      <point x="36" y="409" type="curve" smooth="yes"/>
      <point x="36" y="269"/>
      <point x="148" y="159"/>
    </contour>
    <contour>
      <point x="286" y="215" type="curve" smooth="yes"/>
      <point x="171" y="215"/>
      <point x="96" y="302"/>
      <point x="96" y="409" type="curve" smooth="yes"/>
      <point x="96" y="515"/>
      <point x="170" y="604"/>
      <point x="287" y="604" type="curve" smooth="yes"/>
      <point x="403" y="604"/>
      <point x="477" y="515"/>
      <point x="477" y="409" type="curve" smooth="yes"/>
      <point x="477" y="303"/>
      <point x="401" y="215"/>
    </contour>
    <contour>
      <point x="171" y="324" type="line"/>
      <point x="201" y="324" type="line"/>
      <point x="201" y="507" type="line"/>
      <point x="171" y="507" type="line"/>
      <point x="171" y="549" type="line"/>
      <point x="296" y="549" type="line" smooth="yes"/>
      <point x="363" y="549"/>
      <point x="399" y="520"/>
      <point x="399" y="470" type="curve" smooth="yes"/>
      <point x="399" y="433"/>
      <point x="377" y="409"/>
      <point x="345" y="397" type="curve"/>
      <point x="385" y="324" type="line"/>
      <point x="418" y="324" type="line"/>
      <point x="418" y="282" type="line"/>
      <point x="348" y="282" type="line"/>
      <point x="293" y="386" type="line"/>
      <point x="254" y="386" type="line"/>
      <point x="254" y="324" type="line"/>
      <point x="285" y="324" type="line"/>
      <point x="285" y="282" type="line"/>
      <point x="171" y="282" type="line"/>
    </contour>
    <contour>
      <point x="284" y="426" type="line" smooth="yes"/>
      <point x="328" y="426"/>
      <point x="342" y="440"/>
      <point x="342" y="468" type="curve" smooth="yes"/>
      <point x="342" y="496"/>
      <point x="327" y="507"/>
      <point x="285" y="507" type="curve" smooth="yes"/>
      <point x="254" y="507" type="line"/>
      <point x="254" y="426" type="line"/>
    </contour>
  </outline>
</glyph>
<glyph name="macron" format="1">
  <advance width="328"/>
  <unicode hex="00AF"/>
  <outline>
    <contour>
      <point x="107" y="629" type="line"/>
      <point x="361" y="629" type="line"/>
      <point x="352" y="547" type="line"/>
      <point x="98" y="547" type="line"/>
    </contour>
  </outline>
</glyph>
<glyph name="degree" format="1">
  <advance width="370"/>
  <unicode hex="00B0"/>
  <outline>
    <contour>
      <point x="191" y="342" type="curve" smooth="yes"/>
      <point x="297" y="342"/>
      <point x="365" y="421"/>
      <point x="365" y="519" type="curve" smooth="yes"/>
      <point x="365" y="598"/>
      <point x="319" y="660"/>
      <point x="226" y="660" type="curve" smooth="yes"/>
      <point x="123" y="660"/>
      <point x="50" y="581"/>
      <point x="50" y="483" type="curve" smooth="yes"/>
      <point x="50" y="402"/>
      <point x="100" y="342"/>
    </contour>
    <contour>
      <point x="199" y="418" type="curve"/>
      <point x="163" y="418"/>
      <point x="136" y="440"/>
      <point x="136" y="488" type="curve" smooth="yes"/>
      <point x="136" y="555"/>
      <point x="174" y="584"/>
      <point x="218" y="584" type="curve" smooth="yes"/>
      <point x="253" y="584"/>
      <point x="279" y="562"/>
      <point x="279" y="513" type="curve" smooth="yes"/>
      <point x="279" y="447"/>
      <point x="243" y="418"/>
    </contour>
  </outline>
</glyph>
<glyph name="acute" format="1">
  <advance width="431"/>
  <unicode hex="00B4"/>
  <outline>
    <contour>
      <point x="448" y="609" type="line"/>
      <point x="398" y="693" type="line"/>
      <point x="228" y="555" type="line"/>
      <point x="253" y="512" type="line"/>
    </contour>
  </outline>
</glyph>
<glyph name="mu" format="1">
  <advance width="570"/>
  <unicode hex="00B5"/>
  <outline>
    <contour>
      <point x="526" y="0" type="line"/>
      <point x="352" y="0" type="line"/>
      <point x="359" y="73" type="line"/>
      <point x="326" y="22"/>
      <point x="271" y="-9"/>
      <point x="205" y="-9" type="curve" smooth="yes"/>
      <point x="187" y="-9"/>
      <point x="171" y="-6"/>
      <point x="158" y="1" type="curve"/>
      <point x="136" y="-213" type="line"/>
      <point x="31" y="-213" type="line"/>
      <point x="91" y="366" type="line"/>
      <point x="26" y="366" type="line"/>
      <point x="36" y="449" type="line"/>
      <point x="206" y="449" type="line"/>
      <point x="178" y="190" type="line"/>
      <point x="170" y="105"/>
      <point x="198" y="73"/>
      <point x="252" y="73" type="curve" smooth="yes"/>
      <point x="316" y="73"/>
      <point x="361" y="123"/>
      <point x="371" y="183" type="curve"/>
      <point x="390" y="366" type="line"/>
      <point x="312" y="366" type="line"/>
      <point x="321" y="449" type="line"/>
      <point x="504" y="449" type="line"/>
      <point x="465" y="82" type="line"/>
      <point x="536" y="82" type="line"/>
    </contour>
  </outline>
</glyph>
<glyph name="periodcentered" format="1">
  <advance width="223"/>
  <unicode hex="00B7"/>
  <outline>
    <contour>
      <point x="46" y="253" type="line"/>
      <point x="174" y="253" type="line"/>
      <point x="188" y="392" type="line"/>
      <point x="60" y="392" type="line"/>
    </contour>
  </outline>
</glyph>
<glyph name="cedilla" format="1">
  <advance width="251"/>
  <unicode hex="00B8"/>
  <outline>
    <contour>
      <point x="187" y="6" type="line"/>
      <point x="180" y="-43" type="line"/>
      <point x="188" y="-43" type="line" smooth="yes"/>
      <point x="246" y="-43"/>
      <point x="267" y="-76"/>
      <point x="267" y="-116" type="curve" smooth="yes"/>
      <point x="267" y="-184"/>
      <point x="201" y="-209"/>
      <point x="138" y="-209" type="curve" smooth="yes"/>
      <point x="95" y="-209"/>
      <point x="55" y="-198"/>
      <point x="35" y="-179" type="curve"/>
      <point x="61" y="-120" type="line"/>
      <point x="75" y="-131"/>
      <point x="101" y="-143"/>
      <point x="134" y="-143" type="curve" smooth="yes"/>
      <point x="164" y="-143"/>
      <point x="178" y="-133"/>
      <point x="178" y="-112" type="curve" smooth="yes"/>
      <point x="178" y="-92"/>
      <point x="166" y="-84"/>
      <point x="136" y="-84" type="curve" smooth="yes"/>
      <point x="103" y="-84" type="line"/>
      <point x="115" y="6" type="line"/>
    </contour>
  </outline>
</glyph>
<glyph name="onesuperior" format="1">
  <advance width="266"/>
  <unicode hex="00B9"/>
  <outline>
    <contour>
      <point x="52" y="479" type="line"/>
      <point x="123" y="479" type="line"/>
      <point x="148" y="715" type="line"/>
      <point x="76" y="715" type="line"/>
      <point x="83" y="779" type="line"/>
      <point x="238" y="779" type="line"/>
      <point x="206" y="479" type="line"/>
      <point x="273" y="479" type="line"/>
      <point x="266" y="415" type="line"/>
      <point x="45" y="415" type="line"/>
    </contour>
  </outline>
</glyph>
<glyph name="threequarters" format="1">
  <advance width="744"/>
  <unicode hex="00BE"/>
  <outline>
    <contour>
      <point x="549" y="0" type="line"/>
      <point x="631" y="0" type="line"/>
      <point x="640" y="92" type="line"/>
      <point x="693" y="92" type="line"/>
      <point x="706" y="150" type="line"/>
      <point x="646" y="150" type="line"/>
      <point x="669" y="364" type="line"/>
      <point x="524" y="364" type="line"/>
      <point x="389" y="153" type="line"/>
      <point x="391" y="92" type="line"/>
      <point x="558" y="92" type="line"/>
    </contour>
    <contour>
      <point x="134" y="540" type="line"/>
      <point x="148" y="584" type="line"/>
      <point x="165" y="593"/>
      <point x="180" y="596"/>
      <point x="195" y="596" type="curve" smooth="yes"/>
      <point x="227" y="596"/>
      <point x="241" y="584"/>
      <point x="241" y="559" type="curve" smooth="yes"/>
      <point x="241" y="520"/>
      <point x="209" y="507"/>
      <point x="161" y="504" type="curve"/>
      <point x="156" y="456" type="line"/>
      <point x="209" y="453"/>
      <point x="238" y="442"/>
      <point x="238" y="405" type="curve" smooth="yes"/>
      <point x="238" y="372"/>
      <point x="216" y="348"/>
      <point x="174" y="348" type="curve" smooth="yes"/>
      <point x="132" y="348"/>
      <point x="114" y="372"/>
      <point x="108" y="402" type="curve"/>
      <point x="45" y="382" type="line"/>
      <point x="50" y="314"/>
      <point x="106" y="284"/>
      <point x="177" y="284" type="curve" smooth="yes"/>
      <point x="265" y="284"/>
      <point x="327" y="329"/>
      <point x="327" y="400" type="curve" smooth="yes"/>
      <point x="327" y="440"/>
      <point x="308" y="473"/>
      <point x="258" y="484" type="curve"/>
      <point x="258" y="486" type="line"/>
      <point x="309" y="505"/>
      <point x="332" y="538"/>
      <point x="332" y="575" type="curve" smooth="yes"/>
      <point x="332" y="625"/>
      <point x="289" y="660"/>
      <point x="216" y="660" type="curve" smooth="yes"/>
      <point x="177" y="660"/>
      <point x="126" y="650"/>
      <point x="91" y="631" type="curve"/>
      <point x="71" y="545" type="line"/>
    </contour>
    <contour>
      <point x="636" y="650" type="line"/>
      <point x="416" y="325" type="line"/>
      <point x="203" y="0" type="line"/>
      <point x="130" y="0" type="line"/>
      <point x="359" y="337" type="line"/>
      <point x="563" y="650" type="line"/>
    </contour>
    <contour>
      <point x="554" y="300" type="line"/>
      <point x="580" y="300" type="line"/>
      <point x="564" y="150" type="line"/>
      <point x="459" y="150" type="line"/>
    </contour>
  </outline>
</glyph>
<glyph name="questiondown" format="1">
  <advance width="451"/>
  <unicode hex="00BF"/>
  <outline>
    <contour>
      <point x="306" y="-6" type="line"/>
      <point x="283" y="-86" type="line"/>
      <point x="257" y="-102"/>
      <point x="221" y="-110"/>
      <point x="190" y="-110" type="curve" smooth="yes"/>
      <point x="140" y="-110"/>
      <point x="108" y="-90"/>
      <point x="108" y="-52" type="curve" smooth="yes"/>
      <point x="108" y="49"/>
      <point x="319" y="42"/>
      <point x="319" y="174" type="curve" smooth="yes"/>
      <point x="319" y="235"/>
      <point x="275" y="267"/>
      <point x="170" y="256" type="curve"/>
      <point x="163" y="188" type="line"/>
      <point x="191" y="188"/>
      <point x="204" y="177"/>
      <point x="204" y="159" type="curve" smooth="yes"/>
      <point x="204" y="84"/>
      <point x="-13" y="69"/>
      <point x="-13" y="-75" type="curve" smooth="yes"/>
      <point x="-13" y="-160"/>
      <point x="64" y="-207"/>
      <point x="169" y="-207" type="curve" smooth="yes"/>
      <point x="223" y="-207"/>
      <point x="294" y="-190"/>
      <point x="358" y="-155" type="curve"/>
      <point x="389" y="-14" type="line"/>
    </contour>
    <contour>
      <point x="320" y="452" type="line"/>
      <point x="195" y="452" type="line"/>
      <point x="182" y="325" type="line"/>
      <point x="307" y="325" type="line"/>
    </contour>
  </outline>
</glyph>
<glyph name="Acircumflex" format="1">
  <advance width="650"/>
  <unicode hex="00C2"/>
  <outline>
    <contour>
      <point x="-10" y="95" type="line"/>
      <point x="48" y="95" type="line"/>
      <point x="286" y="555" type="line"/>
      <point x="194" y="555" type="line"/>
      <point x="204" y="650" type="line"/>
      <point x="404" y="650" type="line"/>
      <point x="573" y="95" type="line"/>
      <point x="633" y="95" type="line"/>
      <point x="623" y="0" type="line"/>
      <point x="384" y="0" type="line"/>
      <point x="394" y="95" type="line"/>
      <point x="457" y="95" type="line"/>
      <point x="435" y="184" type="line"/>
      <point x="200" y="184" type="line"/>
      <point x="157" y="95" type="line"/>
      <point x="228" y="95" type="line"/>
      <point x="218" y="0" type="line"/>
      <point x="-19" y="0" type="line"/>
    </contour>
    <contour>
      <point x="399" y="837" type="line"/>
      <point x="363" y="837" type="line"/>
      <point x="222" y="736" type="line"/>
      <point x="244" y="691" type="line"/>
      <point x="369" y="752" type="line"/>
      <point x="489" y="691" type="line"/>
      <point x="517" y="737" type="line"/>
    </contour>
    <contour>
      <point x="350" y="491" type="line"/>
      <point x="240" y="265" type="line"/>
      <point x="414" y="265" type="line"/>
      <point x="356" y="491" type="line"/>
    </contour>
  </outline>
</glyph>
<glyph name="Adieresis" format="1">
  <advance width="650"/>
  <unicode hex="00C4"/>
  <outline>
    <contour>
      <point x="-10" y="95" type="line"/>
      <point x="48" y="95" type="line"/>
      <point x="286" y="555" type="line"/>
      <point x="194" y="555" type="line"/>
      <point x="204" y="650" type="line"/>
      <point x="404" y="650" type="line"/>
      <point x="573" y="95" type="line"/>
      <point x="633" y="95" type="line"/>
      <point x="623" y="0" type="line"/>
      <point x="384" y="0" type="line"/>
      <point x="394" y="95" type="line"/>
      <point x="457" y="95" type="line"/>
      <point x="435" y="184" type="line"/>
      <point x="200" y="184" type="line"/>
      <point x="157" y="95" type="line"/>
      <point x="228" y="95" type="line"/>
      <point x="218" y="0" type="line"/>
      <point x="-19" y="0" type="line"/>
    </contour>
    <contour>
      <point x="350" y="491" type="line"/>
      <point x="240" y="265" type="line"/>
      <point x="414" y="265" type="line"/>
      <point x="356" y="491" type="line"/>
    </contour>
    <contour>
      <point x="404" y="710" type="line"/>
      <point x="513" y="710" type="line"/>
      <point x="525" y="825" type="line"/>
      <point x="416" y="825" type="line"/>
    </contour>
    <contour>
      <point x="228" y="710" type="line"/>
      <point x="337" y="710" type="line"/>
      <point x="348" y="825" type="line"/>
      <point x="240" y="825" type="line"/>
    </contour>
  </outline>
</glyph>
<glyph name="Edieresis" format="1">
  <advance width="570"/>
  <unicode hex="00CB"/>
  <outline>
    <contour>
      <point x="219" y="710" type="line"/>
      <point x="328" y="710" type="line"/>
      <point x="339" y="825" type="line"/>
      <point x="231" y="825" type="line"/>
    </contour>
    <contour>
      <point x="395" y="710" type="line"/>
      <point x="504" y="710" type="line"/>
      <point x="516" y="825" type="line"/>
      <point x="407" y="825" type="line"/>
    </contour>
    <contour>
      <point x="491" y="0" type="line"/>
      <point x="10" y="0" type="line"/>
      <point x="19" y="95" type="line"/>
      <point x="93" y="95" type="line"/>
      <point x="141" y="555" type="line"/>
      <point x="68" y="555" type="line"/>
      <point x="78" y="650" type="line"/>
      <point x="554" y="650" type="line"/>
      <point x="554" y="462" type="line"/>
      <point x="462" y="454" type="line"/>
      <point x="453" y="555" type="line"/>
      <point x="247" y="555" type="line"/>
      <point x="228" y="375" type="line"/>
      <point x="511" y="375" type="line"/>
      <point x="501" y="280" type="line"/>
      <point x="218" y="280" type="line"/>
      <point x="199" y="95" type="line"/>
      <point x="410" y="95" type="line"/>
      <point x="440" y="196" type="line"/>
      <point x="530" y="188" type="line"/>
    </contour>
  </outline>
</glyph>
<glyph name="Ntilde" format="1">
  <advance width="725"/>
  <unicode hex="00D1"/>
  <outline>
    <contour>
      <point x="24" y="95" type="line"/>
      <point x="94" y="95" type="line"/>
      <point x="142" y="555" type="line"/>
      <point x="62" y="555" type="line"/>
      <point x="72" y="650" type="line"/>
      <point x="228" y="650" type="line"/>
      <point x="516" y="220" type="line"/>
      <point x="519" y="220" type="line"/>
      <point x="554" y="555" type="line"/>
      <point x="462" y="555" type="line"/>
      <point x="472" y="650" type="line"/>
      <point x="736" y="650" type="line"/>
      <point x="726" y="555" type="line"/>
      <point x="654" y="555" type="line"/>
      <point x="596" y="0" type="line"/>
      <point x="534" y="-1" type="line"/>
      <point x="234" y="450" type="line"/>
      <point x="231" y="450" type="line"/>
      <point x="194" y="95" type="line"/>
      <point x="286" y="95" type="line"/>
      <point x="276" y="0" type="line"/>
      <point x="14" y="0" type="line"/>
    </contour>
    <contour>
      <point x="290" y="701" type="line"/>
      <point x="302" y="729"/>
      <point x="318" y="736"/>
      <point x="338" y="736" type="curve" smooth="yes"/>
      <point x="381" y="736"/>
      <point x="410" y="704"/>
      <point x="458" y="704" type="curve" smooth="yes"/>
      <point x="517" y="704"/>
      <point x="540" y="755"/>
      <point x="549" y="812" type="curve"/>
      <point x="504" y="822" type="line"/>
      <point x="491" y="790"/>
      <point x="472" y="782"/>
      <point x="453" y="782" type="curve" smooth="yes"/>
      <point x="415" y="782"/>
      <point x="386" y="815"/>
      <point x="342" y="815" type="curve" smooth="yes"/>
      <point x="283" y="815"/>
      <point x="253" y="751"/>
      <point x="249" y="716" type="curve"/>
    </contour>
  </outline>
</glyph>
<glyph name="Otilde" format="1">
  <advance width="695"/>
  <unicode hex="00D5"/>
  <outline>
    <contour>
      <point x="298" y="701" type="line"/>
      <point x="310" y="729"/>
      <point x="326" y="736"/>
      <point x="346" y="736" type="curve" smooth="yes"/>
      <point x="389" y="736"/>
      <point x="418" y="704"/>
      <point x="466" y="704" type="curve" smooth="yes"/>
      <point x="525" y="704"/>
      <point x="548" y="755"/>
      <point x="557" y="812" type="curve"/>
      <point x="512" y="822" type="line"/>
      <point x="499" y="790"/>
      <point x="480" y="782"/>
      <point x="461" y="782" type="curve" smooth="yes"/>
      <point x="423" y="782"/>
      <point x="394" y="815"/>
      <point x="350" y="815" type="curve" smooth="yes"/>
      <point x="291" y="815"/>
      <point x="261" y="751"/>
      <point x="257" y="716" type="curve"/>
    </contour>
    <contour>
      <point x="387" y="660" type="curve" smooth="yes"/>
      <point x="186" y="660"/>
      <point x="33" y="495"/>
      <point x="33" y="290" type="curve" smooth="yes"/>
      <point x="33" y="126"/>
      <point x="134" y="-10"/>
      <point x="317" y="-10" type="curve" smooth="yes"/>
      <point x="524" y="-10"/>
      <point x="674" y="160"/>
      <point x="674" y="360" type="curve" smooth="yes"/>
      <point x="674" y="526"/>
      <point x="566" y="660"/>
    </contour>
    <contour>
      <point x="333" y="88" type="curve" smooth="yes"/>
      <point x="202" y="88"/>
      <point x="149" y="190"/>
      <point x="149" y="300" type="curve" smooth="yes"/>
      <point x="149" y="443"/>
      <point x="237" y="562"/>
      <point x="375" y="562" type="curve" smooth="yes"/>
      <point x="489" y="562"/>
      <point x="558" y="481"/>
      <point x="558" y="352" type="curve" smooth="yes"/>
      <point x="558" y="215"/>
      <point x="479" y="88"/>
    </contour>
  </outline>
</glyph>
<glyph name="multiply" format="1">
  <advance width="371"/>
  <unicode hex="00D7"/>
  <outline>
    <contour>
      <point x="74" y="124" type="line"/>
      <point x="180" y="223" type="line"/>
      <point x="265" y="126" type="line"/>
      <point x="322" y="180" type="line"/>
      <point x="238" y="276" type="line"/>
      <point x="340" y="370" type="line"/>
      <point x="295" y="423" type="line"/>
      <point x="192" y="328" type="line"/>
      <point x="108" y="425" type="line"/>
      <point x="51" y="372" type="line"/>
      <point x="135" y="275" type="line"/>
      <point x="28" y="177" type="line"/>
    </contour>
  </outline>
</glyph>
<glyph name="Uacute" format="1">
  <advance width="692"/>
  <unicode hex="00DA"/>
  <outline>
    <contour>
      <point x="464" y="650" type="line"/>
      <point x="702" y="650" type="line"/>
      <point x="692" y="555" type="line"/>
      <point x="633" y="555" type="line"/>
      <point x="603" y="268" type="line" smooth="yes"/>
      <point x="588" y="130"/>
      <point x="520" y="-10"/>
      <point x="322" y="-10" type="curve" smooth="yes"/>
      <point x="132" y="-10"/>
      <point x="72" y="117"/>
      <point x="87" y="257" type="curve" smooth="yes"/>
      <point x="118" y="555" type="line"/>
      <point x="59" y="555" type="line"/>
      <point x="69" y="650" type="line"/>
      <point x="313" y="650" type="line"/>
      <point x="303" y="555" type="line"/>
      <point x="225" y="555" type="line"/>
      <point x="194" y="260" type="line" smooth="yes"/>
      <point x="183" y="157"/>
      <point x="221" y="88"/>
      <point x="330" y="88" type="curve" smooth="yes"/>
      <point x="436" y="88"/>
      <point x="492" y="155"/>
      <point x="504" y="268" type="curve" smooth="yes"/>
      <point x="534" y="555" type="line"/>
      <point x="455" y="555" type="line"/>
    </contour>
    <contour>
      <point x="560" y="727" type="line"/>
      <point x="537" y="826" type="line"/>
      <point x="333" y="743" type="line"/>
      <point x="345" y="694" type="line"/>
    </contour>
  </outline>
</glyph>
<glyph name="atilde" format="1">
  <advance width="515"/>
  <unicode hex="00E3"/>
  <outline>
    <contour>
      <point x="477" y="449" type="line"/>
      <point x="462" y="398"/>
      <point x="449" y="348"/>
      <point x="443" y="297" type="curve" smooth="yes"/>
      <point x="416" y="82" type="line"/>
      <point x="477" y="82" type="line"/>
      <point x="470" y="22" type="line"/>
      <point x="444" y="0" type="line"/>
      <point x="320" y="0" type="line"/>
      <point x="318" y="91" type="line"/>
      <point x="290" y="36"/>
      <point x="243" y="-10"/>
      <point x="169" y="-10" type="curve" smooth="yes"/>
      <point x="71" y="-10"/>
      <point x="20" y="70"/>
      <point x="20" y="181" type="curve" smooth="yes"/>
      <point x="20" y="300"/>
      <point x="79" y="458"/>
      <point x="228" y="458" type="curve" smooth="yes"/>
      <point x="294" y="458"/>
      <point x="339" y="426"/>
      <point x="357" y="374" type="curve"/>
      <point x="363" y="399"/>
      <point x="369" y="424"/>
      <point x="378" y="449" type="curve"/>
    </contour>
    <contour>
      <point x="243" y="375" type="curve" smooth="yes"/>
      <point x="161" y="375"/>
      <point x="131" y="280"/>
      <point x="131" y="194" type="curve" smooth="yes"/>
      <point x="131" y="116"/>
      <point x="157" y="72"/>
      <point x="208" y="72" type="curve" smooth="yes"/>
      <point x="269" y="72"/>
      <point x="315" y="140"/>
      <point x="328" y="200" type="curve"/>
      <point x="336" y="261" type="line"/>
      <point x="339" y="331"/>
      <point x="296" y="375"/>
    </contour>
    <contour>
      <point x="196" y="528" type="line"/>
      <point x="208" y="558"/>
      <point x="226" y="571"/>
      <point x="247" y="571" type="curve" smooth="yes"/>
      <point x="284" y="571"/>
      <point x="314" y="531"/>
      <point x="364" y="531" type="curve" smooth="yes"/>
      <point x="422" y="531"/>
      <point x="446" y="590"/>
      <point x="455" y="647" type="curve"/>
      <point x="410" y="657" type="line"/>
      <point x="397" y="625"/>
      <point x="378" y="615"/>
      <point x="360" y="615" type="curve" smooth="yes"/>
      <point x="321" y="615"/>
      <point x="292" y="653"/>
      <point x="249" y="653" type="curve" smooth="yes"/>
      <point x="190" y="653"/>
      <point x="158" y="579"/>
      <point x="154" y="542" type="curve"/>
    </contour>
  </outline>
</glyph>
<glyph name="ccedilla" format="1">
  <advance width="439"/>
  <unicode hex="00E7"/>
  <outline>
    <contour>
      <point x="246" y="375" type="curve" smooth="yes"/>
      <point x="172" y="375"/>
      <point x="132" y="300"/>
      <point x="132" y="196" type="curve" smooth="yes"/>
      <point x="132" y="121"/>
      <point x="154" y="72"/>
      <point x="218" y="72" type="curve" smooth="yes"/>
      <point x="273" y="72"/>
      <point x="300" y="109"/>
      <point x="320" y="178" type="curve"/>
      <point x="403" y="161" type="line"/>
      <point x="386" y="83"/>
      <point x="333" y="1"/>
      <point x="225" y="-9" type="curve"/>
      <point x="220" y="-43" type="line"/>
      <point x="228" y="-43" type="line" smooth="yes"/>
      <point x="286" y="-43"/>
      <point x="307" y="-76"/>
      <point x="307" y="-116" type="curve" smooth="yes"/>
      <point x="307" y="-184"/>
      <point x="241" y="-209"/>
      <point x="178" y="-209" type="curve" smooth="yes"/>
      <point x="135" y="-209"/>
      <point x="95" y="-198"/>
      <point x="75" y="-179" type="curve"/>
      <point x="101" y="-120" type="line"/>
      <point x="115" y="-131"/>
      <point x="141" y="-143"/>
      <point x="174" y="-143" type="curve" smooth="yes"/>
      <point x="204" y="-143"/>
      <point x="218" y="-133"/>
      <point x="218" y="-112" type="curve" smooth="yes"/>
      <point x="218" y="-92"/>
      <point x="206" y="-84"/>
      <point x="176" y="-84" type="curve" smooth="yes"/>
      <point x="143" y="-84" type="line"/>
      <point x="153" y="-5" type="line"/>
      <point x="69" y="13"/>
      <point x="21" y="83"/>
      <point x="21" y="191" type="curve" smooth="yes"/>
      <point x="21" y="316"/>
      <point x="85" y="458"/>
      <point x="248" y="458" type="curve" smooth="yes"/>
      <point x="298" y="458"/>
      <point x="355" y="446"/>
      <point x="401" y="417" type="curve"/>
      <point x="406" y="291" type="line"/>
      <point x="320" y="282" type="line"/>
      <point x="313" y="360" type="line"/>
      <point x="289" y="373"/>
      <point x="269" y="375"/>
    </contour>
  </outline>
</glyph>
<glyph name="igrave" format="1">
  <advance width="267"/>
  <unicode hex="00EC"/>
  <outline>
    <contour>
      <point x="34" y="425" type="line"/>
      <point x="61" y="449" type="line"/>
      <point x="207" y="449" type="line"/>
      <point x="163" y="82" type="line"/>
      <point x="226" y="82" type="line"/>
      <point x="219" y="22" type="line"/>
      <point x="192" y="0" type="line"/>
      <point x="50" y="0" type="line"/>
      <point x="95" y="366" type="line"/>
      <point x="26" y="366" type="line"/>
    </contour>
    <contour>
      <point x="208" y="512" type="line"/>
      <point x="233" y="555" type="line"/>
      <point x="62" y="693" type="line"/>
      <point x="12" y="609" type="line"/>
    </contour>
  </outline>
</glyph>
<glyph name="eth" format="1">
  <advance width="491"/>
  <unicode hex="00F0"/>
  <outline>
    <contour>
      <point x="128" y="516" type="line"/>
      <point x="183" y="584" type="line"/>
      <point x="164" y="596"/>
      <point x="144" y="608"/>
      <point x="122" y="620" type="curve"/>
      <point x="175" y="698" type="line"/>
      <point x="198" y="685"/>
      <point x="222" y="672"/>
      <point x="244" y="658" type="curve"/>
      <point x="288" y="712" type="line"/>
      <point x="342" y="676" type="line"/>
      <point x="296" y="620" type="line"/>
      <point x="389" y="544"/>
      <point x="456" y="440"/>
      <point x="456" y="295" type="curve" smooth="yes"/>
      <point x="456" y="145"/>
      <point x="387" y="-10"/>
      <point x="212" y="-10" type="curve" smooth="yes"/>
      <point x="90" y="-10"/>
      <point x="21" y="67"/>
      <point x="21" y="196" type="curve" smooth="yes"/>
      <point x="21" y="346"/>
      <point x="114" y="458"/>
      <point x="242" y="458" type="curve" smooth="yes"/>
      <point x="275" y="458"/>
      <point x="301" y="450"/>
      <point x="322" y="435" type="curve"/>
      <point x="304" y="479"/>
      <point x="275" y="514"/>
      <point x="235" y="546" type="curve"/>
      <point x="180" y="479" type="line"/>
    </contour>
    <contour>
      <point x="246" y="375" type="curve" smooth="yes"/>
      <point x="166" y="375"/>
      <point x="135" y="303"/>
      <point x="135" y="202" type="curve" smooth="yes"/>
      <point x="135" y="131"/>
      <point x="151" y="72"/>
      <point x="221" y="72" type="curve" smooth="yes"/>
      <point x="311" y="72"/>
      <point x="334" y="169"/>
      <point x="340" y="241" type="curve" smooth="yes"/>
      <point x="343" y="278" type="line"/>
      <point x="339" y="328"/>
      <point x="310" y="375"/>
    </contour>
  </outline>
</glyph>
<glyph name="odieresis" format="1">
  <advance width="483"/>
  <unicode hex="00F6"/>
  <outline>
    <contour>
      <point x="134" y="540" type="line"/>
      <point x="242" y="540" type="line"/>
      <point x="254" y="655" type="line"/>
      <point x="146" y="655" type="line"/>
    </contour>
    <contour>
      <point x="310" y="540" type="line"/>
      <point x="419" y="540" type="line"/>
      <point x="431" y="655" type="line"/>
      <point x="321" y="655" type="line"/>
    </contour>
    <contour>
      <point x="22" y="192" type="curve" smooth="yes"/>
      <point x="22" y="330"/>
      <point x="99" y="458"/>
      <point x="260" y="458" type="curve" smooth="yes"/>
      <point x="395" y="458"/>
      <point x="451" y="369"/>
      <point x="451" y="251" type="curve" smooth="yes"/>
      <point x="451" y="99"/>
      <point x="357" y="-10"/>
      <point x="210" y="-10" type="curve" smooth="yes"/>
      <point x="88" y="-10"/>
      <point x="22" y="66"/>
    </contour>
    <contour>
      <point x="133" y="200" type="curve" smooth="yes"/>
      <point x="133" y="123"/>
      <point x="152" y="72"/>
      <point x="220" y="72" type="curve" smooth="yes"/>
      <point x="307" y="72"/>
      <point x="341" y="153"/>
      <point x="341" y="248" type="curve" smooth="yes"/>
      <point x="341" y="332"/>
      <point x="315" y="375"/>
      <point x="249" y="375" type="curve" smooth="yes"/>
      <point x="171" y="375"/>
      <point x="133" y="312"/>
    </contour>
  </outline>
</glyph>
<glyph name="divide" format="1">
  <advance width="412"/>
  <unicode hex="00F7"/>
  <outline>
    <contour>
      <point x="33" y="244" type="line"/>
      <point x="373" y="244" type="line"/>
      <point x="381" y="318" type="line"/>
      <point x="41" y="318" type="line"/>
    </contour>
    <contour>
      <point x="120" y="59" type="line"/>
      <point x="248" y="59" type="line"/>
      <point x="262" y="198" type="line"/>
      <point x="134" y="198" type="line"/>
    </contour>
    <contour>
      <point x="153" y="366" type="line"/>
      <point x="281" y="366" type="line"/>
      <point x="295" y="505" type="line"/>
      <point x="167" y="505" type="line"/>
    </contour>
  </outline>
</glyph>
<glyph name="Amacron" format="1">
  <advance width="650"/>
  <unicode hex="0100"/>
  <outline>
    <contour>
      <point x="-10" y="95" type="line"/>
      <point x="48" y="95" type="line"/>
      <point x="286" y="555" type="line"/>
      <point x="194" y="555" type="line"/>
      <point x="204" y="650" type="line"/>
      <point x="404" y="650" type="line"/>
      <point x="573" y="95" type="line"/>
      <point x="633" y="95" type="line"/>
      <point x="623" y="0" type="line"/>
      <point x="384" y="0" type="line"/>
      <point x="394" y="95" type="line"/>
      <point x="457" y="95" type="line"/>
      <point x="435" y="184" type="line"/>
      <point x="200" y="184" type="line"/>
      <point x="157" y="95" type="line"/>
      <point x="228" y="95" type="line"/>
      <point x="218" y="0" type="line"/>
      <point x="-19" y="0" type="line"/>
    </contour>
    <contour>
      <point x="233" y="808" type="line"/>
      <point x="524" y="808" type="line"/>
      <point x="515" y="726" type="line"/>
      <point x="225" y="726" type="line"/>
    </contour>
    <contour>
      <point x="350" y="491" type="line"/>
      <point x="240" y="265" type="line"/>
      <point x="414" y="265" type="line"/>
      <point x="356" y="491" type="line"/>
    </contour>
  </outline>
</glyph>
<glyph name="Abreve" format="1">
  <advance width="650"/>
  <unicode hex="0102"/>
  <outline>
    <contour>
      <point x="-10" y="95" type="line"/>
      <point x="48" y="95" type="line"/>
      <point x="286" y="555" type="line"/>
      <point x="194" y="555" type="line"/>
      <point x="204" y="650" type="line"/>
      <point x="404" y="650" type="line"/>
      <point x="573" y="95" type="line"/>
      <point x="633" y="95" type="line"/>
      <point x="623" y="0" type="line"/>
      <point x="384" y="0" type="line"/>
      <point x="394" y="95" type="line"/>
      <point x="457" y="95" type="line"/>
      <point x="435" y="184" type="line"/>
      <point x="200" y="184" type="line"/>
      <point x="157" y="95" type="line"/>
      <point x="228" y="95" type="line"/>
      <point x="218" y="0" type="line"/>
      <point x="-19" y="0" type="line"/>
    </contour>
    <contour>
      <point x="437" y="827" type="curve"/>
      <point x="521" y="827" type="line"/>
      <point x="511" y="736"/>
      <point x="456" y="696"/>
      <point x="376" y="696" type="curve" smooth="yes"/>
      <point x="293" y="696"/>
      <point x="250" y="739"/>
      <point x="260" y="827" type="curve"/>
      <point x="344" y="827" type="line"/>
      <point x="339" y="784"/>
      <point x="352" y="762"/>
      <point x="383" y="762" type="curve" smooth="yes"/>
      <point x="416" y="762"/>
      <point x="432" y="788"/>
    </contour>
    <contour>
      <point x="350" y="491" type="line"/>
      <point x="240" y="265" type="line"/>
      <point x="414" y="265" type="line"/>
      <point x="356" y="491" type="line"/>
    </contour>
  </outline>
</glyph>
<glyph name="Aogonek" format="1">
  <advance width="650"/>
  <unicode hex="0104"/>
  <outline>
    <contour>
      <point x="-10" y="95" type="line"/>
      <point x="48" y="95" type="line"/>
      <point x="286" y="555" type="line"/>
      <point x="194" y="555" type="line"/>
      <point x="204" y="650" type="line"/>
      <point x="404" y="650" type="line"/>
      <point x="573" y="95" type="line"/>
      <point x="633" y="95" type="line"/>
      <point x="623" y="0" type="line"/>
      <point x="574" y="0" type="line"/>
      <point x="524" y="-31"/>
      <point x="515" y="-66"/>
      <point x="515" y="-88" type="curve" smooth="yes"/>
      <point x="515" y="-123"/>
      <point x="532" y="-132"/>
      <point x="558" y="-132" type="curve" smooth="yes"/>
      <point x="574" y="-132"/>
      <point x="592" y="-128"/>
      <point x="608" y="-119" type="curve"/>
      <point x="609" y="-188" type="line"/>
      <point x="586" y="-200"/>
      <point x="557" y="-208"/>
      <point x="523" y="-208" type="curve" smooth="yes"/>
      <point x="464" y="-208"/>
      <point x="421" y="-182"/>
      <point x="421" y="-125" type="curve" smooth="yes"/>
      <point x="421" y="-72"/>
      <point x="459" y="-27"/>
      <point x="505" y="0" type="curve"/>
      <point x="384" y="0" type="line"/>
      <point x="394" y="95" type="line"/>
      <point x="457" y="95" type="line"/>
      <point x="435" y="184" type="line"/>
      <point x="200" y="184" type="line"/>
      <point x="157" y="95" type="line"/>
      <point x="228" y="95" type="line"/>
      <point x="218" y="0" type="line"/>
      <point x="-19" y="0" type="line"/>
    </contour>
    <contour>
      <point x="350" y="491" type="line"/>
      <point x="240" y="265" type="line"/>
      <point x="414" y="265" type="line"/>
      <point x="356" y="491" type="line"/>
    </contour>
  </outline>
</glyph>
<glyph name="cacute" format="1">
  <advance width="439"/>
  <unicode hex="0107"/>
  <outline>
    <contour>
      <point x="425" y="609" type="line"/>
      <point x="375" y="693" type="line"/>
      <point x="205" y="555" type="line"/>
      <point x="230" y="512" type="line"/>
    </contour>
    <contour>
      <point x="246" y="375" type="curve" smooth="yes"/>
      <point x="172" y="375"/>
      <point x="132" y="300"/>
      <point x="132" y="196" type="curve" smooth="yes"/>
      <point x="132" y="121"/>
      <point x="154" y="72"/>
      <point x="218" y="72" type="curve" smooth="yes"/>
      <point x="273" y="72"/>
      <point x="300" y="109"/>
      <point x="320" y="178" type="curve"/>
      <point x="403" y="161" type="line"/>
      <point x="385" y="78"/>
      <point x="326" y="-10"/>
      <point x="202" y="-10" type="curve" smooth="yes"/>
      <point x="88" y="-10"/>
      <point x="21" y="64"/>
      <point x="21" y="191" type="curve" smooth="yes"/>
      <point x="21" y="316"/>
      <point x="85" y="458"/>
      <point x="248" y="458" type="curve"/>
      <point x="298" y="458"/>
      <point x="355" y="446"/>
      <point x="401" y="417" type="curve"/>
      <point x="406" y="291" type="line"/>
      <point x="320" y="282" type="line"/>
      <point x="313" y="360" type="line"/>
      <point x="289" y="373"/>
      <point x="269" y="375"/>
    </contour>
  </outline>
</glyph>
<glyph name="Ccircumflex" format="1">
  <advance width="622"/>
  <unicode hex="0108"/>
  <outline>
    <contour>
      <point x="552" y="62" type="line"/>
      <point x="503" y="18"/>
      <point x="404" y="-10"/>
      <point x="319" y="-10" type="curve" smooth="yes"/>
      <point x="136" y="-10"/>
      <point x="34" y="117"/>
      <point x="34" y="287" type="curve" smooth="yes"/>
      <point x="34" y="464"/>
      <point x="144" y="660"/>
      <point x="388" y="660" type="curve" smooth="yes"/>
      <point x="494" y="660"/>
      <point x="567" y="623"/>
      <point x="606" y="583" type="curve"/>
      <point x="608" y="442" type="line"/>
      <point x="517" y="433" type="line"/>
      <point x="511" y="523" type="line"/>
      <point x="478" y="547"/>
      <point x="428" y="562"/>
      <point x="376" y="562" type="curve" smooth="yes"/>
      <point x="240" y="562"/>
      <point x="148" y="466"/>
      <point x="148" y="299" type="curve" smooth="yes"/>
      <point x="148" y="161"/>
      <point x="212" y="88"/>
      <point x="339" y="88" type="curve" smooth="yes"/>
      <point x="388" y="88"/>
      <point x="437" y="100"/>
      <point x="467" y="116" type="curve"/>
      <point x="493" y="213" type="line"/>
      <point x="581" y="204" type="line"/>
    </contour>
    <contour>
      <point x="414" y="837" type="line"/>
      <point x="378" y="837" type="line"/>
      <point x="237" y="736" type="line"/>
      <point x="259" y="691" type="line"/>
      <point x="384" y="752" type="line"/>
      <point x="504" y="691" type="line"/>
      <point x="532" y="737" type="line"/>
    </contour>
  </outline>
</glyph>
<glyph name="ccircumflex" format="1">
  <advance width="439"/>
  <unicode hex="0109"/>
  <outline>
    <contour>
      <point x="295" y="679" type="line"/>
      <point x="260" y="679" type="line"/>
      <point x="118" y="553" type="line"/>
      <point x="147" y="512" type="line"/>
      <point x="265" y="588" type="line"/>
      <point x="376" y="512" type="line"/>
      <point x="411" y="553" type="line"/>
    </contour>
    <contour>
      <point x="246" y="375" type="curve" smooth="yes"/>
      <point x="172" y="375"/>
      <point x="132" y="300"/>
      <point x="132" y="196" type="curve" smooth="yes"/>
      <point x="132" y="121"/>
      <point x="154" y="72"/>
      <point x="218" y="72" type="curve" smooth="yes"/>
      <point x="273" y="72"/>
      <point x="300" y="109"/>
      <point x="320" y="178" type="curve"/>
      <point x="403" y="161" type="line"/>
      <point x="385" y="78"/>
      <point x="326" y="-10"/>
      <point x="202" y="-10" type="curve" smooth="yes"/>
      <point x="88" y="-10"/>
      <point x="21" y="64"/>
      <point x="21" y="191" type="curve" smooth="yes"/>
      <point x="21" y="316"/>
      <point x="85" y="458"/>
      <point x="248" y="458" type="curve"/>
      <point x="298" y="458"/>
      <point x="355" y="446"/>
      <point x="401" y="417" type="curve"/>
      <point x="406" y="291" type="line"/>
      <point x="320" y="282" type="line"/>
      <point x="313" y="360" type="line"/>
      <point x="289" y="373"/>
      <point x="269" y="375"/>
    </contour>
  </outline>
</glyph>
<glyph name="Dcroat" format="1">
  <advance width="680"/>
  <unicode hex="0110"/>
  <outline>
    <contour>
      <point x="48" y="384" type="line"/>
      <point x="125" y="384" type="line"/>
      <point x="143" y="555" type="line"/>
      <point x="70" y="555" type="line"/>
      <point x="80" y="650" type="line"/>
      <point x="365" y="650" type="line" smooth="yes"/>
      <point x="559" y="650"/>
      <point x="656" y="537"/>
      <point x="656" y="362" type="curve" smooth="yes"/>
      <point x="656" y="153"/>
      <point x="518" y="0"/>
      <point x="303" y="0" type="curve" smooth="yes"/>
      <point x="12" y="0" type="line"/>
      <point x="22" y="95" type="line"/>
      <point x="95" y="95" type="line"/>
      <point x="116" y="300" type="line"/>
      <point x="38" y="300" type="line"/>
    </contour>
    <contour>
      <point x="305" y="95" type="line" smooth="yes"/>
      <point x="455" y="95"/>
      <point x="542" y="191"/>
      <point x="542" y="352" type="curve" smooth="yes"/>
      <point x="542" y="485"/>
      <point x="480" y="555"/>
      <point x="353" y="555" type="curve" smooth="yes"/>
      <point x="248" y="555" type="line"/>
      <point x="230" y="384" type="line"/>
      <point x="349" y="384" type="line"/>
      <point x="340" y="300" type="line"/>
      <point x="221" y="300" type="line"/>
      <point x="200" y="95" type="line"/>
    </contour>
  </outline>
</glyph>
<glyph name="Ebreve" format="1">
  <advance width="570"/>
  <unicode hex="0114"/>
  <outline>
    <contour>
      <point x="419" y="827" type="curve"/>
      <point x="503" y="827" type="line"/>
      <point x="493" y="736"/>
      <point x="438" y="696"/>
      <point x="358" y="696" type="curve" smooth="yes"/>
      <point x="275" y="696"/>
      <point x="232" y="739"/>
      <point x="242" y="827" type="curve"/>
      <point x="326" y="827" type="line"/>
      <point x="321" y="784"/>
      <point x="334" y="762"/>
      <point x="365" y="762" type="curve" smooth="yes"/>
      <point x="398" y="762"/>
      <point x="414" y="788"/>
    </contour>
    <contour>
      <point x="491" y="0" type="line"/>
      <point x="10" y="0" type="line"/>
      <point x="19" y="95" type="line"/>
      <point x="93" y="95" type="line"/>
      <point x="141" y="555" type="line"/>
      <point x="68" y="555" type="line"/>
      <point x="78" y="650" type="line"/>
      <point x="554" y="650" type="line"/>
      <point x="554" y="462" type="line"/>
      <point x="462" y="454" type="line"/>
      <point x="453" y="555" type="line"/>
      <point x="247" y="555" type="line"/>
      <point x="228" y="375" type="line"/>
      <point x="511" y="375" type="line"/>
      <point x="501" y="280" type="line"/>
      <point x="218" y="280" type="line"/>
      <point x="199" y="95" type="line"/>
      <point x="410" y="95" type="line"/>
      <point x="440" y="196" type="line"/>
      <point x="530" y="188" type="line"/>
    </contour>
  </outline>
</glyph>
<glyph name="ebreve" format="1">
  <advance width="441"/>
  <unicode hex="0115"/>
  <outline>
    <contour>
      <point x="222" y="72" type="curve" smooth="yes"/>
      <point x="287" y="72"/>
      <point x="309" y="117"/>
      <point x="321" y="152" type="curve"/>
      <point x="404" y="135" type="line"/>
      <point x="389" y="58"/>
      <point x="319" y="-10"/>
      <point x="206" y="-10" type="curve" smooth="yes"/>
      <point x="98" y="-10"/>
      <point x="20" y="53"/>
      <point x="20" y="189" type="curve" smooth="yes"/>
      <point x="20" y="336"/>
      <point x="110" y="458"/>
      <point x="257" y="458" type="curve" smooth="yes"/>
      <point x="347" y="458"/>
      <point x="413" y="411"/>
      <point x="413" y="339" type="curve" smooth="yes"/>
      <point x="413" y="272"/>
      <point x="372" y="225"/>
      <point x="253" y="200" type="curve" smooth="yes"/>
      <point x="218" y="192"/>
      <point x="177" y="186"/>
      <point x="132" y="181" type="curve"/>
      <point x="135" y="112"/>
      <point x="158" y="72"/>
    </contour>
    <contour>
      <point x="331" y="654" type="curve"/>
      <point x="415" y="654" type="line"/>
      <point x="405" y="563"/>
      <point x="349" y="522"/>
      <point x="268" y="522" type="curve" smooth="yes"/>
      <point x="187" y="522"/>
      <point x="145" y="566"/>
      <point x="154" y="654" type="curve"/>
      <point x="238" y="654" type="line"/>
      <point x="234" y="611"/>
      <point x="246" y="588"/>
      <point x="277" y="588" type="curve" smooth="yes"/>
      <point x="310" y="588"/>
      <point x="326" y="615"/>
    </contour>
    <contour>
      <point x="202" y="256" type="curve" smooth="yes"/>
      <point x="290" y="274"/>
      <point x="305" y="302"/>
      <point x="305" y="332" type="curve" smooth="yes"/>
      <point x="305" y="369"/>
      <point x="278" y="383"/>
      <point x="244" y="383" type="curve" smooth="yes"/>
      <point x="174" y="383"/>
      <point x="144" y="315"/>
      <point x="135" y="245" type="curve"/>
      <point x="161" y="248"/>
      <point x="184" y="253"/>
    </contour>
  </outline>
</glyph>
<glyph name="eogonek" format="1">
  <advance width="441"/>
  <unicode hex="0119"/>
  <outline>
    <contour>
      <point x="310" y="-188" type="line"/>
      <point x="287" y="-200"/>
      <point x="258" y="-208"/>
      <point x="224" y="-208" type="curve" smooth="yes"/>
      <point x="165" y="-208"/>
      <point x="122" y="-182"/>
      <point x="122" y="-125" type="curve" smooth="yes"/>
      <point x="122" y="-78"/>
      <point x="152" y="-37"/>
      <point x="191" y="-9" type="curve"/>
      <point x="91" y="-4"/>
      <point x="20" y="59"/>
      <point x="20" y="189" type="curve" smooth="yes"/>
      <point x="20" y="336"/>
      <point x="110" y="458"/>
      <point x="257" y="458" type="curve" smooth="yes"/>
      <point x="347" y="458"/>
      <point x="413" y="411"/>
      <point x="413" y="339" type="curve" smooth="yes"/>
      <point x="413" y="272"/>
      <point x="372" y="225"/>
      <point x="253" y="200" type="curve" smooth="yes"/>
      <point x="218" y="192"/>
      <point x="177" y="186"/>
      <point x="132" y="181" type="curve"/>
      <point x="135" y="112"/>
      <point x="158" y="72"/>
      <point x="222" y="72" type="curve" smooth="yes"/>
      <point x="287" y="72"/>
      <point x="309" y="117"/>
      <point x="321" y="152" type="curve"/>
      <point x="404" y="135" type="line"/>
      <point x="392" y="75"/>
      <point x="347" y="20"/>
      <point x="274" y="-1" type="curve"/>
      <point x="225" y="-32"/>
      <point x="216" y="-66"/>
      <point x="216" y="-88" type="curve" smooth="yes"/>
      <point x="216" y="-123"/>
      <point x="233" y="-132"/>
      <point x="259" y="-132" type="curve" smooth="yes"/>
      <point x="275" y="-132"/>
      <point x="293" y="-128"/>
      <point x="309" y="-119" type="curve"/>
    </contour>
    <contour>
      <point x="202" y="256" type="curve" smooth="yes"/>
      <point x="290" y="274"/>
      <point x="305" y="302"/>
      <point x="305" y="332" type="curve" smooth="yes"/>
      <point x="305" y="369"/>
      <point x="278" y="383"/>
      <point x="244" y="383" type="curve" smooth="yes"/>
      <point x="174" y="383"/>
      <point x="144" y="315"/>
      <point x="135" y="245" type="curve"/>
      <point x="161" y="248"/>
      <point x="184" y="253"/>
    </contour>
  </outline>
</glyph>
<glyph name="Gcircumflex" format="1">
  <advance width="663"/>
  <unicode hex="011C"/>
  <outline>
    <contour>
      <point x="637" y="255" type="line"/>
      <point x="647" y="350" type="line"/>
      <point x="365" y="350" type="line"/>
      <point x="354" y="255" type="line"/>
      <point x="490" y="255" type="line"/>
      <point x="487" y="229" type="line" smooth="yes"/>
      <point x="475" y="147"/>
      <point x="420" y="88"/>
      <point x="322" y="88" type="curve" smooth="yes"/>
      <point x="216" y="88"/>
      <point x="147" y="156"/>
      <point x="147" y="297" type="curve" smooth="yes"/>
      <point x="147" y="462"/>
      <point x="243" y="562"/>
      <point x="376" y="562" type="curve" smooth="yes"/>
      <point x="430" y="562"/>
      <point x="485" y="545"/>
      <point x="516" y="522" type="curve"/>
      <point x="526" y="440" type="line"/>
      <point x="615" y="449" type="line"/>
      <point x="612" y="583" type="line"/>
      <point x="572" y="626"/>
      <point x="485" y="660"/>
      <point x="386" y="660" type="curve" smooth="yes"/>
      <point x="161" y="660"/>
      <point x="32" y="487"/>
      <point x="32" y="288" type="curve" smooth="yes"/>
      <point x="32" y="115"/>
      <point x="130" y="-10"/>
      <point x="293" y="-10" type="curve" smooth="yes"/>
      <point x="378" y="-10"/>
      <point x="443" y="24"/>
      <point x="485" y="74" type="curve"/>
      <point x="488" y="0" type="line"/>
      <point x="572" y="0" type="line"/>
      <point x="598" y="255" type="line"/>
    </contour>
    <contour>
      <point x="410" y="837" type="line"/>
      <point x="374" y="837" type="line"/>
      <point x="233" y="736" type="line"/>
      <point x="255" y="691" type="line"/>
      <point x="380" y="752" type="line"/>
      <point x="500" y="691" type="line"/>
      <point x="528" y="737" type="line"/>
    </contour>
  </outline>
</glyph>
<glyph name="gcircumflex" format="1">
  <advance width="521"/>
  <unicode hex="011D"/>
  <outline>
    <contour>
      <point x="380" y="449" type="line"/>
      <point x="530" y="449" type="line"/>
      <point x="523" y="388" type="line"/>
      <point x="496" y="366" type="line"/>
      <point x="456" y="366" type="line"/>
      <point x="413" y="17" type="line" smooth="yes"/>
      <point x="397" y="-113"/>
      <point x="334" y="-222"/>
      <point x="179" y="-222" type="curve" smooth="yes"/>
      <point x="93" y="-222"/>
      <point x="12" y="-182"/>
      <point x="-7" y="-84" type="curve"/>
      <point x="67" y="-44" type="line"/>
      <point x="86" y="-106"/>
      <point x="133" y="-133"/>
      <point x="186" y="-133" type="curve" smooth="yes"/>
      <point x="260" y="-133"/>
      <point x="299" y="-82"/>
      <point x="311" y="18" type="curve" smooth="yes"/>
      <point x="319" y="88" type="line"/>
      <point x="288" y="34"/>
      <point x="239" y="-10"/>
      <point x="166" y="-10" type="curve" smooth="yes"/>
      <point x="68" y="-10"/>
      <point x="20" y="72"/>
      <point x="20" y="178" type="curve" smooth="yes"/>
      <point x="20" y="301"/>
      <point x="84" y="458"/>
      <point x="232" y="458" type="curve" smooth="yes"/>
      <point x="297" y="458"/>
      <point x="341" y="428"/>
      <point x="360" y="378" type="curve"/>
    </contour>
    <contour>
      <point x="247" y="375" type="curve" smooth="yes"/>
      <point x="166" y="375"/>
      <point x="131" y="282"/>
      <point x="131" y="190" type="curve" smooth="yes"/>
      <point x="131" y="118"/>
      <point x="154" y="72"/>
      <point x="205" y="72" type="curve" smooth="yes"/>
      <point x="268" y="72"/>
      <point x="319" y="140"/>
      <point x="333" y="199" type="curve"/>
      <point x="339" y="252" type="line" smooth="yes"/>
      <point x="347" y="327"/>
      <point x="304" y="375"/>
    </contour>
    <contour>
      <point x="326" y="679" type="line"/>
      <point x="291" y="679" type="line"/>
      <point x="149" y="553" type="line"/>
      <point x="178" y="512" type="line"/>
      <point x="296" y="588" type="line"/>
      <point x="407" y="512" type="line"/>
      <point x="442" y="553" type="line"/>
    </contour>
  </outline>
</glyph>
<glyph name="Gcommaaccent" format="1">
  <advance width="663"/>
  <unicode hex="0122"/>
  <outline>
    <contour>
      <point x="361" y="-60" type="line"/>
      <point x="262" y="-60" type="line"/>
      <point x="241" y="-215" type="line"/>
      <point x="322" y="-215" type="line"/>
    </contour>
    <contour>
      <point x="637" y="255" type="line"/>
      <point x="647" y="350" type="line"/>
      <point x="365" y="350" type="line"/>
      <point x="354" y="255" type="line"/>
      <point x="490" y="255" type="line"/>
      <point x="487" y="229" type="line" smooth="yes"/>
      <point x="475" y="147"/>
      <point x="420" y="88"/>
      <point x="322" y="88" type="curve" smooth="yes"/>
      <point x="216" y="88"/>
      <point x="147" y="156"/>
      <point x="147" y="297" type="curve" smooth="yes"/>
      <point x="147" y="462"/>
      <point x="243" y="562"/>
      <point x="376" y="562" type="curve" smooth="yes"/>
      <point x="430" y="562"/>
      <point x="485" y="545"/>
      <point x="516" y="522" type="curve"/>
      <point x="526" y="440" type="line"/>
      <point x="615" y="449" type="line"/>
      <point x="612" y="583" type="line"/>
      <point x="572" y="626"/>
      <point x="485" y="660"/>
      <point x="386" y="660" type="curve" smooth="yes"/>
      <point x="161" y="660"/>
      <point x="32" y="487"/>
      <point x="32" y="288" type="curve" smooth="yes"/>
      <point x="32" y="115"/>
      <point x="130" y="-10"/>
      <point x="293" y="-10" type="curve" smooth="yes"/>
      <point x="378" y="-10"/>
      <point x="443" y="24"/>
      <point x="485" y="74" type="curve"/>
      <point x="488" y="0" type="line"/>
      <point x="572" y="0" type="line"/>
      <point x="598" y="255" type="line"/>
    </contour>
  </outline>
</glyph>
<glyph name="Hcircumflex" format="1">
  <advance width="732"/>
  <unicode hex="0124"/>
  <outline>
    <contour>
      <point x="20" y="95" type="line"/>
      <point x="92" y="95" type="line"/>
      <point x="140" y="555" type="line"/>
      <point x="68" y="555" type="line"/>
      <point x="78" y="650" type="line"/>
      <point x="329" y="650" type="line"/>
      <point x="318" y="555" type="line"/>
      <point x="246" y="555" type="line"/>
      <point x="227" y="377" type="line"/>
      <point x="524" y="377" type="line"/>
      <point x="543" y="555" type="line"/>
      <point x="471" y="555" type="line"/>
      <point x="482" y="650" type="line"/>
      <point x="732" y="650" type="line"/>
      <point x="722" y="555" type="line"/>
      <point x="650" y="555" type="line"/>
      <point x="602" y="95" type="line"/>
      <point x="674" y="95" type="line"/>
      <point x="664" y="0" type="line"/>
      <point x="414" y="0" type="line"/>
      <point x="424" y="95" type="line"/>
      <point x="495" y="95" type="line"/>
      <point x="514" y="283" type="line"/>
      <point x="217" y="283" type="line"/>
      <point x="198" y="95" type="line"/>
      <point x="270" y="95" type="line"/>
      <point x="261" y="0" type="line"/>
      <point x="10" y="0" type="line"/>
    </contour>
    <contour>
      <point x="445" y="837" type="line"/>
      <point x="409" y="837" type="line"/>
      <point x="268" y="736" type="line"/>
      <point x="290" y="691" type="line"/>
      <point x="415" y="752" type="line"/>
      <point x="535" y="691" type="line"/>
      <point x="563" y="737" type="line"/>
    </contour>
  </outline>
</glyph>
<glyph name="hcircumflex" format="1">
  <advance width="516"/>
  <unicode hex="0125"/>
  <outline>
    <contour>
      <point x="44" y="664" type="line"/>
      <point x="72" y="688" type="line"/>
      <point x="214" y="688" type="line"/>
      <point x="175" y="370" type="line"/>
      <point x="206" y="423"/>
      <point x="252" y="458"/>
      <point x="318" y="458" type="curve" smooth="yes"/>
      <point x="400" y="458"/>
      <point x="462" y="408"/>
      <point x="448" y="297" type="curve" smooth="yes"/>
      <point x="422" y="82" type="line"/>
      <point x="486" y="82" type="line"/>
      <point x="479" y="22" type="line"/>
      <point x="452" y="0" type="line"/>
      <point x="310" y="0" type="line"/>
      <point x="342" y="258" type="line" smooth="yes"/>
      <point x="352" y="343"/>
      <point x="325" y="375"/>
      <point x="271" y="375" type="curve" smooth="yes"/>
      <point x="209" y="375"/>
      <point x="174" y="329"/>
      <point x="163" y="270" type="curve"/>
      <point x="130" y="0" type="line"/>
      <point x="28" y="0" type="line"/>
      <point x="102" y="606" type="line"/>
      <point x="37" y="606" type="line"/>
    </contour>
    <contour>
      <point x="189" y="875" type="line"/>
      <point x="154" y="875" type="line"/>
      <point x="12" y="749" type="line"/>
      <point x="41" y="708" type="line"/>
      <point x="159" y="784" type="line"/>
      <point x="270" y="708" type="line"/>
      <point x="305" y="749" type="line"/>
    </contour>
  </outline>
</glyph>
<glyph name="Hbar" format="1">
  <advance width="733"/>
  <unicode hex="0126"/>
  <outline>
    <contour>
      <point x="425" y="95" type="line"/>
      <point x="496" y="95" type="line"/>
      <point x="515" y="283" type="line"/>
      <point x="218" y="283" type="line"/>
      <point x="199" y="95" type="line"/>
      <point x="271" y="95" type="line"/>
      <point x="262" y="0" type="line"/>
      <point x="11" y="0" type="line"/>
      <point x="21" y="95" type="line"/>
      <point x="93" y="95" type="line"/>
      <point x="129" y="438" type="line"/>
      <point x="55" y="438" type="line"/>
      <point x="62" y="504" type="line"/>
      <point x="136" y="504" type="line"/>
      <point x="141" y="555" type="line"/>
      <point x="69" y="555" type="line"/>
      <point x="79" y="650" type="line"/>
      <point x="330" y="650" type="line"/>
      <point x="319" y="555" type="line"/>
      <point x="247" y="555" type="line"/>
      <point x="242" y="504" type="line"/>
      <point x="539" y="504" type="line"/>
      <point x="544" y="555" type="line"/>
      <point x="472" y="555" type="line"/>
      <point x="483" y="650" type="line"/>
      <point x="733" y="650" type="line"/>
      <point x="723" y="555" type="line"/>
      <point x="651" y="555" type="line"/>
      <point x="646" y="504" type="line"/>
      <point x="720" y="504" type="line"/>
      <point x="713" y="438" type="line"/>
      <point x="639" y="438" type="line"/>
      <point x="603" y="95" type="line"/>
      <point x="675" y="95" type="line"/>
      <point x="665" y="0" type="line"/>
      <point x="415" y="0" type="line"/>
    </contour>
    <contour>
      <point x="228" y="377" type="line"/>
      <point x="525" y="377" type="line"/>
      <point x="532" y="438" type="line"/>
      <point x="235" y="438" type="line"/>
    </contour>
  </outline>
</glyph>
<glyph name="hbar" format="1">
  <advance width="516"/>
  <unicode hex="0127"/>
  <outline>
    <contour>
      <point x="44" y="664" type="line"/>
      <point x="72" y="688" type="line"/>
      <point x="214" y="688" type="line"/>
      <point x="198" y="562" type="line"/>
      <point x="351" y="562" type="line"/>
      <point x="344" y="527" type="line"/>
      <point x="314" y="500" type="line"/>
      <point x="191" y="500" type="line"/>
      <point x="175" y="370" type="line"/>
      <point x="206" y="423"/>
      <point x="252" y="458"/>
      <point x="318" y="458" type="curve" smooth="yes"/>
      <point x="400" y="458"/>
      <point x="462" y="408"/>
      <point x="448" y="297" type="curve" smooth="yes"/>
      <point x="422" y="82" type="line"/>
      <point x="486" y="82" type="line"/>
      <point x="479" y="22" type="line"/>
      <point x="452" y="0" type="line"/>
      <point x="310" y="0" type="line"/>
      <point x="342" y="258" type="line" smooth="yes"/>
      <point x="352" y="343"/>
      <point x="325" y="375"/>
      <point x="271" y="375" type="curve" smooth="yes"/>
      <point x="209" y="375"/>
      <point x="174" y="329"/>
      <point x="163" y="270" type="curve"/>
      <point x="130" y="0" type="line"/>
      <point x="28" y="0" type="line"/>
      <point x="89" y="500" type="line"/>
      <point x="11" y="500" type="line"/>
      <point x="16" y="535" type="line"/>
      <point x="45" y="562" type="line"/>
      <point x="96" y="562" type="line"/>
      <point x="102" y="606" type="line"/>
      <point x="37" y="606" type="line"/>
    </contour>
  </outline>
</glyph>
<glyph name="Itilde" format="1">
  <advance width="328"/>
  <unicode hex="0128"/>
  <outline>
    <contour>
      <point x="20" y="95" type="line"/>
      <point x="92" y="95" type="line"/>
      <point x="140" y="555" type="line"/>
      <point x="68" y="555" type="line"/>
      <point x="78" y="650" type="line"/>
      <point x="328" y="650" type="line"/>
      <point x="318" y="555" type="line"/>
      <point x="246" y="555" type="line"/>
      <point x="198" y="95" type="line"/>
      <point x="270" y="95" type="line"/>
      <point x="260" y="0" type="line"/>
      <point x="10" y="0" type="line"/>
    </contour>
    <contour>
      <point x="110" y="701" type="line"/>
      <point x="122" y="729"/>
      <point x="138" y="736"/>
      <point x="158" y="736" type="curve" smooth="yes"/>
      <point x="201" y="736"/>
      <point x="230" y="704"/>
      <point x="278" y="704" type="curve" smooth="yes"/>
      <point x="337" y="704"/>
      <point x="360" y="755"/>
      <point x="369" y="812" type="curve"/>
      <point x="324" y="822" type="line"/>
      <point x="311" y="790"/>
      <point x="292" y="782"/>
      <point x="273" y="782" type="curve" smooth="yes"/>
      <point x="235" y="782"/>
      <point x="206" y="815"/>
      <point x="162" y="815" type="curve" smooth="yes"/>
      <point x="103" y="815"/>
      <point x="73" y="751"/>
      <point x="69" y="716" type="curve"/>
    </contour>
  </outline>
</glyph>
<glyph name="Imacron" format="1">
  <advance width="328"/>
  <unicode hex="012A"/>
  <outline>
    <contour>
      <point x="20" y="95" type="line"/>
      <point x="92" y="95" type="line"/>
      <point x="140" y="555" type="line"/>
      <point x="68" y="555" type="line"/>
      <point x="78" y="650" type="line"/>
      <point x="328" y="650" type="line"/>
      <point x="318" y="555" type="line"/>
      <point x="246" y="555" type="line"/>
      <point x="198" y="95" type="line"/>
      <point x="270" y="95" type="line"/>
      <point x="260" y="0" type="line"/>
      <point x="10" y="0" type="line"/>
    </contour>
    <contour>
      <point x="76" y="808" type="line"/>
      <point x="367" y="808" type="line"/>
      <point x="358" y="726" type="line"/>
      <point x="68" y="726" type="line"/>
    </contour>
  </outline>
</glyph>
<glyph name="imacron" format="1">
  <advance width="267"/>
  <unicode hex="012B"/>
  <outline>
    <contour>
      <point x="34" y="425" type="line"/>
      <point x="61" y="449" type="line"/>
      <point x="207" y="449" type="line"/>
      <point x="163" y="82" type="line"/>
      <point x="226" y="82" type="line"/>
      <point x="219" y="22" type="line"/>
      <point x="192" y="0" type="line"/>
      <point x="50" y="0" type="line"/>
      <point x="95" y="366" type="line"/>
      <point x="26" y="366" type="line"/>
    </contour>
    <contour>
      <point x="32" y="629" type="line"/>
      <point x="286" y="629" type="line"/>
      <point x="277" y="547" type="line"/>
      <point x="23" y="547" type="line"/>
    </contour>
  </outline>
</glyph>
<glyph name="Ibreve" format="1">
  <advance width="328"/>
  <unicode hex="012C"/>
  <outline>
    <contour>
      <point x="20" y="95" type="line"/>
      <point x="92" y="95" type="line"/>
      <point x="140" y="555" type="line"/>
      <point x="68" y="555" type="line"/>
      <point x="78" y="650" type="line"/>
      <point x="328" y="650" type="line"/>
      <point x="318" y="555" type="line"/>
      <point x="246" y="555" type="line"/>
      <point x="198" y="95" type="line"/>
      <point x="270" y="95" type="line"/>
      <point x="260" y="0" type="line"/>
      <point x="10" y="0" type="line"/>
    </contour>
    <contour>
      <point x="264" y="827" type="curve"/>
      <point x="348" y="827" type="line"/>
      <point x="338" y="736"/>
      <point x="283" y="696"/>
      <point x="203" y="696" type="curve" smooth="yes"/>
      <point x="120" y="696"/>
      <point x="77" y="739"/>
      <point x="87" y="827" type="curve"/>
      <point x="171" y="827" type="line"/>
      <point x="166" y="784"/>
      <point x="179" y="762"/>
      <point x="210" y="762" type="curve" smooth="yes"/>
      <point x="243" y="762"/>
      <point x="259" y="788"/>
    </contour>
  </outline>
</glyph>
<glyph name="IJ" format="1">
  <advance width="784"/>
  <unicode hex="0132"/>
  <outline>
    <contour>
      <point x="507" y="650" type="line"/>
      <point x="792" y="650" type="line"/>
      <point x="782" y="555" type="line"/>
      <point x="720" y="555" type="line"/>
      <point x="680" y="178" type="line" smooth="yes"/>
      <point x="667" y="52"/>
      <point x="590" y="-10"/>
      <point x="481" y="-10" type="curve" smooth="yes"/>
      <point x="383" y="-10"/>
      <point x="338" y="41"/>
      <point x="318" y="104" type="curve"/>
      <point x="399" y="163" type="line"/>
      <point x="417" y="106"/>
      <point x="447" y="93"/>
      <point x="482" y="93" type="curve" smooth="yes"/>
      <point x="540" y="93"/>
      <point x="568" y="128"/>
      <point x="573" y="177" type="curve" smooth="yes"/>
      <point x="613" y="555" type="line"/>
      <point x="497" y="555" type="line"/>
    </contour>
    <contour>
      <point x="20" y="95" type="line"/>
      <point x="92" y="95" type="line"/>
      <point x="140" y="555" type="line"/>
      <point x="68" y="555" type="line"/>
      <point x="78" y="650" type="line"/>
      <point x="328" y="650" type="line"/>
      <point x="318" y="555" type="line"/>
      <point x="246" y="555" type="line"/>
      <point x="198" y="95" type="line"/>
      <point x="270" y="95" type="line"/>
      <point x="260" y="0" type="line"/>
      <point x="10" y="0" type="line"/>
    </contour>
  </outline>
</glyph>
<glyph name="ij" format="1">
  <advance width="517"/>
  <unicode hex="0133"/>
  <outline>
    <contour>
      <point x="291" y="425" type="line"/>
      <point x="318" y="449" type="line"/>
      <point x="479" y="449" type="line"/>
      <point x="424" y="3" type="line" smooth="yes"/>
      <point x="407" y="-130"/>
      <point x="361" y="-221"/>
      <point x="274" y="-222" type="curve" smooth="yes"/>
      <point x="238" y="-223"/>
      <point x="207" y="-212"/>
      <point x="182" y="-197" type="curve"/>
      <point x="186" y="-126" type="line"/>
      <point x="254" y="-153"/>
      <point x="304" y="-141"/>
      <point x="322" y="3" type="curve" smooth="yes"/>
      <point x="367" y="366" type="line"/>
      <point x="283" y="366" type="line"/>
    </contour>
    <contour>
      <point x="34" y="425" type="line"/>
      <point x="61" y="449" type="line"/>
      <point x="207" y="449" type="line"/>
      <point x="163" y="82" type="line"/>
      <point x="226" y="82" type="line"/>
      <point x="219" y="22" type="line"/>
      <point x="192" y="0" type="line"/>
      <point x="50" y="0" type="line"/>
      <point x="95" y="366" type="line"/>
      <point x="26" y="366" type="line"/>
    </contour>
    <contour>
      <point x="384" y="542" type="line"/>
      <point x="487" y="542" type="line"/>
      <point x="499" y="660" type="line"/>
      <point x="396" y="660" type="line"/>
    </contour>
    <contour>
      <point x="116" y="542" type="line"/>
      <point x="219" y="542" type="line"/>
      <point x="231" y="660" type="line"/>
      <point x="129" y="660" type="line"/>
    </contour>
  </outline>
</glyph>
<glyph name="Jcircumflex" format="1">
  <advance width="456"/>
  <unicode hex="0134"/>
  <outline>
    <contour>
      <point x="179" y="650" type="line"/>
      <point x="464" y="650" type="line"/>
      <point x="454" y="555" type="line"/>
      <point x="392" y="555" type="line"/>
      <point x="352" y="178" type="line" smooth="yes"/>
      <point x="339" y="52"/>
      <point x="262" y="-10"/>
      <point x="153" y="-10" type="curve" smooth="yes"/>
      <point x="55" y="-10"/>
      <point x="10" y="41"/>
      <point x="-10" y="104" type="curve"/>
      <point x="71" y="163" type="line"/>
      <point x="89" y="106"/>
      <point x="119" y="93"/>
      <point x="154" y="93" type="curve" smooth="yes"/>
      <point x="212" y="93"/>
      <point x="240" y="128"/>
      <point x="245" y="177" type="curve" smooth="yes"/>
      <point x="285" y="555" type="line"/>
      <point x="169" y="555" type="line"/>
    </contour>
    <contour>
      <point x="358" y="837" type="line"/>
      <point x="322" y="837" type="line"/>
      <point x="181" y="736" type="line"/>
      <point x="203" y="691" type="line"/>
      <point x="328" y="752" type="line"/>
      <point x="448" y="691" type="line"/>
      <point x="476" y="737" type="line"/>
    </contour>
  </outline>
</glyph>
<glyph name="jcircumflex" format="1">
  <advance width="252"/>
  <unicode hex="0135"/>
  <outline>
    <contour>
      <point x="26" y="425" type="line"/>
      <point x="53" y="449" type="line"/>
      <point x="214" y="449" type="line"/>
      <point x="159" y="3" type="line" smooth="yes"/>
      <point x="142" y="-131"/>
      <point x="95" y="-221"/>
      <point x="8" y="-222" type="curve" smooth="yes"/>
      <point x="-28" y="-223"/>
      <point x="-58" y="-212"/>
      <point x="-83" y="-197" type="curve"/>
      <point x="-79" y="-126" type="line"/>
      <point x="-12" y="-153"/>
      <point x="39" y="-141"/>
      <point x="57" y="3" type="curve" smooth="yes"/>
      <point x="101" y="366" type="line"/>
      <point x="18" y="366" type="line"/>
    </contour>
    <contour>
      <point x="186" y="679" type="line"/>
      <point x="151" y="679" type="line"/>
      <point x="9" y="553" type="line"/>
      <point x="38" y="512" type="line"/>
      <point x="156" y="588" type="line"/>
      <point x="267" y="512" type="line"/>
      <point x="302" y="553" type="line"/>
    </contour>
  </outline>
</glyph>
<glyph name="Kcommaaccent" format="1">
  <advance width="638"/>
  <unicode hex="0136"/>
  <outline>
    <contour>
      <point x="356" y="95" type="line"/>
      <point x="420" y="95" type="line"/>
      <point x="305" y="284" type="line"/>
      <point x="218" y="284" type="line"/>
      <point x="198" y="95" type="line"/>
      <point x="258" y="95" type="line"/>
      <point x="248" y="0" type="line"/>
      <point x="10" y="0" type="line"/>
      <point x="20" y="95" type="line"/>
      <point x="92" y="95" type="line"/>
      <point x="140" y="555" type="line"/>
      <point x="68" y="555" type="line"/>
      <point x="78" y="650" type="line"/>
      <point x="319" y="650" type="line"/>
      <point x="309" y="555" type="line"/>
      <point x="246" y="555" type="line"/>
      <point x="227" y="375" type="line"/>
      <point x="316" y="375" type="line"/>
      <point x="464" y="555" type="line"/>
      <point x="403" y="555" type="line"/>
      <point x="413" y="650" type="line"/>
      <point x="658" y="650" type="line"/>
      <point x="648" y="555" type="line"/>
      <point x="578" y="555" type="line"/>
      <point x="393" y="340" type="line"/>
      <point x="544" y="95" type="line"/>
      <point x="611" y="95" type="line"/>
      <point x="601" y="0" type="line"/>
      <point x="346" y="0" type="line"/>
    </contour>
    <contour>
      <point x="342" y="-60" type="line"/>
      <point x="243" y="-60" type="line"/>
      <point x="222" y="-215" type="line"/>
      <point x="303" y="-215" type="line"/>
    </contour>
  </outline>
</glyph>
<glyph name="kcommaaccent" format="1">
  <advance width="461"/>
  <unicode hex="0137"/>
  <outline>
    <contour>
      <point x="44" y="664" type="line"/>
      <point x="72" y="688" type="line"/>
      <point x="214" y="688" type="line"/>
      <point x="163" y="267" type="line"/>
      <point x="228" y="267" type="line"/>
      <point x="282" y="322"/>
      <point x="311" y="378"/>
      <point x="319" y="449" type="curve"/>
      <point x="423" y="449" type="line"/>
      <point x="422" y="368"/>
      <point x="369" y="288"/>
      <point x="288" y="233" type="curve"/>
      <point x="370" y="82" type="line"/>
      <point x="437" y="82" type="line"/>
      <point x="429" y="22" type="line"/>
      <point x="403" y="0" type="line"/>
      <point x="308" y="0" type="line"/>
      <point x="204" y="195" type="line"/>
      <point x="154" y="195" type="line"/>
      <point x="130" y="0" type="line"/>
      <point x="28" y="0" type="line"/>
      <point x="102" y="606" type="line"/>
      <point x="37" y="606" type="line"/>
    </contour>
    <contour>
      <point x="262" y="-60" type="line"/>
      <point x="163" y="-60" type="line"/>
      <point x="142" y="-215" type="line"/>
      <point x="223" y="-215" type="line"/>
    </contour>
  </outline>
</glyph>
<glyph name="lacute" format="1">
  <advance width="250"/>
  <unicode hex="013A"/>
  <outline>
    <contour>
      <point x="49" y="664" type="line"/>
      <point x="76" y="688" type="line"/>
      <point x="222" y="688" type="line"/>
      <point x="148" y="82" type="line"/>
      <point x="212" y="82" type="line"/>
      <point x="205" y="22" type="line"/>
      <point x="178" y="0" type="line"/>
      <point x="35" y="0" type="line"/>
      <point x="109" y="606" type="line"/>
      <point x="41" y="606" type="line"/>
    </contour>
    <contour>
      <point x="299" y="749" type="line"/>
      <point x="276" y="848" type="line"/>
      <point x="72" y="765" type="line"/>
      <point x="84" y="716" type="line"/>
    </contour>
  </outline>
</glyph>
<glyph name="Lcommaaccent" format="1">
  <advance width="532"/>
  <unicode hex="013B"/>
  <outline>
    <contour>
      <point x="300" y="-60" type="line"/>
      <point x="201" y="-60" type="line"/>
      <point x="180" y="-215" type="line"/>
      <point x="261" y="-215" type="line"/>
    </contour>
    <contour>
      <point x="477" y="0" type="line"/>
      <point x="519" y="222" type="line"/>
      <point x="429" y="230" type="line"/>
      <point x="396" y="95" type="line"/>
      <point x="199" y="95" type="line"/>
      <point x="247" y="555" type="line"/>
      <point x="344" y="555" type="line"/>
      <point x="354" y="650" type="line"/>
      <point x="77" y="650" type="line"/>
      <point x="67" y="555" type="line"/>
      <point x="140" y="555" type="line"/>
      <point x="92" y="95" type="line"/>
      <point x="19" y="95" type="line"/>
      <point x="9" y="0" type="line"/>
    </contour>
  </outline>
</glyph>
<glyph name="Lcaron" format="1">
  <advance width="533"/>
  <unicode hex="013D"/>
  <outline>
    <contour>
      <point x="509" y="681" type="line"/>
      <point x="410" y="681" type="line"/>
      <point x="374" y="457" type="line"/>
      <point x="455" y="457" type="line"/>
    </contour>
    <contour>
      <point x="477" y="0" type="line"/>
      <point x="519" y="222" type="line"/>
      <point x="429" y="230" type="line"/>
      <point x="396" y="95" type="line"/>
      <point x="199" y="95" type="line"/>
      <point x="247" y="555" type="line"/>
      <point x="344" y="555" type="line"/>
      <point x="354" y="650" type="line"/>
      <point x="77" y="650" type="line"/>
      <point x="67" y="555" type="line"/>
      <point x="140" y="555" type="line"/>
      <point x="92" y="95" type="line"/>
      <point x="19" y="95" type="line"/>
      <point x="9" y="0" type="line"/>
    </contour>
  </outline>
</glyph>
<glyph name="ldot" format="1">
  <advance width="342"/>
  <unicode hex="0140"/>
  <outline>
    <contour>
      <point x="49" y="664" type="line"/>
      <point x="76" y="688" type="line"/>
      <point x="222" y="688" type="line"/>
      <point x="148" y="82" type="line"/>
      <point x="212" y="82" type="line"/>
      <point x="205" y="22" type="line"/>
      <point x="178" y="0" type="line"/>
      <point x="35" y="0" type="line"/>
      <point x="109" y="606" type="line"/>
      <point x="41" y="606" type="line"/>
    </contour>
    <contour>
      <point x="224" y="279" type="line"/>
      <point x="331" y="279" type="line"/>
      <point x="343" y="397" type="line"/>
      <point x="236" y="397" type="line"/>
    </contour>
  </outline>
</glyph>
<glyph name="Ncommaaccent" format="1">
  <advance width="725"/>
  <unicode hex="0145"/>
  <outline>
    <contour>
      <point x="24" y="95" type="line"/>
      <point x="94" y="95" type="line"/>
      <point x="142" y="555" type="line"/>
      <point x="62" y="555" type="line"/>
      <point x="72" y="650" type="line"/>
      <point x="228" y="650" type="line"/>
      <point x="516" y="220" type="line"/>
      <point x="519" y="220" type="line"/>
      <point x="554" y="555" type="line"/>
      <point x="462" y="555" type="line"/>
      <point x="472" y="650" type="line"/>
      <point x="736" y="650" type="line"/>
      <point x="726" y="555" type="line"/>
      <point x="654" y="555" type="line"/>
      <point x="596" y="0" type="line"/>
      <point x="534" y="-1" type="line"/>
      <point x="234" y="450" type="line"/>
      <point x="231" y="450" type="line"/>
      <point x="194" y="95" type="line"/>
      <point x="286" y="95" type="line"/>
      <point x="276" y="0" type="line"/>
      <point x="14" y="0" type="line"/>
    </contour>
    <contour>
      <point x="391" y="-60" type="line"/>
      <point x="292" y="-60" type="line"/>
      <point x="271" y="-215" type="line"/>
      <point x="352" y="-215" type="line"/>
    </contour>
  </outline>
</glyph>
<glyph name="ncommaaccent" format="1">
  <advance width="534"/>
  <unicode hex="0146"/>
  <outline>
    <contour>
      <point x="59" y="449" type="line"/>
      <point x="188" y="449" type="line"/>
      <point x="191" y="362" type="line"/>
      <point x="222" y="420"/>
      <point x="269" y="458"/>
      <point x="338" y="458" type="curve" smooth="yes"/>
      <point x="420" y="458"/>
      <point x="482" y="408"/>
      <point x="468" y="297" type="curve" smooth="yes"/>
      <point x="442" y="82" type="line"/>
      <point x="507" y="82" type="line"/>
      <point x="499" y="22" type="line"/>
      <point x="472" y="0" type="line"/>
      <point x="330" y="0" type="line"/>
      <point x="362" y="258" type="line" smooth="yes"/>
      <point x="372" y="343"/>
      <point x="346" y="375"/>
      <point x="291" y="375" type="curve" smooth="yes"/>
      <point x="225" y="375"/>
      <point x="190" y="322"/>
      <point x="182" y="257" type="curve"/>
      <point x="182" y="258" type="line"/>
      <point x="150" y="0" type="line"/>
      <point x="48" y="0" type="line"/>
      <point x="93" y="366" type="line"/>
      <point x="24" y="366" type="line"/>
      <point x="31" y="425" type="line"/>
    </contour>
    <contour>
      <point x="287" y="-60" type="line"/>
      <point x="188" y="-60" type="line"/>
      <point x="167" y="-215" type="line"/>
      <point x="248" y="-215" type="line"/>
    </contour>
  </outline>
</glyph>
<glyph name="Ncaron" format="1">
  <advance width="725"/>
  <unicode hex="0147"/>
  <outline>
    <contour>
      <point x="472" y="650" type="line"/>
      <point x="736" y="650" type="line"/>
      <point x="726" y="555" type="line"/>
      <point x="654" y="555" type="line"/>
      <point x="596" y="0" type="line"/>
      <point x="534" y="-1" type="line"/>
      <point x="234" y="450" type="line"/>
      <point x="231" y="450" type="line"/>
      <point x="194" y="95" type="line"/>
      <point x="286" y="95" type="line"/>
      <point x="276" y="0" type="line"/>
      <point x="14" y="0" type="line"/>
      <point x="24" y="95" type="line"/>
      <point x="94" y="95" type="line"/>
      <point x="142" y="555" type="line"/>
      <point x="62" y="555" type="line"/>
      <point x="72" y="650" type="line"/>
      <point x="228" y="650" type="line"/>
      <point x="516" y="220" type="line"/>
      <point x="519" y="220" type="line"/>
      <point x="554" y="555" type="line"/>
      <point x="462" y="555" type="line"/>
    </contour>
    <contour>
      <point x="384" y="691" type="line"/>
      <point x="420" y="691" type="line"/>
      <point x="560" y="791" type="line"/>
      <point x="539" y="837" type="line"/>
      <point x="413" y="774" type="line"/>
      <point x="293" y="836" type="line"/>
      <point x="265" y="791" type="line"/>
    </contour>
  </outline>
</glyph>
<glyph name="Eng" format="1">
  <advance width="725"/>
  <unicode hex="014A"/>
  <outline>
    <contour>
      <point x="275" y="0" type="line"/>
      <point x="13" y="0" type="line"/>
      <point x="23" y="95" type="line"/>
      <point x="94" y="95" type="line"/>
      <point x="142" y="555" type="line"/>
      <point x="62" y="555" type="line"/>
      <point x="72" y="650" type="line"/>
      <point x="228" y="650" type="line"/>
      <point x="516" y="220" type="line"/>
      <point x="519" y="220" type="line"/>
      <point x="553" y="555" type="line"/>
      <point x="462" y="555" type="line"/>
      <point x="472" y="650" type="line"/>
      <point x="736" y="650" type="line"/>
      <point x="726" y="555" type="line"/>
      <point x="654" y="555" type="line"/>
      <point x="594" y="-19" type="line" smooth="yes"/>
      <point x="583" y="-141"/>
      <point x="506" y="-207"/>
      <point x="392" y="-207" type="curve" smooth="yes"/>
      <point x="292" y="-207"/>
      <point x="246" y="-156"/>
      <point x="225" y="-93" type="curve"/>
      <point x="308" y="-34" type="line"/>
      <point x="327" y="-91"/>
      <point x="357" y="-104"/>
      <point x="392" y="-104" type="curve" smooth="yes"/>
      <point x="452" y="-104"/>
      <point x="481" y="-68"/>
      <point x="485" y="-20" type="curve" smooth="yes"/>
      <point x="493" y="58" type="line"/>
      <point x="234" y="450" type="line"/>
      <point x="231" y="450" type="line"/>
      <point x="193" y="95" type="line"/>
      <point x="285" y="95" type="line"/>
    </contour>
  </outline>
</glyph>
<glyph name="Omacron" format="1">
  <advance width="695"/>
  <unicode hex="014C"/>
  <outline>
    <contour>
      <point x="270" y="808" type="line"/>
      <point x="561" y="808" type="line"/>
      <point x="552" y="726" type="line"/>
      <point x="262" y="726" type="line"/>
    </contour>
    <contour>
      <point x="387" y="660" type="curve" smooth="yes"/>
      <point x="186" y="660"/>
      <point x="33" y="495"/>
      <point x="33" y="290" type="curve" smooth="yes"/>
      <point x="33" y="126"/>
      <point x="134" y="-10"/>
      <point x="317" y="-10" type="curve" smooth="yes"/>
      <point x="524" y="-10"/>
      <point x="674" y="160"/>
      <point x="674" y="360" type="curve" smooth="yes"/>
      <point x="674" y="526"/>
      <point x="566" y="660"/>
    </contour>
    <contour>
      <point x="333" y="88" type="curve" smooth="yes"/>
      <point x="202" y="88"/>
      <point x="149" y="190"/>
      <point x="149" y="300" type="curve" smooth="yes"/>
      <point x="149" y="443"/>
      <point x="237" y="562"/>
      <point x="375" y="562" type="curve" smooth="yes"/>
      <point x="489" y="562"/>
      <point x="558" y="481"/>
      <point x="558" y="352" type="curve" smooth="yes"/>
      <point x="558" y="215"/>
      <point x="479" y="88"/>
    </contour>
  </outline>
</glyph>
<glyph name="omacron" format="1">
  <advance width="483"/>
  <unicode hex="014D"/>
  <outline>
    <contour>
      <point x="162" y="629" type="line"/>
      <point x="416" y="629" type="line"/>
      <point x="407" y="547" type="line"/>
      <point x="153" y="547" type="line"/>
    </contour>
    <contour>
      <point x="22" y="192" type="curve" smooth="yes"/>
      <point x="22" y="330"/>
      <point x="99" y="458"/>
      <point x="260" y="458" type="curve" smooth="yes"/>
      <point x="395" y="458"/>
      <point x="451" y="369"/>
      <point x="451" y="251" type="curve" smooth="yes"/>
      <point x="451" y="99"/>
      <point x="357" y="-10"/>
      <point x="210" y="-10" type="curve" smooth="yes"/>
      <point x="88" y="-10"/>
      <point x="22" y="66"/>
    </contour>
    <contour>
      <point x="133" y="200" type="curve" smooth="yes"/>
      <point x="133" y="123"/>
      <point x="152" y="72"/>
      <point x="220" y="72" type="curve" smooth="yes"/>
      <point x="307" y="72"/>
      <point x="341" y="153"/>
      <point x="341" y="248" type="curve" smooth="yes"/>
      <point x="341" y="332"/>
      <point x="315" y="375"/>
      <point x="249" y="375" type="curve" smooth="yes"/>
      <point x="171" y="375"/>
      <point x="133" y="312"/>
    </contour>
  </outline>
</glyph>
<glyph name="Obreve" format="1">
  <advance width="695"/>
  <unicode hex="014E"/>
  <outline>
    <contour>
      <point x="464" y="827" type="curve"/>
      <point x="548" y="827" type="line"/>
      <point x="538" y="736"/>
      <point x="483" y="696"/>
      <point x="403" y="696" type="curve" smooth="yes"/>
      <point x="320" y="696"/>
      <point x="277" y="739"/>
      <point x="287" y="827" type="curve"/>
      <point x="371" y="827" type="line"/>
      <point x="366" y="784"/>
      <point x="379" y="762"/>
      <point x="410" y="762" type="curve" smooth="yes"/>
      <point x="443" y="762"/>
      <point x="459" y="788"/>
    </contour>
    <contour>
      <point x="387" y="660" type="curve" smooth="yes"/>
      <point x="186" y="660"/>
      <point x="33" y="495"/>
      <point x="33" y="290" type="curve" smooth="yes"/>
      <point x="33" y="126"/>
      <point x="134" y="-10"/>
      <point x="317" y="-10" type="curve" smooth="yes"/>
      <point x="524" y="-10"/>
      <point x="674" y="160"/>
      <point x="674" y="360" type="curve" smooth="yes"/>
      <point x="674" y="526"/>
      <point x="566" y="660"/>
    </contour>
    <contour>
      <point x="333" y="88" type="curve" smooth="yes"/>
      <point x="202" y="88"/>
      <point x="149" y="190"/>
      <point x="149" y="300" type="curve" smooth="yes"/>
      <point x="149" y="443"/>
      <point x="237" y="562"/>
      <point x="375" y="562" type="curve" smooth="yes"/>
      <point x="489" y="562"/>
      <point x="558" y="481"/>
      <point x="558" y="352" type="curve" smooth="yes"/>
      <point x="558" y="215"/>
      <point x="479" y="88"/>
    </contour>
  </outline>
</glyph>
<glyph name="OE" format="1">
  <advance width="978"/>
  <unicode hex="0152"/>
  <outline>
    <contour>
      <point x="908" y="0" type="line"/>
      <point x="947" y="188" type="line"/>
      <point x="857" y="196" type="line"/>
      <point x="826" y="95" type="line"/>
      <point x="601" y="95" type="line"/>
      <point x="620" y="280" type="line"/>
      <point x="901" y="280" type="line"/>
      <point x="911" y="375" type="line"/>
      <point x="630" y="375" type="line"/>
      <point x="649" y="555" type="line"/>
      <point x="870" y="555" type="line"/>
      <point x="878" y="454" type="line"/>
      <point x="970" y="462" type="line"/>
      <point x="970" y="650" type="line"/>
      <point x="550" y="650" type="line"/>
      <point x="546" y="616" type="line"/>
      <point x="505" y="643"/>
      <point x="457" y="660"/>
      <point x="392" y="660" type="curve" smooth="yes"/>
      <point x="184" y="660"/>
      <point x="33" y="502"/>
      <point x="33" y="299" type="curve" smooth="yes"/>
      <point x="33" y="131"/>
      <point x="139" y="-10"/>
      <point x="325" y="-10" type="curve" smooth="yes"/>
      <point x="390" y="-10"/>
      <point x="441" y="6"/>
      <point x="485" y="33" type="curve"/>
      <point x="482" y="0" type="line"/>
    </contour>
    <contour>
      <point x="342" y="88" type="curve" smooth="yes"/>
      <point x="209" y="88"/>
      <point x="150" y="188"/>
      <point x="150" y="305" type="curve" smooth="yes"/>
      <point x="150" y="442"/>
      <point x="229" y="562"/>
      <point x="386" y="562" type="curve" smooth="yes"/>
      <point x="448" y="562"/>
      <point x="497" y="543"/>
      <point x="534" y="502" type="curve"/>
      <point x="497" y="147" type="line"/>
      <point x="463" y="110"/>
      <point x="405" y="88"/>
    </contour>
  </outline>
</glyph>
<glyph name="oe" format="1">
  <advance width="759"/>
  <unicode hex="0153"/>
  <outline>
    <contour>
      <point x="22" y="192" type="curve" smooth="yes"/>
      <point x="22" y="330"/>
      <point x="99" y="458"/>
      <point x="260" y="458" type="curve" smooth="yes"/>
      <point x="332" y="458"/>
      <point x="381" y="432"/>
      <point x="412" y="390" type="curve"/>
      <point x="452" y="432"/>
      <point x="507" y="458"/>
      <point x="575" y="458" type="curve" smooth="yes"/>
      <point x="665" y="458"/>
      <point x="731" y="411"/>
      <point x="731" y="339" type="curve" smooth="yes"/>
      <point x="731" y="272"/>
      <point x="690" y="225"/>
      <point x="571" y="200" type="curve" smooth="yes"/>
      <point x="536" y="192"/>
      <point x="495" y="186"/>
      <point x="450" y="181" type="curve"/>
      <point x="453" y="112"/>
      <point x="476" y="72"/>
      <point x="540" y="72" type="curve" smooth="yes"/>
      <point x="605" y="72"/>
      <point x="627" y="117"/>
      <point x="639" y="152" type="curve"/>
      <point x="722" y="135" type="line"/>
      <point x="707" y="58"/>
      <point x="637" y="-10"/>
      <point x="524" y="-10" type="curve" smooth="yes"/>
      <point x="462" y="-10"/>
      <point x="409" y="10"/>
      <point x="376" y="54" type="curve"/>
      <point x="335" y="13"/>
      <point x="278" y="-10"/>
      <point x="210" y="-10" type="curve" smooth="yes"/>
      <point x="88" y="-10"/>
      <point x="22" y="66"/>
    </contour>
    <contour>
      <point x="133" y="200" type="curve" smooth="yes"/>
      <point x="133" y="123"/>
      <point x="152" y="72"/>
      <point x="220" y="72" type="curve" smooth="yes"/>
      <point x="292" y="72"/>
      <point x="327" y="127"/>
      <point x="338" y="200" type="curve"/>
      <point x="338" y="211"/>
      <point x="339" y="223"/>
      <point x="341" y="234" type="curve"/>
      <point x="341" y="248" type="line" smooth="yes"/>
      <point x="341" y="332"/>
      <point x="315" y="375"/>
      <point x="249" y="375" type="curve" smooth="yes"/>
      <point x="171" y="375"/>
      <point x="133" y="312"/>
    </contour>
    <contour>
      <point x="520" y="256" type="curve" smooth="yes"/>
      <point x="608" y="274"/>
      <point x="623" y="302"/>
      <point x="623" y="332" type="curve" smooth="yes"/>
      <point x="623" y="369"/>
      <point x="596" y="383"/>
      <point x="562" y="383" type="curve" smooth="yes"/>
      <point x="492" y="383"/>
      <point x="462" y="315"/>
      <point x="453" y="245" type="curve"/>
      <point x="479" y="248"/>
      <point x="502" y="253"/>
    </contour>
  </outline>
</glyph>
<glyph name="Racute" format="1">
  <advance width="608"/>
  <unicode hex="0154"/>
  <outline>
    <contour>
      <point x="20" y="95" type="line"/>
      <point x="92" y="95" type="line"/>
      <point x="140" y="555" type="line"/>
      <point x="68" y="555" type="line"/>
      <point x="78" y="650" type="line"/>
      <point x="354" y="650" type="line" smooth="yes"/>
      <point x="497" y="650"/>
      <point x="571" y="585"/>
      <point x="571" y="476" type="curve" smooth="yes"/>
      <point x="571" y="375"/>
      <point x="515" y="314"/>
      <point x="422" y="285" type="curve"/>
      <point x="501" y="95" type="line"/>
      <point x="578" y="95" type="line"/>
      <point x="568" y="0" type="line"/>
      <point x="421" y="0" type="line"/>
      <point x="320" y="257" type="line"/>
      <point x="216" y="257" type="line"/>
      <point x="199" y="95" type="line"/>
      <point x="273" y="95" type="line"/>
      <point x="263" y="0" type="line"/>
      <point x="10" y="0" type="line"/>
    </contour>
    <contour>
      <point x="307" y="346" type="line" smooth="yes"/>
      <point x="419" y="346"/>
      <point x="456" y="395"/>
      <point x="456" y="466" type="curve" smooth="yes"/>
      <point x="456" y="531"/>
      <point x="421" y="555"/>
      <point x="326" y="555" type="curve" smooth="yes"/>
      <point x="247" y="555" type="line"/>
      <point x="225" y="346" type="line"/>
    </contour>
    <contour>
      <point x="499" y="727" type="line"/>
      <point x="476" y="826" type="line"/>
      <point x="272" y="743" type="line"/>
      <point x="284" y="694" type="line"/>
    </contour>
  </outline>
</glyph>
<glyph name="Tbar" format="1">
  <advance width="618"/>
  <unicode hex="0166"/>
  <outline>
    <contour>
      <point x="616" y="438" type="line"/>
      <point x="619" y="650" type="line"/>
      <point x="77" y="650" type="line"/>
      <point x="37" y="438" type="line"/>
      <point x="129" y="430" type="line"/>
      <point x="161" y="555" type="line"/>
      <point x="285" y="555" type="line"/>
      <point x="262" y="338" type="line"/>
      <point x="126" y="338" type="line"/>
      <point x="119" y="272" type="line"/>
      <point x="255" y="272" type="line"/>
      <point x="237" y="95" type="line"/>
      <point x="135" y="95" type="line"/>
      <point x="125" y="0" type="line"/>
      <point x="440" y="0" type="line"/>
      <point x="450" y="95" type="line"/>
      <point x="343" y="95" type="line"/>
      <point x="361" y="272" type="line"/>
      <point x="490" y="272" type="line"/>
      <point x="497" y="338" type="line"/>
      <point x="368" y="338" type="line"/>
      <point x="391" y="555" type="line"/>
      <point x="515" y="555" type="line"/>
      <point x="522" y="430" type="line"/>
    </contour>
  </outline>
</glyph>
<glyph name="tbar" format="1">
  <advance width="357"/>
  <unicode hex="0167"/>
  <outline>
    <contour>
      <point x="29" y="422" type="line"/>
      <point x="58" y="449" type="line"/>
      <point x="97" y="449" type="line"/>
      <point x="110" y="554" type="line"/>
      <point x="143" y="588" type="line"/>
      <point x="217" y="588" type="line"/>
      <point x="200" y="449" type="line"/>
      <point x="341" y="449" type="line"/>
      <point x="333" y="394" type="line"/>
      <point x="304" y="366" type="line"/>
      <point x="190" y="366" type="line"/>
      <point x="180" y="286" type="line"/>
      <point x="326" y="286" type="line"/>
      <point x="319" y="252" type="line"/>
      <point x="290" y="224" type="line"/>
      <point x="173" y="224" type="line"/>
      <point x="163" y="143" type="line" smooth="yes"/>
      <point x="157" y="93"/>
      <point x="169" y="72"/>
      <point x="202" y="72" type="curve" smooth="yes"/>
      <point x="226" y="72"/>
      <point x="249" y="84"/>
      <point x="268" y="155" type="curve"/>
      <point x="341" y="130" type="line"/>
      <point x="316" y="33"/>
      <point x="274" y="-10"/>
      <point x="191" y="-10" type="curve" smooth="yes"/>
      <point x="100" y="-10"/>
      <point x="47" y="43"/>
      <point x="59" y="134" type="curve" smooth="yes"/>
      <point x="70" y="224" type="line"/>
      <point x="9" y="224" type="line"/>
      <point x="14" y="259" type="line"/>
      <point x="44" y="286" type="line"/>
      <point x="77" y="286" type="line"/>
      <point x="87" y="366" type="line"/>
      <point x="21" y="366" type="line"/>
    </contour>
  </outline>
</glyph>
<glyph name="Utilde" format="1">
  <advance width="692"/>
  <unicode hex="0168"/>
  <outline>
    <contour>
      <point x="464" y="650" type="line"/>
      <point x="702" y="650" type="line"/>
      <point x="692" y="555" type="line"/>
      <point x="633" y="555" type="line"/>
      <point x="603" y="268" type="line" smooth="yes"/>
      <point x="588" y="130"/>
      <point x="520" y="-10"/>
      <point x="322" y="-10" type="curve" smooth="yes"/>
      <point x="132" y="-10"/>
      <point x="72" y="117"/>
      <point x="87" y="257" type="curve" smooth="yes"/>
      <point x="118" y="555" type="line"/>
      <point x="59" y="555" type="line"/>
      <point x="69" y="650" type="line"/>
      <point x="313" y="650" type="line"/>
      <point x="303" y="555" type="line"/>
      <point x="225" y="555" type="line"/>
      <point x="194" y="260" type="line" smooth="yes"/>
      <point x="183" y="157"/>
      <point x="221" y="88"/>
      <point x="330" y="88" type="curve" smooth="yes"/>
      <point x="436" y="88"/>
      <point x="492" y="155"/>
      <point x="504" y="268" type="curve" smooth="yes"/>
      <point x="534" y="555" type="line"/>
      <point x="455" y="555" type="line"/>
    </contour>
    <contour>
      <point x="292" y="701" type="line"/>
      <point x="304" y="729"/>
      <point x="320" y="736"/>
      <point x="340" y="736" type="curve" smooth="yes"/>
      <point x="383" y="736"/>
      <point x="412" y="704"/>
      <point x="460" y="704" type="curve" smooth="yes"/>
      <point x="519" y="704"/>
      <point x="542" y="755"/>
      <point x="551" y="812" type="curve"/>
      <point x="506" y="822" type="line"/>
      <point x="493" y="790"/>
      <point x="474" y="782"/>
      <point x="455" y="782" type="curve" smooth="yes"/>
      <point x="417" y="782"/>
      <point x="388" y="815"/>
      <point x="344" y="815" type="curve" smooth="yes"/>
      <point x="285" y="815"/>
      <point x="255" y="751"/>
      <point x="251" y="716" type="curve"/>
    </contour>
  </outline>
</glyph>
<glyph name="utilde" format="1">
  <advance width="534"/>
  <unicode hex="0169"/>
  <outline>
    <contour>
      <point x="500" y="82" type="line"/>
      <point x="493" y="24" type="line"/>
      <point x="465" y="0" type="line"/>
      <point x="336" y="0" type="line"/>
      <point x="333" y="86" type="line"/>
      <point x="303" y="29"/>
      <point x="255" y="-9"/>
      <point x="187" y="-9" type="curve" smooth="yes"/>
      <point x="105" y="-9"/>
      <point x="43" y="41"/>
      <point x="57" y="152" type="curve" smooth="yes"/>
      <point x="83" y="366" type="line"/>
      <point x="18" y="366" type="line"/>
      <point x="26" y="427" type="line"/>
      <point x="52" y="449" type="line"/>
      <point x="195" y="449" type="line"/>
      <point x="163" y="191" type="line" smooth="yes"/>
      <point x="152" y="106"/>
      <point x="178" y="73"/>
      <point x="234" y="73" type="curve" smooth="yes"/>
      <point x="296" y="73"/>
      <point x="330" y="121"/>
      <point x="341" y="181" type="curve"/>
      <point x="374" y="449" type="line"/>
      <point x="476" y="449" type="line"/>
      <point x="432" y="82" type="line"/>
    </contour>
    <contour>
      <point x="192" y="528" type="line"/>
      <point x="204" y="558"/>
      <point x="222" y="571"/>
      <point x="243" y="571" type="curve" smooth="yes"/>
      <point x="280" y="571"/>
      <point x="310" y="531"/>
      <point x="360" y="531" type="curve" smooth="yes"/>
      <point x="418" y="531"/>
      <point x="442" y="590"/>
      <point x="451" y="647" type="curve"/>
      <point x="406" y="657" type="line"/>
      <point x="393" y="625"/>
      <point x="374" y="615"/>
      <point x="356" y="615" type="curve" smooth="yes"/>
      <point x="317" y="615"/>
      <point x="288" y="653"/>
      <point x="245" y="653" type="curve" smooth="yes"/>
      <point x="186" y="653"/>
      <point x="154" y="579"/>
      <point x="150" y="542" type="curve"/>
    </contour>
  </outline>
</glyph>
<glyph name="umacron" format="1">
  <advance width="534"/>
  <unicode hex="016B"/>
  <outline>
    <contour>
      <point x="500" y="82" type="line"/>
      <point x="493" y="24" type="line"/>
      <point x="465" y="0" type="line"/>
      <point x="336" y="0" type="line"/>
      <point x="333" y="86" type="line"/>
      <point x="303" y="29"/>
      <point x="255" y="-9"/>
      <point x="187" y="-9" type="curve" smooth="yes"/>
      <point x="105" y="-9"/>
      <point x="43" y="41"/>
      <point x="57" y="152" type="curve" smooth="yes"/>
      <point x="83" y="366" type="line"/>
      <point x="18" y="366" type="line"/>
      <point x="26" y="427" type="line"/>
      <point x="52" y="449" type="line"/>
      <point x="195" y="449" type="line"/>
      <point x="163" y="191" type="line" smooth="yes"/>
      <point x="152" y="106"/>
      <point x="178" y="73"/>
      <point x="234" y="73" type="curve" smooth="yes"/>
      <point x="296" y="73"/>
      <point x="330" y="121"/>
      <point x="341" y="181" type="curve"/>
      <point x="374" y="449" type="line"/>
      <point x="476" y="449" type="line"/>
      <point x="432" y="82" type="line"/>
    </contour>
    <contour>
      <point x="175" y="629" type="line"/>
      <point x="429" y="629" type="line"/>
      <point x="420" y="547" type="line"/>
      <point x="166" y="547" type="line"/>
    </contour>
  </outline>
</glyph>
<glyph name="Ubreve" format="1">
  <advance width="692"/>
  <unicode hex="016C"/>
  <outline>
    <contour>
      <point x="464" y="650" type="line"/>
      <point x="702" y="650" type="line"/>
      <point x="692" y="555" type="line"/>
      <point x="633" y="555" type="line"/>
      <point x="603" y="268" type="line" smooth="yes"/>
      <point x="588" y="130"/>
      <point x="520" y="-10"/>
      <point x="322" y="-10" type="curve" smooth="yes"/>
      <point x="132" y="-10"/>
      <point x="72" y="117"/>
      <point x="87" y="257" type="curve" smooth="yes"/>
      <point x="118" y="555" type="line"/>
      <point x="59" y="555" type="line"/>
      <point x="69" y="650" type="line"/>
      <point x="313" y="650" type="line"/>
      <point x="303" y="555" type="line"/>
      <point x="225" y="555" type="line"/>
      <point x="194" y="260" type="line" smooth="yes"/>
      <point x="183" y="157"/>
      <point x="221" y="88"/>
      <point x="330" y="88" type="curve" smooth="yes"/>
      <point x="436" y="88"/>
      <point x="492" y="155"/>
      <point x="504" y="268" type="curve" smooth="yes"/>
      <point x="534" y="555" type="line"/>
      <point x="455" y="555" type="line"/>
    </contour>
    <contour>
      <point x="453" y="827" type="curve"/>
      <point x="537" y="827" type="line"/>
      <point x="527" y="736"/>
      <point x="472" y="696"/>
      <point x="392" y="696" type="curve" smooth="yes"/>
      <point x="309" y="696"/>
      <point x="266" y="739"/>
      <point x="276" y="827" type="curve"/>
      <point x="360" y="827" type="line"/>
      <point x="355" y="784"/>
      <point x="368" y="762"/>
      <point x="399" y="762" type="curve" smooth="yes"/>
      <point x="432" y="762"/>
      <point x="448" y="788"/>
    </contour>
  </outline>
</glyph>
<glyph name="ubreve" format="1">
  <advance width="534"/>
  <unicode hex="016D"/>
  <outline>
    <contour>
      <point x="500" y="82" type="line"/>
      <point x="493" y="24" type="line"/>
      <point x="465" y="0" type="line"/>
      <point x="336" y="0" type="line"/>
      <point x="333" y="86" type="line"/>
      <point x="303" y="29"/>
      <point x="255" y="-9"/>
      <point x="187" y="-9" type="curve" smooth="yes"/>
      <point x="105" y="-9"/>
      <point x="43" y="41"/>
      <point x="57" y="152" type="curve" smooth="yes"/>
      <point x="83" y="366" type="line"/>
      <point x="18" y="366" type="line"/>
      <point x="26" y="427" type="line"/>
      <point x="52" y="449" type="line"/>
      <point x="195" y="449" type="line"/>
      <point x="163" y="191" type="line" smooth="yes"/>
      <point x="152" y="106"/>
      <point x="178" y="73"/>
      <point x="234" y="73" type="curve" smooth="yes"/>
      <point x="296" y="73"/>
      <point x="330" y="121"/>
      <point x="341" y="181" type="curve"/>
      <point x="374" y="449" type="line"/>
      <point x="476" y="449" type="line"/>
      <point x="432" y="82" type="line"/>
    </contour>
    <contour>
      <point x="344" y="654" type="curve"/>
      <point x="428" y="654" type="line"/>
      <point x="418" y="563"/>
      <point x="362" y="522"/>
      <point x="281" y="522" type="curve" smooth="yes"/>
      <point x="200" y="522"/>
      <point x="158" y="566"/>
      <point x="167" y="654" type="curve"/>
      <point x="251" y="654" type="line"/>
      <point x="247" y="611"/>
      <point x="259" y="588"/>
      <point x="290" y="588" type="curve" smooth="yes"/>
      <point x="323" y="588"/>
      <point x="339" y="615"/>
    </contour>
  </outline>
</glyph>
<glyph name="uring" format="1">
  <advance width="534"/>
  <unicode hex="016F"/>
  <outline>
    <contour>
      <point x="500" y="82" type="line"/>
      <point x="493" y="24" type="line"/>
      <point x="465" y="0" type="line"/>
      <point x="336" y="0" type="line"/>
      <point x="333" y="86" type="line"/>
      <point x="303" y="29"/>
      <point x="255" y="-9"/>
      <point x="187" y="-9" type="curve" smooth="yes"/>
      <point x="105" y="-9"/>
      <point x="43" y="41"/>
      <point x="57" y="152" type="curve" smooth="yes"/>
      <point x="83" y="366" type="line"/>
      <point x="18" y="366" type="line"/>
      <point x="26" y="427" type="line"/>
      <point x="52" y="449" type="line"/>
      <point x="195" y="449" type="line"/>
      <point x="163" y="191" type="line" smooth="yes"/>
      <point x="152" y="106"/>
      <point x="178" y="73"/>
      <point x="234" y="73" type="curve" smooth="yes"/>
      <point x="296" y="73"/>
      <point x="330" y="121"/>
      <point x="341" y="181" type="curve"/>
      <point x="374" y="449" type="line"/>
      <point x="476" y="449" type="line"/>
      <point x="432" y="82" type="line"/>
    </contour>
    <contour>
      <point x="288" y="514" type="curve" smooth="yes"/>
      <point x="363" y="514"/>
      <point x="400" y="561"/>
      <point x="400" y="617" type="curve" smooth="yes"/>
      <point x="400" y="666"/>
      <point x="371" y="698"/>
      <point x="309" y="698" type="curve" smooth="yes"/>
      <point x="236" y="698"/>
      <point x="197" y="655"/>
      <point x="197" y="596" type="curve" smooth="yes"/>
      <point x="197" y="545"/>
      <point x="227" y="514"/>
    </contour>
    <contour>
      <point x="293" y="566" type="curve" smooth="yes"/>
      <point x="271" y="566"/>
      <point x="265" y="578"/>
      <point x="265" y="599" type="curve" smooth="yes"/>
      <point x="265" y="629"/>
      <point x="277" y="646"/>
      <point x="303" y="646" type="curve" smooth="yes"/>
      <point x="327" y="646"/>
      <point x="333" y="631"/>
      <point x="333" y="613" type="curve" smooth="yes"/>
      <point x="333" y="582"/>
      <point x="318" y="566"/>
    </contour>
  </outline>
</glyph>
<glyph name="uogonek" format="1">
  <advance width="536"/>
  <unicode hex="0173"/>
  <outline>
    <contour>
      <point x="337" y="0" type="line"/>
      <point x="334" y="86" type="line"/>
      <point x="304" y="29"/>
      <point x="256" y="-9"/>
      <point x="188" y="-9" type="curve" smooth="yes"/>
      <point x="106" y="-9"/>
      <point x="44" y="41"/>
      <point x="58" y="152" type="curve" smooth="yes"/>
      <point x="84" y="366" type="line"/>
      <point x="19" y="366" type="line"/>
      <point x="27" y="427" type="line"/>
      <point x="53" y="449" type="line"/>
      <point x="196" y="449" type="line"/>
      <point x="164" y="191" type="line" smooth="yes"/>
      <point x="153" y="106"/>
      <point x="179" y="73"/>
      <point x="235" y="73" type="curve" smooth="yes"/>
      <point x="297" y="73"/>
      <point x="331" y="121"/>
      <point x="342" y="181" type="curve"/>
      <point x="375" y="449" type="line"/>
      <point x="477" y="449" type="line"/>
      <point x="432" y="82" type="line"/>
      <point x="501" y="82" type="line"/>
      <point x="494" y="24" type="line"/>
      <point x="466" y="0" type="line"/>
      <point x="435" y="0" type="line"/>
      <point x="385" y="-31"/>
      <point x="376" y="-66"/>
      <point x="376" y="-88" type="curve" smooth="yes"/>
      <point x="376" y="-123"/>
      <point x="393" y="-132"/>
      <point x="419" y="-132" type="curve" smooth="yes"/>
      <point x="435" y="-132"/>
      <point x="453" y="-128"/>
      <point x="469" y="-119" type="curve"/>
      <point x="470" y="-188" type="line"/>
      <point x="447" y="-200"/>
      <point x="418" y="-208"/>
      <point x="384" y="-208" type="curve" smooth="yes"/>
      <point x="325" y="-208"/>
      <point x="282" y="-182"/>
      <point x="282" y="-125" type="curve" smooth="yes"/>
      <point x="282" y="-72"/>
      <point x="320" y="-27"/>
      <point x="366" y="0" type="curve"/>
    </contour>
  </outline>
</glyph>
<glyph name="Wcircumflex" format="1">
  <advance width="934"/>
  <unicode hex="0174"/>
  <outline>
    <contour>
      <point x="954" y="555" type="line"/>
      <point x="902" y="555" type="line"/>
      <point x="673" y="0" type="line"/>
      <point x="595" y="0" type="line"/>
      <point x="489" y="458" type="line"/>
      <point x="485" y="458" type="line"/>
      <point x="288" y="0" type="line"/>
      <point x="208" y="0" type="line"/>
      <point x="85" y="555" type="line"/>
      <point x="32" y="555" type="line"/>
      <point x="41" y="650" type="line"/>
      <point x="278" y="650" type="line"/>
      <point x="268" y="555" type="line"/>
      <point x="198" y="555" type="line"/>
      <point x="268" y="183" type="line"/>
      <point x="274" y="183" type="line"/>
      <point x="438" y="555" type="line"/>
      <point x="382" y="555" type="line"/>
      <point x="392" y="650" type="line"/>
      <point x="630" y="650" type="line"/>
      <point x="619" y="555" type="line"/>
      <point x="567" y="555" type="line"/>
      <point x="652" y="178" type="line"/>
      <point x="658" y="178" type="line"/>
      <point x="794" y="555" type="line"/>
      <point x="719" y="555" type="line"/>
      <point x="729" y="650" type="line"/>
      <point x="963" y="650" type="line"/>
    </contour>
    <contour>
      <point x="548" y="837" type="line"/>
      <point x="512" y="837" type="line"/>
      <point x="371" y="736" type="line"/>
      <point x="393" y="691" type="line"/>
      <point x="518" y="752" type="line"/>
      <point x="638" y="691" type="line"/>
      <point x="666" y="737" type="line"/>
    </contour>
  </outline>
</glyph>
<glyph name="wcircumflex" format="1">
  <advance width="727"/>
  <unicode hex="0175"/>
  <outline>
    <contour>
      <point x="503" y="123" type="line"/>
      <point x="508" y="123" type="line"/>
      <point x="577" y="213"/>
      <point x="604" y="278"/>
      <point x="604" y="354" type="curve" smooth="yes"/>
      <point x="604" y="387"/>
      <point x="599" y="416"/>
      <point x="586" y="449" type="curve"/>
      <point x="702" y="449" type="line"/>
      <point x="718" y="364"/>
      <point x="704" y="276"/>
      <point x="639" y="183" type="curve" smooth="yes"/>
      <point x="606" y="135"/>
      <point x="539" y="54"/>
      <point x="483" y="0" type="curve"/>
      <point x="437" y="0" type="line"/>
      <point x="368" y="288" type="line"/>
      <point x="363" y="288" type="line"/>
      <point x="212" y="0" type="line"/>
      <point x="156" y="0" type="line"/>
      <point x="58" y="366" type="line"/>
      <point x="11" y="366" type="line"/>
      <point x="19" y="425" type="line"/>
      <point x="46" y="449" type="line"/>
      <point x="244" y="449" type="line"/>
      <point x="237" y="390" type="line"/>
      <point x="209" y="366" type="line"/>
      <point x="165" y="366" type="line"/>
      <point x="211" y="150" type="line"/>
      <point x="216" y="150" type="line"/>
      <point x="365" y="449" type="line"/>
      <point x="428" y="449" type="line"/>
    </contour>
    <contour>
      <point x="426" y="679" type="line"/>
      <point x="391" y="679" type="line"/>
      <point x="249" y="553" type="line"/>
      <point x="278" y="512" type="line"/>
      <point x="396" y="588" type="line"/>
      <point x="507" y="512" type="line"/>
      <point x="542" y="553" type="line"/>
    </contour>
  </outline>
</glyph>
<glyph name="Ycircumflex" format="1">
  <advance width="612"/>
  <unicode hex="0176"/>
  <outline>
    <contour>
      <point x="635" y="555" type="line"/>
      <point x="579" y="555" type="line"/>
      <point x="359" y="253" type="line"/>
      <point x="343" y="95" type="line"/>
      <point x="447" y="95" type="line"/>
      <point x="437" y="0" type="line"/>
      <point x="125" y="0" type="line"/>
      <point x="135" y="95" type="line"/>
      <point x="236" y="95" type="line"/>
      <point x="252" y="253" type="line"/>
      <point x="90" y="555" type="line"/>
      <point x="32" y="555" type="line"/>
      <point x="42" y="650" type="line"/>
      <point x="289" y="650" type="line"/>
      <point x="279" y="555" type="line"/>
      <point x="214" y="555" type="line"/>
      <point x="319" y="351" type="line"/>
      <point x="324" y="351" type="line"/>
      <point x="468" y="555" type="line"/>
      <point x="398" y="555" type="line"/>
      <point x="408" y="650" type="line"/>
      <point x="644" y="650" type="line"/>
    </contour>
    <contour>
      <point x="386" y="837" type="line"/>
      <point x="350" y="837" type="line"/>
      <point x="209" y="736" type="line"/>
      <point x="231" y="691" type="line"/>
      <point x="356" y="752" type="line"/>
      <point x="476" y="691" type="line"/>
      <point x="504" y="737" type="line"/>
    </contour>
  </outline>
</glyph>
<glyph name="ycircumflex" format="1">
  <advance width="476"/>
  <unicode hex="0177"/>
  <outline>
    <contour>
      <point x="246" y="123" type="line"/>
      <point x="252" y="123" type="line"/>
      <point x="323" y="212"/>
      <point x="355" y="278"/>
      <point x="355" y="356" type="curve" smooth="yes"/>
      <point x="355" y="384"/>
      <point x="350" y="416"/>
      <point x="336" y="449" type="curve"/>
      <point x="453" y="449" type="line"/>
      <point x="469" y="370"/>
      <point x="459" y="283"/>
      <point x="391" y="188" type="curve" smooth="yes"/>
      <point x="364" y="150"/>
      <point x="315" y="91"/>
      <point x="267" y="40" type="curve"/>
      <point x="242" y="-131" type="line"/>
      <point x="311" y="-131" type="line"/>
      <point x="303" y="-189" type="line"/>
      <point x="276" y="-213" type="line"/>
      <point x="56" y="-213" type="line"/>
      <point x="64" y="-155" type="line"/>
      <point x="91" y="-131" type="line"/>
      <point x="139" y="-131" type="line"/>
      <point x="165" y="43" type="line"/>
      <point x="61" y="366" type="line"/>
      <point x="10" y="366" type="line"/>
      <point x="18" y="425" type="line"/>
      <point x="45" y="449" type="line"/>
      <point x="246" y="449" type="line"/>
      <point x="239" y="390" type="line"/>
      <point x="211" y="366" type="line"/>
      <point x="171" y="366" type="line"/>
    </contour>
    <contour>
      <point x="308" y="679" type="line"/>
      <point x="273" y="679" type="line"/>
      <point x="131" y="553" type="line"/>
      <point x="160" y="512" type="line"/>
      <point x="278" y="588" type="line"/>
      <point x="389" y="512" type="line"/>
      <point x="424" y="553" type="line"/>
    </contour>
  </outline>
</glyph>
<glyph name="Ydieresis" format="1">
  <advance width="612"/>
  <unicode hex="0178"/>
  <outline>
    <contour>
      <point x="635" y="555" type="line"/>
      <point x="579" y="555" type="line"/>
      <point x="359" y="253" type="line"/>
      <point x="343" y="95" type="line"/>
      <point x="447" y="95" type="line"/>
      <point x="437" y="0" type="line"/>
      <point x="125" y="0" type="line"/>
      <point x="135" y="95" type="line"/>
      <point x="236" y="95" type="line"/>
      <point x="252" y="253" type="line"/>
      <point x="90" y="555" type="line"/>
      <point x="32" y="555" type="line"/>
      <point x="42" y="650" type="line"/>
      <point x="289" y="650" type="line"/>
      <point x="279" y="555" type="line"/>
      <point x="214" y="555" type="line"/>
      <point x="319" y="351" type="line"/>
      <point x="324" y="351" type="line"/>
      <point x="468" y="555" type="line"/>
      <point x="398" y="555" type="line"/>
      <point x="408" y="650" type="line"/>
      <point x="644" y="650" type="line"/>
    </contour>
    <contour>
      <point x="385" y="710" type="line"/>
      <point x="494" y="710" type="line"/>
      <point x="506" y="825" type="line"/>
      <point x="397" y="825" type="line"/>
    </contour>
    <contour>
      <point x="209" y="710" type="line"/>
      <point x="318" y="710" type="line"/>
      <point x="329" y="825" type="line"/>
      <point x="221" y="825" type="line"/>
    </contour>
  </outline>
</glyph>
<glyph name="Zacute" format="1">
  <advance width="565"/>
  <unicode hex="0179"/>
  <outline>
    <contour>
      <point x="495" y="0" type="line"/>
      <point x="540" y="212" type="line"/>
      <point x="448" y="222" type="line"/>
      <point x="412" y="95" type="line"/>
      <point x="160" y="95" type="line"/>
      <point x="161" y="97" type="line"/>
      <point x="553" y="597" type="line"/>
      <point x="551" y="650" type="line"/>
      <point x="99" y="650" type="line"/>
      <point x="56" y="451" type="line"/>
      <point x="148" y="442" type="line"/>
      <point x="181" y="555" type="line"/>
      <point x="392" y="555" type="line"/>
      <point x="392" y="553" type="line"/>
      <point x="1" y="59" type="line"/>
      <point x="2" y="0" type="line"/>
    </contour>
    <contour>
      <point x="493" y="727" type="line"/>
      <point x="470" y="826" type="line"/>
      <point x="266" y="743" type="line"/>
      <point x="278" y="694" type="line"/>
    </contour>
  </outline>
</glyph>
<glyph name="zacute" format="1">
  <advance width="450"/>
  <unicode hex="017A"/>
  <outline>
    <contour>
      <point x="413" y="609" type="line"/>
      <point x="363" y="693" type="line"/>
      <point x="193" y="555" type="line"/>
      <point x="218" y="512" type="line"/>
    </contour>
    <contour>
      <point x="382" y="0" type="line"/>
      <point x="424" y="150" type="line"/>
      <point x="342" y="160" type="line"/>
      <point x="312" y="82" type="line"/>
      <point x="139" y="82" type="line"/>
      <point x="426" y="390" type="line"/>
      <point x="412" y="449" type="line"/>
      <point x="64" y="449" type="line"/>
      <point x="34" y="298" type="line"/>
      <point x="111" y="289" type="line"/>
      <point x="136" y="366" type="line"/>
      <point x="291" y="366" type="line"/>
      <point x="1" y="58" type="line"/>
      <point x="10" y="0" type="line"/>
    </contour>
  </outline>
</glyph>
<glyph name="Zdotaccent" format="1">
  <advance width="565"/>
  <unicode hex="017B"/>
  <outline>
    <contour>
      <point x="274" y="710" type="line"/>
      <point x="383" y="710" type="line"/>
      <point x="395" y="825" type="line"/>
      <point x="286" y="825" type="line"/>
    </contour>
    <contour>
      <point x="495" y="0" type="line"/>
      <point x="540" y="212" type="line"/>
      <point x="448" y="222" type="line"/>
      <point x="412" y="95" type="line"/>
      <point x="160" y="95" type="line"/>
      <point x="161" y="97" type="line"/>
      <point x="553" y="597" type="line"/>
      <point x="551" y="650" type="line"/>
      <point x="99" y="650" type="line"/>
      <point x="56" y="451" type="line"/>
      <point x="148" y="442" type="line"/>
      <point x="181" y="555" type="line"/>
      <point x="392" y="555" type="line"/>
      <point x="392" y="553" type="line"/>
      <point x="1" y="59" type="line"/>
      <point x="2" y="0" type="line"/>
    </contour>
  </outline>
</glyph>
<glyph name="zdotaccent" format="1">
  <advance width="450"/>
  <unicode hex="017C"/>
  <outline>
    <contour>
      <point x="382" y="0" type="line"/>
      <point x="424" y="150" type="line"/>
      <point x="342" y="160" type="line"/>
      <point x="312" y="82" type="line"/>
      <point x="139" y="82" type="line"/>
      <point x="426" y="390" type="line"/>
      <point x="412" y="449" type="line"/>
      <point x="64" y="449" type="line"/>
      <point x="34" y="298" type="line"/>
      <point x="111" y="289" type="line"/>
      <point x="136" y="366" type="line"/>
      <point x="291" y="366" type="line"/>
      <point x="1" y="58" type="line"/>
      <point x="10" y="0" type="line"/>
    </contour>
    <contour>
      <point x="204" y="539" type="line"/>
      <point x="311" y="539" type="line"/>
      <point x="323" y="657" type="line"/>
      <point x="216" y="657" type="line"/>
    </contour>
  </outline>
</glyph>
<glyph name="uni018F" format="1">
  <advance width="673"/>
  <unicode hex="018F"/>
  <outline>
    <contour>
      <point x="152" y="436" type="line"/>
      <point x="176" y="526" type="line"/>
      <point x="227" y="548"/>
      <point x="283" y="560"/>
      <point x="334" y="560" type="curve" smooth="yes"/>
      <point x="451" y="560"/>
      <point x="528" y="495"/>
      <point x="531" y="360" type="curve"/>
      <point x="43" y="360" type="line"/>
      <point x="34" y="275" type="line" smooth="yes"/>
      <point x="18" y="94"/>
      <point x="125" y="-10"/>
      <point x="300" y="-10" type="curve" smooth="yes"/>
      <point x="532" y="-10"/>
      <point x="650" y="172"/>
      <point x="650" y="364" type="curve" smooth="yes"/>
      <point x="650" y="522"/>
      <point x="560" y="660"/>
      <point x="343" y="660" type="curve" smooth="yes"/>
      <point x="252" y="660"/>
      <point x="176" y="636"/>
      <point x="103" y="604" type="curve"/>
      <point x="69" y="446" type="line"/>
    </contour>
    <contour>
      <point x="526" y="280" type="line"/>
      <point x="510" y="179"/>
      <point x="454" y="88"/>
      <point x="316" y="88" type="curve" smooth="yes"/>
      <point x="159" y="88"/>
      <point x="144" y="204"/>
      <point x="152" y="276" type="curve" smooth="yes"/>
      <point x="152" y="280" type="line"/>
    </contour>
  </outline>
</glyph>
<glyph name="uni01C4" format="1">
  <advance width="1243"/>
  <unicode hex="01C4"/>
  <outline>
    <contour>
      <point x="363" y="650" type="line" smooth="yes"/>
      <point x="557" y="650"/>
      <point x="654" y="537"/>
      <point x="654" y="362" type="curve" smooth="yes"/>
      <point x="654" y="153"/>
      <point x="516" y="0"/>
      <point x="301" y="0" type="curve" smooth="yes"/>
      <point x="10" y="0" type="line"/>
      <point x="20" y="95" type="line"/>
      <point x="93" y="95" type="line"/>
      <point x="141" y="555" type="line"/>
      <point x="68" y="555" type="line"/>
      <point x="78" y="650" type="line"/>
    </contour>
    <contour>
      <point x="1173" y="0" type="line"/>
      <point x="1218" y="212" type="line"/>
      <point x="1126" y="222" type="line"/>
      <point x="1090" y="95" type="line"/>
      <point x="838" y="95" type="line"/>
      <point x="839" y="97" type="line"/>
      <point x="1231" y="597" type="line"/>
      <point x="1229" y="650" type="line"/>
      <point x="777" y="650" type="line"/>
      <point x="734" y="451" type="line"/>
      <point x="826" y="442" type="line"/>
      <point x="859" y="555" type="line"/>
      <point x="1070" y="555" type="line"/>
      <point x="1070" y="553" type="line"/>
      <point x="679" y="59" type="line"/>
      <point x="680" y="0" type="line"/>
    </contour>
    <contour>
      <point x="303" y="95" type="line" smooth="yes"/>
      <point x="453" y="95"/>
      <point x="540" y="191"/>
      <point x="540" y="352" type="curve" smooth="yes"/>
      <point x="540" y="485"/>
      <point x="478" y="555"/>
      <point x="351" y="555" type="curve" smooth="yes"/>
      <point x="246" y="555" type="line"/>
      <point x="198" y="95" type="line"/>
    </contour>
    <contour>
      <point x="979" y="691" type="line"/>
      <point x="1015" y="691" type="line"/>
      <point x="1155" y="791" type="line"/>
      <point x="1134" y="837" type="line"/>
      <point x="1008" y="774" type="line"/>
      <point x="888" y="836" type="line"/>
      <point x="860" y="791" type="line"/>
    </contour>
  </outline>
</glyph>
<glyph name="uni01C7" format="1">
  <advance width="988"/>
  <unicode hex="01C7"/>
  <outline>
    <contour>
      <point x="477" y="0" type="line"/>
      <point x="519" y="222" type="line"/>
      <point x="429" y="230" type="line"/>
      <point x="396" y="95" type="line"/>
      <point x="199" y="95" type="line"/>
      <point x="247" y="555" type="line"/>
      <point x="344" y="555" type="line"/>
      <point x="354" y="650" type="line"/>
      <point x="77" y="650" type="line"/>
      <point x="67" y="555" type="line"/>
      <point x="140" y="555" type="line"/>
      <point x="92" y="95" type="line"/>
      <point x="19" y="95" type="line"/>
      <point x="9" y="0" type="line"/>
    </contour>
    <contour>
      <point x="711" y="650" type="line"/>
      <point x="996" y="650" type="line"/>
      <point x="986" y="555" type="line"/>
      <point x="924" y="555" type="line"/>
      <point x="884" y="178" type="line" smooth="yes"/>
      <point x="871" y="52"/>
      <point x="794" y="-10"/>
      <point x="685" y="-10" type="curve" smooth="yes"/>
      <point x="587" y="-10"/>
      <point x="542" y="41"/>
      <point x="522" y="104" type="curve"/>
      <point x="603" y="163" type="line"/>
      <point x="621" y="106"/>
      <point x="651" y="93"/>
      <point x="686" y="93" type="curve" smooth="yes"/>
      <point x="744" y="93"/>
      <point x="772" y="128"/>
      <point x="777" y="177" type="curve" smooth="yes"/>
      <point x="817" y="555" type="line"/>
      <point x="701" y="555" type="line"/>
    </contour>
  </outline>
</glyph>
<glyph name="uni01CA" format="1">
  <advance width="1172"/>
  <unicode hex="01CA"/>
  <outline>
    <contour>
      <point x="24" y="95" type="line"/>
      <point x="94" y="95" type="line"/>
      <point x="142" y="555" type="line"/>
      <point x="62" y="555" type="line"/>
      <point x="72" y="650" type="line"/>
      <point x="228" y="650" type="line"/>
      <point x="516" y="220" type="line"/>
      <point x="519" y="220" type="line"/>
      <point x="554" y="555" type="line"/>
      <point x="462" y="555" type="line"/>
      <point x="472" y="650" type="line"/>
      <point x="736" y="650" type="line"/>
      <point x="726" y="555" type="line"/>
      <point x="654" y="555" type="line"/>
      <point x="596" y="0" type="line"/>
      <point x="534" y="-1" type="line"/>
      <point x="234" y="450" type="line"/>
      <point x="231" y="450" type="line"/>
      <point x="194" y="95" type="line"/>
      <point x="286" y="95" type="line"/>
      <point x="276" y="0" type="line"/>
      <point x="14" y="0" type="line"/>
    </contour>
    <contour>
      <point x="895" y="650" type="line"/>
      <point x="1180" y="650" type="line"/>
      <point x="1170" y="555" type="line"/>
      <point x="1108" y="555" type="line"/>
      <point x="1068" y="178" type="line" smooth="yes"/>
      <point x="1055" y="52"/>
      <point x="978" y="-10"/>
      <point x="869" y="-10" type="curve" smooth="yes"/>
      <point x="771" y="-10"/>
      <point x="726" y="41"/>
      <point x="706" y="104" type="curve"/>
      <point x="787" y="163" type="line"/>
      <point x="805" y="106"/>
      <point x="835" y="93"/>
      <point x="870" y="93" type="curve" smooth="yes"/>
      <point x="928" y="93"/>
      <point x="956" y="128"/>
      <point x="961" y="177" type="curve" smooth="yes"/>
      <point x="1001" y="555" type="line"/>
      <point x="885" y="555" type="line"/>
    </contour>
  </outline>
</glyph>
<glyph name="uni01CB" format="1">
  <advance width="976"/>
  <unicode hex="01CB"/>
  <outline>
    <contour>
      <point x="24" y="95" type="line"/>
      <point x="94" y="95" type="line"/>
      <point x="142" y="555" type="line"/>
      <point x="62" y="555" type="line"/>
      <point x="72" y="650" type="line"/>
      <point x="228" y="650" type="line"/>
      <point x="516" y="220" type="line"/>
      <point x="519" y="220" type="line"/>
      <point x="554" y="555" type="line"/>
      <point x="462" y="555" type="line"/>
      <point x="472" y="650" type="line"/>
      <point x="736" y="650" type="line"/>
      <point x="726" y="555" type="line"/>
      <point x="654" y="555" type="line"/>
      <point x="596" y="0" type="line"/>
      <point x="534" y="-1" type="line"/>
      <point x="234" y="450" type="line"/>
      <point x="231" y="450" type="line"/>
      <point x="194" y="95" type="line"/>
      <point x="286" y="95" type="line"/>
      <point x="276" y="0" type="line"/>
      <point x="14" y="0" type="line"/>
    </contour>
    <contour>
      <point x="749" y="425" type="line"/>
      <point x="776" y="449" type="line"/>
      <point x="937" y="449" type="line"/>
      <point x="882" y="3" type="line" smooth="yes"/>
      <point x="865" y="-130"/>
      <point x="819" y="-221"/>
      <point x="732" y="-222" type="curve" smooth="yes"/>
      <point x="696" y="-223"/>
      <point x="665" y="-212"/>
      <point x="640" y="-197" type="curve"/>
      <point x="644" y="-126" type="line"/>
      <point x="712" y="-153"/>
      <point x="762" y="-141"/>
      <point x="780" y="3" type="curve" smooth="yes"/>
      <point x="825" y="366" type="line"/>
      <point x="741" y="366" type="line"/>
    </contour>
    <contour>
      <point x="842" y="542" type="line"/>
      <point x="945" y="542" type="line"/>
      <point x="957" y="660" type="line"/>
      <point x="854" y="660" type="line"/>
    </contour>
  </outline>
</glyph>
<glyph name="uni01CC" format="1">
  <advance width="784"/>
  <unicode hex="01CC"/>
  <outline>
    <contour>
      <point x="59" y="449" type="line"/>
      <point x="188" y="449" type="line"/>
      <point x="191" y="362" type="line"/>
      <point x="222" y="420"/>
      <point x="269" y="458"/>
      <point x="338" y="458" type="curve" smooth="yes"/>
      <point x="420" y="458"/>
      <point x="482" y="408"/>
      <point x="468" y="297" type="curve" smooth="yes"/>
      <point x="442" y="82" type="line"/>
      <point x="507" y="82" type="line"/>
      <point x="499" y="22" type="line"/>
      <point x="472" y="0" type="line"/>
      <point x="330" y="0" type="line"/>
      <point x="362" y="258" type="line" smooth="yes"/>
      <point x="372" y="343"/>
      <point x="346" y="375"/>
      <point x="291" y="375" type="curve" smooth="yes"/>
      <point x="225" y="375"/>
      <point x="190" y="322"/>
      <point x="182" y="257" type="curve"/>
      <point x="182" y="258" type="line"/>
      <point x="150" y="0" type="line"/>
      <point x="48" y="0" type="line"/>
      <point x="93" y="366" type="line"/>
      <point x="24" y="366" type="line"/>
      <point x="31" y="425" type="line"/>
    </contour>
    <contour>
      <point x="558" y="425" type="line"/>
      <point x="585" y="449" type="line"/>
      <point x="746" y="449" type="line"/>
      <point x="691" y="3" type="line" smooth="yes"/>
      <point x="674" y="-130"/>
      <point x="628" y="-221"/>
      <point x="541" y="-222" type="curve" smooth="yes"/>
      <point x="505" y="-223"/>
      <point x="474" y="-212"/>
      <point x="449" y="-197" type="curve"/>
      <point x="453" y="-126" type="line"/>
      <point x="521" y="-153"/>
      <point x="571" y="-141"/>
      <point x="589" y="3" type="curve" smooth="yes"/>
      <point x="634" y="366" type="line"/>
      <point x="550" y="366" type="line"/>
    </contour>
    <contour>
      <point x="651" y="542" type="line"/>
      <point x="754" y="542" type="line"/>
      <point x="766" y="660" type="line"/>
      <point x="663" y="660" type="line"/>
    </contour>
  </outline>
</glyph>
<glyph name="uni01F2" format="1">
  <advance width="1127"/>
  <unicode hex="01F2"/>
  <outline>
    <contour>
      <point x="10" y="0" type="line"/>
      <point x="20" y="95" type="line"/>
      <point x="93" y="95" type="line"/>
      <point x="141" y="555" type="line"/>
      <point x="68" y="555" type="line"/>
      <point x="78" y="650" type="line"/>
      <point x="363" y="650" type="line" smooth="yes"/>
      <point x="557" y="650"/>
      <point x="654" y="537"/>
      <point x="654" y="362" type="curve" smooth="yes"/>
      <point x="654" y="153"/>
      <point x="516" y="0"/>
      <point x="301" y="0" type="curve" smooth="yes"/>
    </contour>
    <contour>
      <point x="303" y="95" type="line" smooth="yes"/>
      <point x="453" y="95"/>
      <point x="540" y="191"/>
      <point x="540" y="352" type="curve" smooth="yes"/>
      <point x="540" y="485"/>
      <point x="478" y="555"/>
      <point x="351" y="555" type="curve" smooth="yes"/>
      <point x="246" y="555" type="line"/>
      <point x="198" y="95" type="line"/>
    </contour>
    <contour>
      <point x="1060" y="0" type="line"/>
      <point x="1102" y="150" type="line"/>
      <point x="1020" y="160" type="line"/>
      <point x="990" y="82" type="line"/>
      <point x="817" y="82" type="line"/>
      <point x="1104" y="390" type="line"/>
      <point x="1090" y="449" type="line"/>
      <point x="742" y="449" type="line"/>
      <point x="712" y="298" type="line"/>
      <point x="789" y="289" type="line"/>
      <point x="814" y="366" type="line"/>
      <point x="969" y="366" type="line"/>
      <point x="679" y="58" type="line"/>
      <point x="688" y="0" type="line"/>
    </contour>
  </outline>
</glyph>
<glyph name="uni01F3" format="1">
  <advance width="967"/>
  <unicode hex="01F3"/>
  <outline>
    <contour>
      <point x="300" y="664" type="line"/>
      <point x="327" y="688" type="line"/>
      <point x="496" y="688" type="line"/>
      <point x="422" y="82" type="line"/>
      <point x="486" y="82" type="line"/>
      <point x="479" y="22" type="line"/>
      <point x="452" y="0" type="line"/>
      <point x="325" y="0" type="line"/>
      <point x="325" y="97" type="line"/>
      <point x="294" y="40"/>
      <point x="243" y="-10"/>
      <point x="166" y="-10" type="curve" smooth="yes"/>
      <point x="68" y="-10"/>
      <point x="20" y="72"/>
      <point x="20" y="178" type="curve" smooth="yes"/>
      <point x="20" y="301"/>
      <point x="84" y="458"/>
      <point x="232" y="458" type="curve" smooth="yes"/>
      <point x="292" y="458"/>
      <point x="335" y="432"/>
      <point x="356" y="389" type="curve"/>
      <point x="383" y="606" type="line"/>
      <point x="293" y="606" type="line"/>
    </contour>
    <contour>
      <point x="900" y="0" type="line"/>
      <point x="942" y="150" type="line"/>
      <point x="860" y="160" type="line"/>
      <point x="830" y="82" type="line"/>
      <point x="657" y="82" type="line"/>
      <point x="944" y="390" type="line"/>
      <point x="930" y="449" type="line"/>
      <point x="582" y="449" type="line"/>
      <point x="552" y="298" type="line"/>
      <point x="629" y="289" type="line"/>
      <point x="654" y="366" type="line"/>
      <point x="809" y="366" type="line"/>
      <point x="519" y="58" type="line"/>
      <point x="528" y="0" type="line"/>
    </contour>
    <contour>
      <point x="248" y="375" type="curve" smooth="yes"/>
      <point x="166" y="375"/>
      <point x="131" y="282"/>
      <point x="131" y="191" type="curve" smooth="yes"/>
      <point x="131" y="118"/>
      <point x="154" y="72"/>
      <point x="206" y="72" type="curve" smooth="yes"/>
      <point x="269" y="72"/>
      <point x="321" y="142"/>
      <point x="333" y="203" type="curve"/>
      <point x="341" y="268" type="line"/>
      <point x="342" y="334"/>
      <point x="299" y="375"/>
    </contour>
  </outline>
</glyph>
<glyph name="aeacute" format="1">
  <advance width="709"/>
  <unicode hex="01FD"/>
  <outline>
    <contour>
      <point x="227" y="382" type="curve" smooth="yes"/>
      <point x="300" y="382"/>
      <point x="302" y="328"/>
      <point x="296" y="275" type="curve" smooth="yes"/>
      <point x="294" y="253" type="line"/>
      <point x="293" y="250" type="line"/>
      <point x="271" y="251"/>
      <point x="245" y="253"/>
      <point x="224" y="253" type="curve" smooth="yes"/>
      <point x="117" y="253"/>
      <point x="15" y="216"/>
      <point x="15" y="109" type="curve" smooth="yes"/>
      <point x="15" y="22"/>
      <point x="84" y="-10"/>
      <point x="151" y="-10" type="curve" smooth="yes"/>
      <point x="229" y="-10"/>
      <point x="280" y="32"/>
      <point x="310" y="79" type="curve"/>
      <point x="341" y="18"/>
      <point x="400" y="-10"/>
      <point x="473" y="-10" type="curve" smooth="yes"/>
      <point x="586" y="-10"/>
      <point x="656" y="58"/>
      <point x="672" y="135" type="curve"/>
      <point x="588" y="152" type="line"/>
      <point x="576" y="117"/>
      <point x="555" y="72"/>
      <point x="489" y="72" type="curve" smooth="yes"/>
      <point x="425" y="72"/>
      <point x="402" y="112"/>
      <point x="399" y="181" type="curve"/>
      <point x="446" y="186"/>
      <point x="489" y="193"/>
      <point x="521" y="200" type="curve" smooth="yes"/>
      <point x="638" y="225"/>
      <point x="681" y="273"/>
      <point x="681" y="335" type="curve" smooth="yes"/>
      <point x="681" y="413"/>
      <point x="614" y="458"/>
      <point x="524" y="458" type="curve" smooth="yes"/>
      <point x="466" y="458"/>
      <point x="417" y="439"/>
      <point x="379" y="407" type="curve"/>
      <point x="351" y="439"/>
      <point x="304" y="458"/>
      <point x="238" y="458" type="curve" smooth="yes"/>
      <point x="189" y="458"/>
      <point x="135" y="448"/>
      <point x="78" y="415" type="curve"/>
      <point x="48" y="304" type="line"/>
      <point x="131" y="294" type="line"/>
      <point x="156" y="363" type="line"/>
      <point x="179" y="375"/>
      <point x="200" y="382"/>
    </contour>
    <contour>
      <point x="182" y="68" type="curve" smooth="yes"/>
      <point x="149" y="68"/>
      <point x="129" y="86"/>
      <point x="129" y="125" type="curve" smooth="yes"/>
      <point x="129" y="178"/>
      <point x="165" y="201"/>
      <point x="224" y="201" type="curve" smooth="yes"/>
      <point x="242" y="201"/>
      <point x="267" y="199"/>
      <point x="288" y="196" type="curve"/>
      <point x="288" y="175" type="line"/>
      <point x="275" y="106"/>
      <point x="231" y="68"/>
    </contour>
    <contour>
      <point x="512" y="383" type="curve" smooth="yes"/>
      <point x="544" y="383"/>
      <point x="573" y="369"/>
      <point x="573" y="331" type="curve" smooth="yes"/>
      <point x="573" y="300"/>
      <point x="554" y="273"/>
      <point x="466" y="256" type="curve" smooth="yes"/>
      <point x="451" y="253"/>
      <point x="429" y="248"/>
      <point x="402" y="245" type="curve"/>
      <point x="411" y="315"/>
      <point x="441" y="383"/>
    </contour>
    <contour>
      <point x="583" y="609" type="line"/>
      <point x="533" y="693" type="line"/>
      <point x="363" y="555" type="line"/>
      <point x="388" y="512" type="line"/>
    </contour>
  </outline>
</glyph>
